<?xml version="1.0" encoding="UTF-8" standalone="no"?><svg width="128px" height="128px" viewBox="0 0 128 128" version="1.1" xmlns="http://www.w3.org/2000/svg" xmlns:xlink="http://www.w3.org/1999/xlink"><path d="M63.6422479,30.0000474 C80.0968193,29.9684195 85.3162789,45.7690187 85.8645258,47.9014303 C86.4127728,50.0338419 95,93.5404689 95,93.5404689 C95,95.8176728 93.9252383,97.9999968 91.0170597,98 C86.76977,97.9797636 85.8645258,93.4455846 81.7235324,93.4772125 C77.5825389,93.4455846 76.349724,97.9999968 72.7461114,98 C69.1424987,98.0000032 68.2374864,93.4772125 63.6422479,93.4772125 C59.0470093,93.4772125 57.9402322,97.9999968 54.4435524,98 C50.9468726,98.0000032 49.143955,93.4772131 45.3799431,93.4772131 C41.6159311,93.4772131 39.7523853,98.0000045 36.1093828,98 C32.4663804,97.9999955 32,94.8344903 32,93.9200028 C32,93.9200028 40.6810712,50.0521268 41.1986954,47.9014303 C41.7163196,45.7507337 47.1876764,30.0316753 63.6422479,30.0000474 Z M72.5,63 C74.9852814,63 77,60.3137085 77,57 C77,53.6862915 74.9852814,51 72.5,51 C70.0147186,51 68,53.6862915 68,57 C68,60.3137085 70.0147186,63 72.5,63 Z M54.5,63 C56.9852814,63 59,60.3137085 59,57 C59,53.6862915 56.9852814,51 54.5,51 C52.0147186,51 50,53.6862915 50,57 C50,60.3137085 52.0147186,63 54.5,63 Z" id="ghostly"></path></svg>
