<svg xmlns="http://www.w3.org/2000/svg" xmlns:xlink="http://www.w3.org/1999/xlink" version="1.1" x="0" y="0"  width="69" height="31" viewBox="0 0 69 31" xml:space="preserve"><defs xmlns="http://www.w3.org/2000/svg"><polygon id="shine" points="-42.167,40 -230,40 -190,0 -2.167,0"/><path id="logo" d="M0,30 L0,31 L68.999,31 L68.999,0 L0,0 L0,30 L0,30 Z M67,2 L67,29 L2,29 L2,2 L67,2 L67,2 Z M14.929675,21.1678091 C13.1593576,21.1678091 11.6723636,20.5803945 10.5,19.5 L11.7723389,17.9557495 C12.7999745,18.831518 13.7227018,19.2268091 14.975675,19.2268091 C16.0057327,19.2268091 16.647675,18.7891349 16.647675,18.0608091 C16.647675,17.2978797 16.1584195,16.969385 14.3866883,16.499978 C11.6923248,15.7899968 10.887675,15.0302401 10.887675,13.1988091 C10.887675,11.2432804 12.3709364,9.91680908 14.558675,9.91680908 C16.1017746,9.91680908 17.2900939,10.3591145 18.3728136,11.2566707 L17.3107604,12.9101562 C16.3218491,12.2013353 15.4645513,11.8568091 14.527675,11.8568091 C13.6238716,11.8568091 13.025675,12.2826973 13.025675,12.9438091 C13.025675,13.758833 13.4315274,14.0205509 15.4427036,14.5526512 C17.8758853,15.2070943 18.785675,16.0896337 18.785675,17.7898091 C18.785675,19.8783352 17.3118762,21.1678091 14.929675,21.1678091 Z M32,10 L22,10 L22,12 L26,12 L26,21 L28,21 L28,12 L32,12 L32,10 Z M45,19 L38,19 L38,12 L45,12 L45,10 L36,10 L36,21 L45,21 L45,19 Z M40,16.5 L44,16.5 L44,14.5 L40,14.5 L40,16.5 Z M58,19 L52,19 L58,12 L58,10 L49,10 L49,12 L55,12 L49,19 L49,21 L58,21 L58,19 Z"/></defs><g id="canvas" fill="none" fill-rule="evenodd"><use xlink:href="#logo" xmlns:xlink="http://www.w3.org/1999/xlink" fill="#fff"/></g><clipPath xmlns="http://www.w3.org/2000/svg" id="clipper"><use xlink:href="#shine" xmlns:xlink="http://www.w3.org/1999/xlink" style="overflow:visible;"/></clipPath><g xmlns="http://www.w3.org/2000/svg" style="opacity:0.35;clip-path:url(#clipper);"><use xlink:href="#logo" xmlns:xlink="http://www.w3.org/1999/xlink" fill="#000"/></g><animateTransform xmlns="http://www.w3.org/2000/svg" xlink:href="#shine" xmlns:xlink="http://www.w3.org/1999/xlink" attributeName="transform" type="translate" from="-1000 0" to="5000 0" begin="0s" dur="7s" repeatCount="indefinite"/></svg>