<?xml version="1.0" standalone="no"?>
<!DOCTYPE svg PUBLIC "-//W3C//DTD SVG 1.1//EN" "http://www.w3.org/Graphics/SVG/1.1/DTD/svg11.dtd" >
<svg xmlns="http://www.w3.org/2000/svg">
<metadata>
Created by FontPrep 20130207 at Wed Apr  2 10:48:52 2014
 By Stezz
Copyright (c) 2013 by atipo. All rights reserved.
</metadata>
<defs>
<font id="27295a7f7849b50bce9a127932cf6c75" horiz-adv-x='1024' >
  <font-face 
    font-family="CalendasPlus-Bold"
    font-weight="700"
    font-stretch="normal"
    units-per-em="2048"
    panose-1="2 0 8 5 0 0 0 2 0 3"
    ascent="1536"
    descent="-512"
    x-height="922"
    cap-height="1434"
    bbox="-289 -600 3209 2202"
    underline-thickness="102"
    underline-position="-102"
    unicode-range="U+000D-FB06"
  />
<missing-glyph horiz-adv-x="1024" 
d="M0 1434h1024v-1434h-1024v1434zM98 98h828v1235h-828v-1235zM543 469h-97v80q0 76 34 139t75 98q109 93 109 185q0 67 -46 105t-110 38q-162 0 -162 -166h-98q0 135 73 202t187 67q114 1 186 -61t72 -174t-78 -192q-32 -34 -66 -66q-80 -77 -79 -175v-80zM551 254h-113
v113h113v-113z" />
    <glyph glyph-name="ellipsis" unicode="&#x2e;&#x2e;&#x2e;" horiz-adv-x="1835" 
d="M1403 115q0 61 42 104t104 43q61 0 105 -43t44 -104t-43 -105t-105 -43q-62 -1 -105 43q-42 44 -42 105zM770 115q0 61 42 104t104 43t106 -43q43 -43 43 -104t-43 -105t-105 -43q-62 0 -105 43q-42 44 -42 105zM135 115q0 61 42 104q43 43 105 43t105 -43t43 -104
t-43 -105t-105 -43q-62 0 -105 43q-42 44 -42 105z" />
    <glyph glyph-name="f_f" unicode="ff" horiz-adv-x="1474" 
d="M444 1047v-125h459v92q0 109 29 198q-25 66 -82 113t-160 47q-102 0 -174 -84t-72 -241zM444 797v-613q0 -52 26 -76t77 -30l78 -10v-68q-176 6 -308 6l-272 -6v68l37 6q123 23 123 127v608h-148l-10 61q113 37 158 74v35q0 240 150 369q151 129 388 129q182 0 289 -93
q135 152 348 152q111 0 186 -41q74 -41 74 -105t-50 -94q-50 -29 -101 -22q-16 59 -59 108t-103 50q-180 0 -180 -357v-153h313v-125h-313v-613q1 -55 23 -79t71 -27l102 -10v-68q-193 6 -323 6l-277 -6v68l37 6q123 23 123 127v596h-459z" />
    <glyph glyph-name="fi" unicode="fi" horiz-adv-x="1368" 
d="M449 797v-613q1 -55 25 -78t77 -28l86 -10v-68q-184 6 -315 6l-277 -6v68l37 6q123 23 123 127v608h-148l-10 61q113 37 158 74v51q0 245 160 393t395 148q139 0 231 -55t92 -144q0 -65 -44 -99q-45 -34 -117 -34t-119 33q6 37 6 70q0 125 -129 125q-111 0 -171 -96
t-60 -261v-153h319q172 0 340 24l55 6v-768q-1 -55 15 -78t55 -28l61 -10v-68q-127 6 -260 6l-266 -6v68l41 6q109 16 109 127v475q0 121 -119 121h-350z" />
    <glyph glyph-name="fl" unicode="fl" horiz-adv-x="1337" 
d="M1163 184q1 -55 17 -78t53 -28l63 -10v-68q-129 6 -260 6l-268 -6v68l41 6q109 16 109 127v1030q0 92 -54 146q-54 55 -166 55t-181 -94t-68 -263v-153h395v-125h-395v-613q1 -55 23 -79t71 -27l102 -10v-68q-193 6 -323 6l-277 -6v68l37 6q123 23 123 127v608h-148
l-10 61q113 37 158 74v51q0 245 163 393t388 148q150 0 229 -59q96 22 156 51l22 8v-1352z" />
    <glyph glyph-name="f_f_i" unicode="ffi" horiz-adv-x="2066" 
d="M444 1047v-125h459v73q0 104 31 191q-53 186 -219 186q-117 0 -194 -86t-77 -239zM1147 797v-613q1 -55 25 -78t77 -28l86 -10v-68q-184 6 -315 6l-277 -6v68l37 6q123 23 123 127v596h-459v-613q0 -52 26 -76t77 -30l78 -10v-68q-176 6 -308 6l-272 -6v68l37 6
q123 23 123 127v608h-148l-10 61q113 37 158 74v35q0 240 151 369q152 129 389 129q176 0 306 -101q160 160 407 160q140 0 232 -55t92 -144q0 -65 -44 -99t-117 -34t-120 33q6 37 6 70q0 125 -129 125q-111 0 -171 -96t-60 -261v-153h319q175 0 340 24l56 6v-768
q0 -55 15 -78t54 -28l62 -10v-68q-127 6 -260 6l-267 -6v68l41 6q109 16 109 127v475q0 121 -119 121h-350z" />
    <glyph glyph-name="f_f_l" unicode="ffl" horiz-adv-x="2035" 
d="M444 1047v-125h459v73q0 104 31 191q-55 186 -219 186q-117 0 -194 -86t-77 -239zM1862 184q0 -55 16 -78t53 -28l64 -10v-68q-129 6 -260 6l-269 -6v68l41 6q109 16 109 127v1030q0 92 -54 146q-54 55 -166 55t-181 -94t-68 -263v-153h395v-125h-395v-613q1 -55 23 -79
t71 -27l102 -10v-68q-193 6 -323 6l-277 -6v68l37 6q123 23 123 127v596h-459v-613q0 -52 26 -76t77 -30l78 -10v-68q-176 6 -308 6l-272 -6v68l37 6q123 23 123 127v608h-148l-10 61q113 37 158 74v35q0 240 151 369q152 129 389 129q176 0 306 -101q164 160 403 160
q150 0 229 -59q101 23 156 51l23 8v-1352z" />
    <glyph glyph-name="T_h" unicode="Th" horiz-adv-x="2367" 
d="M1184 1327h-359v-1104q0 -77 23 -103t92 -36l64 -10v-74q-182 8 -328 8l-314 -8v74l50 10q131 27 131 188v1055h-148q-215 0 -282 -190l-60 10l25 319h47q18 -33 84 -32h940q117 0 225 26t158 51l51 25v-733q31 6 83 44q149 109 268 108q120 -1 190 -75t69 -198v-498
q1 -55 17 -78t53 -28l64 -10v-68q-129 6 -261 6l-245 -6v68l26 6q100 18 101 127v444q0 154 -152 154q-43 0 -117 -37t-96 -39v-539q0 -55 16 -78t54 -28l63 -10v-68q-129 6 -260 6l-268 -6v68l43 6q49 8 79 41t29 86v975q1 76 -33 114t-122 37z" />
    <glyph glyph-name="T_h.caron" unicode="&#x164;h" horiz-adv-x="2367" 
d="M946 1882q51 0 74 -26t22 -58l-350 -280l-360 282l139 88l213 -262q27 96 99 176q73 80 163 80zM1184 1327h-359v-1104q0 -77 23 -103t92 -36l64 -10v-74q-182 8 -328 8l-314 -8v74l50 10q131 27 131 188v1055h-148q-215 0 -282 -190l-60 10l25 319h47q18 -33 84 -32h940
q117 0 225 26t158 51l51 25v-733q31 6 83 44q149 109 268 108q120 -1 190 -75t69 -198v-498q1 -55 17 -78t53 -28l64 -10v-68q-129 6 -261 6l-245 -6v68l26 6q100 18 101 127v444q0 154 -152 154q-43 0 -117 -37t-96 -39v-539q0 -55 16 -78t54 -28l63 -10v-68q-129 6 -260 6
l-268 -6v68l43 6q49 8 79 41t29 86v975q1 76 -33 114t-122 37z" />
    <glyph glyph-name="T_h.commaaccent" unicode="&#x162;h" horiz-adv-x="2367" 
d="M666 -123q68 0 110 -46t41 -114q0 -121 -95 -201t-230 -116l-21 49q63 23 102 67t39 93q0 76 -94 123q0 63 40 104t108 41zM1184 1327h-359v-1104q0 -77 23 -103t92 -36l64 -10v-74q-182 8 -328 8l-314 -8v74l50 10q131 27 131 188v1055h-148q-215 0 -282 -190l-60 10
l25 319h47q18 -33 84 -32h940q117 0 225 26t158 51l51 25v-733q31 6 83 44q149 109 268 108q120 -1 190 -75t69 -198v-498q1 -55 17 -78t53 -28l64 -10v-68q-129 6 -261 6l-245 -6v68l26 6q100 18 101 127v444q0 154 -152 154q-43 0 -117 -37t-96 -39v-539q0 -55 16 -78
t54 -28l63 -10v-68q-129 6 -260 6l-268 -6v68l43 6q49 8 79 41t29 86v975q1 76 -33 114t-122 37z" />
    <glyph glyph-name="f_j" unicode="fj" horiz-adv-x="1347" 
d="M1163 141q-1 -285 -127 -413q-64 -64 -182 -111q-119 -47 -160 -78l-41 55q25 23 93 71t102 93q72 94 72 281v645q0 113 -134 113h-337v-613q1 -55 25 -78t77 -28l86 -10v-68q-184 6 -315 6l-277 -6v68l37 6q123 23 123 127v608h-148l-10 61q113 37 158 74v51
q0 245 160 393t395 148q139 0 231 -55t92 -144q0 -65 -44 -99q-45 -34 -117 -34t-119 33q6 37 6 70q0 125 -129 125q-111 0 -171 -96t-60 -261v-153h319q172 0 340 24l55 6v-811z" />
    <glyph glyph-name="f_f_j" unicode="ffj" horiz-adv-x="2045" 
d="M444 1047v-125h459v73q0 104 31 191q-55 186 -219 186q-117 0 -194 -86t-77 -239zM1862 141q0 -283 -128 -413q-64 -64 -182 -111q-119 -47 -159 -78l-41 55q24 23 92 71t102 93q72 94 72 281v645q0 113 -133 113h-338v-613q1 -55 25 -78t77 -28l86 -10v-68
q-184 6 -315 6l-277 -6v68l37 6q123 23 123 127v596h-459v-613q0 -52 26 -76t77 -30l78 -10v-68q-176 6 -308 6l-272 -6v68l37 6q123 23 123 127v608h-148l-10 61q113 37 158 74v35q0 240 151 369q152 129 389 129q176 0 306 -101q160 160 407 160q140 0 232 -55t92 -144
q0 -65 -44 -99t-117 -34t-120 33q6 37 6 70q0 125 -129 125q-111 0 -171 -96t-60 -261v-153h319q175 0 340 24l56 6v-811z" />
    <glyph glyph-name="f_b" unicode="fb" horiz-adv-x="1925" 
d="M1337 803q-37 0 -96 -26t-78 -27v-502q0 -182 183 -182q112 0 186 114t74 268q0 156 -68 256t-201 99zM918 289v942q0 92 -54 146q-54 55 -166 55t-181 -94t-68 -263v-153h395v-125h-395v-613q1 -55 23 -79t71 -27l102 -10v-68q-193 6 -323 6l-277 -6v68l37 6
q123 23 123 127v608h-148l-10 61q113 37 158 74v51q0 245 163 393t388 148q150 0 229 -59q76 18 178 59v-702q27 6 72 38q120 84 240 82q167 0 283 -136t116 -329q0 -241 -158 -381t-391 -141q-188 0 -303 58l-104 -84l-46 24q46 125 46 324z" />
    <glyph glyph-name="f_f_b" unicode="ffb" horiz-adv-x="2623" 
d="M444 1047v-125h459v73q0 104 31 191q-55 186 -219 186q-117 0 -194 -86t-77 -239zM2036 803q-36 0 -96 -26t-78 -27v-502q0 -182 182 -182q112 0 186 114t74 268q0 156 -68 256t-200 99zM1616 289v942q0 92 -54 146q-54 55 -166 55t-181 -94t-68 -263v-153h395v-125h-395
v-613q1 -55 23 -79t71 -27l102 -10v-68q-193 6 -323 6l-277 -6v68l37 6q123 23 123 127v596h-459v-613q0 -52 26 -76t77 -30l78 -10v-68q-176 6 -308 6l-272 -6v68l37 6q123 23 123 127v608h-148l-10 61q113 37 158 74v35q0 240 151 369q152 129 389 129q176 0 308 -103
q158 162 401 162q150 0 229 -59q78 18 179 59v-702q28 6 72 38q119 84 239 82q168 0 284 -136t115 -329q0 -241 -158 -381t-391 -141q-188 0 -303 58l-104 -84l-45 24q45 125 45 324z" />
    <glyph glyph-name="f_h" unicode="fh" horiz-adv-x="1947" 
d="M920 201v1030q0 92 -56 146q-56 55 -166 55q-112 0 -181 -94t-68 -263v-153h395v-125h-395v-613q1 -55 23 -79t71 -27l102 -10v-68q-193 6 -323 6l-277 -6v68l37 6q123 23 123 127v608h-148l-10 61q113 37 158 74v51q0 245 163 393t388 148q150 0 229 -59q76 18 178 59
v-733q31 6 83 44q149 109 268 108q120 -1 190 -75t70 -198v-498q0 -55 16 -78t53 -28l64 -10v-68q-129 6 -260 6l-246 -6v68l26 6q100 18 101 127v444q0 154 -152 154q-42 0 -116 -37t-97 -39v-539q1 -55 17 -78t53 -28l63 -10v-68q-129 6 -260 6l-268 -6v68l43 6
q49 8 79 41t30 86z" />
    <glyph glyph-name="f_f_h" unicode="ffh" horiz-adv-x="2646" 
d="M444 1047v-125h459v73q0 104 31 191q-55 186 -219 186q-117 0 -194 -86t-77 -239zM1618 201v1030q0 92 -55 146q-55 55 -167 55t-181 -94t-68 -263v-153h395v-125h-395v-613q1 -55 23 -79t71 -27l102 -10v-68q-193 6 -323 6l-277 -6v68l37 6q123 23 123 127v596h-459
v-613q0 -52 26 -76t77 -30l78 -10v-68q-176 6 -308 6l-272 -6v68l37 6q123 23 123 127v608h-148l-10 61q113 37 158 74v35q0 240 151 369q152 129 389 129q176 0 308 -103q158 162 401 162q150 0 229 -59q78 18 179 59v-733q31 6 83 44q149 109 268 108t189 -75t70 -198
v-498q0 -55 16 -78t54 -28l63 -10v-68q-129 6 -260 6l-246 -6v68l27 6q100 18 100 127v444q0 154 -151 154q-43 0 -117 -37t-96 -39v-539q0 -55 16 -78t53 -28l64 -10v-68q-129 6 -260 6l-269 -6v68l43 6q49 8 79 41t30 86z" />
    <glyph glyph-name="f_k" unicode="fk" horiz-adv-x="1925" 
d="M920 201v1030q0 92 -56 146q-56 55 -166 55q-112 0 -181 -94t-68 -263v-153h395v-125h-395v-613q1 -55 23 -79t71 -27l102 -10v-68q-193 6 -323 6l-277 -6v68l37 6q123 23 123 127v608h-148l-10 61q113 37 158 74v51q0 245 163 393t388 148q150 0 229 -59q76 18 178 59
v-985h80l123 174q23 33 23 57q0 55 -70 66l-43 6v68q104 -6 283 -7l280 7v-66l-72 -8q-195 -20 -288 -141l-76 -99l215 -319q88 -133 158 -177t172 -44v-50q-88 -32 -206 -32t-200 53t-147 164l-140 227q-33 51 -92 51v-297q1 -55 17 -78t53 -28l63 -10v-68q-129 6 -260 6
l-268 -6v68l43 6q49 8 79 41t30 86z" />
    <glyph glyph-name="f_f_k" unicode="ffk" horiz-adv-x="2623" 
d="M444 1047v-125h459v73q0 104 31 191q-55 186 -219 186q-117 0 -194 -86t-77 -239zM1618 201v1030q0 92 -55 146q-55 55 -167 55t-181 -94t-68 -263v-153h395v-125h-395v-613q1 -55 23 -79t71 -27l102 -10v-68q-193 6 -323 6l-277 -6v68l37 6q123 23 123 127v596h-459
v-613q0 -52 26 -76t77 -30l78 -10v-68q-176 6 -308 6l-272 -6v68l37 6q123 23 123 127v608h-148l-10 61q113 37 158 74v35q0 240 151 369q152 129 389 129q176 0 308 -103q158 162 401 162q150 0 229 -59q78 18 179 59v-985h80l122 174q23 33 23 57q0 55 -70 66l-43 6v68
q104 -6 283 -7l280 7v-66l-71 -8q-195 -20 -289 -141l-76 -99l215 -319q88 -133 158 -177t172 -44v-50q-88 -32 -206 -32t-199 53q-82 53 -148 164l-139 227q-33 51 -92 51v-297q0 -55 16 -78t53 -28l64 -10v-68q-129 6 -260 6l-269 -6v68l43 6q49 8 79 41t30 86z" />
    <glyph glyph-name="f_r" unicode="fr" horiz-adv-x="1611" 
d="M449 797v-613q1 -55 23 -79t71 -27l102 -10v-68q-193 6 -323 6l-277 -6v68l37 6q123 23 123 127v608h-148l-10 61q113 37 158 74v70q0 242 139 382t338 140q112 0 186 -41t74 -105t-50 -94q-50 -29 -101 -22q-15 59 -59 108t-103 50q-180 0 -180 -357v-190l344 14
q234 8 333 43l35 10v-151q19 6 67 45q136 110 213 109t115 -43t39 -108q0 -66 -39 -98q-39 -34 -96 -34t-92 24q6 16 6 39q0 57 -55 58q-33 0 -87 -32t-71 -36v-541q0 -55 22 -79t70 -27l103 -10v-68q-139 6 -324 6l-274 -6v68l37 6q53 10 87 43t33 84v483q0 113 -120 113
h-346z" />
    <glyph glyph-name="f_f_r" unicode="ffr" horiz-adv-x="2308" 
d="M444 1047v-125h457v92q0 109 31 198q-23 66 -81 113t-161 47q-102 0 -174 -84t-72 -241zM444 797v-613q0 -52 26 -76t77 -30l78 -10v-68q-176 6 -308 6l-272 -6v68l37 6q123 23 123 127v608h-148l-10 61q113 37 158 74v35q0 240 150 369q151 129 388 129q180 0 287 -93
q135 152 348 152q111 0 186 -41q74 -41 74 -105t-50 -94q-50 -29 -101 -22q-15 59 -59 108t-103 50q-180 0 -180 -357v-190l344 14q235 8 334 43l35 10v-151q18 6 66 45q135 110 212 109q78 -1 117 -43t39 -108t-39 -98q-39 -34 -97 -34t-92 24q6 16 7 39q0 57 -56 58
q-33 0 -87 -32t-70 -36v-541q0 -55 22 -79t70 -27l102 -10v-68q-139 6 -323 6l-275 -6v68l37 6q53 10 87 43t34 84v483q0 113 -121 113h-346v-613q1 -55 23 -79t71 -27l102 -10v-68q-193 6 -323 6l-277 -6v68l37 6q123 23 123 127v596h-457z" />
    <glyph glyph-name="f_t" unicode="ft" horiz-adv-x="1486" 
d="M449 809v-625q1 -55 23 -79t71 -27l102 -10v-68q-193 6 -323 6l-277 -6v68l37 6q123 23 123 127v608h-148l-10 61q113 37 158 74v70q0 242 139 382t338 140q112 0 186 -41t74 -105t-50 -94q-50 -29 -101 -22q-15 59 -59 108t-103 50q-180 0 -180 -357v-190l264 14
q219 12 352 240l63 -19v-198h291v-125h-291v-557q0 -129 136 -129q89 0 166 20l20 8l16 -59q-143 -113 -331 -113q-115 0 -184 67t-68 187v588h-434z" />
    <glyph glyph-name="f_f_t" unicode="fft" horiz-adv-x="2185" 
d="M444 1047v-125h459v92q0 109 31 198q-23 66 -82 113t-162 47q-102 0 -174 -84t-72 -241zM1147 809v-625q1 -55 23 -79t71 -27l102 -10v-68q-193 6 -323 6l-277 -6v68l37 6q123 23 123 127v596h-459v-613q0 -52 26 -76t77 -30l78 -10v-68q-176 6 -308 6l-272 -6v68l37 6
q123 23 123 127v608h-148l-10 61q113 37 158 74v35q0 240 150 369q151 129 388 129q182 0 289 -93q135 152 348 152q111 0 186 -41q74 -41 74 -105t-50 -94q-50 -29 -101 -22q-16 59 -59 108t-103 50q-180 0 -180 -357v-190l264 14q219 12 352 240l64 -19v-198h291v-125
h-291v-557q0 -129 135 -129q94 0 164 20l22 8l17 -59q-143 -113 -332 -113q-115 0 -183 67t-69 187v588h-434z" />
    <glyph glyph-name="f_y" unicode="fy" horiz-adv-x="1796" 
d="M449 184q1 -55 23 -79t71 -27l102 -10v-68q-193 6 -323 6l-277 -6v68l37 6q123 23 123 127v608h-148l-10 61q113 37 158 74v70q0 242 139 382t338 140q112 0 186 -41t74 -105t-50 -94q-50 -29 -101 -22q-15 59 -59 108t-103 50q-180 0 -180 -357v-153q262 -4 548 -4
l244 4v-68l-41 -10q-70 -16 -70 -58q0 -4 11 -41l159 -473l177 435q25 63 24 86q0 37 -59 51l-43 10v68q102 -6 190 -7l185 7v-68l-43 -10q-53 -12 -86 -47t-62 -105l-354 -835q-129 -311 -391 -312q-94 0 -145 40q-50 41 -50 95t32 88t91 33q25 0 47 -6q-4 -17 -4 -37
t26 -40t66 -19q143 0 223 184l50 115l-277 702q-45 117 -174 117l-274 2v-635z" />
    <glyph glyph-name="f_f_y" unicode="ffy" horiz-adv-x="2494" 
d="M444 1047v-125h459v92q0 109 31 198q-23 64 -83 112t-162 48q-101 0 -173 -84t-72 -241zM1147 184q1 -55 23 -79t71 -27l102 -10v-68q-193 6 -323 6l-277 -6v68l37 6q123 23 123 127v596h-459v-613q0 -52 26 -76t77 -30l78 -10v-68q-176 6 -308 6l-272 -6v68l37 6
q123 23 123 127v608h-148l-10 61q113 37 158 74v35q0 240 150 369q151 129 388 129q182 0 289 -93q135 152 348 152q111 0 186 -41q74 -41 74 -105t-50 -94q-50 -29 -101 -22q-16 59 -59 108t-103 50q-180 0 -180 -357v-153q262 -4 549 -4l243 4v-68l-41 -10
q-70 -16 -69 -58q0 -4 10 -41l160 -473l176 435q25 63 25 86q0 37 -60 51l-43 10v68q102 -6 191 -7l184 7v-68l-43 -10q-53 -12 -86 -47t-62 -105l-354 -835q-129 -311 -391 -312q-94 0 -144 40q-50 41 -50 95t31 88q32 34 91 33q25 0 47 -6q-4 -17 -4 -37t26 -40t66 -19
q143 0 224 184l49 115l-277 702q-47 117 -174 117l-274 2v-635z" />
    <glyph glyph-name=".notdef" horiz-adv-x="1024" 
d="M0 1434h1024v-1434h-1024v1434zM98 98h828v1235h-828v-1235zM543 469h-97v80q0 76 34 139t75 98q109 93 109 185q0 67 -46 105t-110 38q-162 0 -162 -166h-98q0 135 73 202t187 67q114 1 186 -61t72 -174t-78 -192q-32 -34 -66 -66q-80 -77 -79 -175v-80zM551 254h-113
v113h113v-113z" />
    <glyph glyph-name=".null" horiz-adv-x="0" 
 />
    <glyph glyph-name="nonmarkingreturn" horiz-adv-x="681" 
 />
    <glyph glyph-name="NULL" horiz-adv-x="0" 
 />
    <glyph glyph-name="NULL" horiz-adv-x="0" 
 />
    <glyph glyph-name="CR" unicode="&#xd;" horiz-adv-x="487" 
 />
    <glyph glyph-name="space" unicode=" " horiz-adv-x="512" 
 />
    <glyph glyph-name="exclam" unicode="!" horiz-adv-x="565" 
d="M242 479q0 156 -58 418q-57 262 -57 397q0 76 45 122t111 46q67 0 111 -46t44 -122q0 -135 -57 -397t-57 -418l4 -94h-90q4 35 4 94zM135 115q0 61 42 104q43 43 105 43t105 -43t43 -104t-43 -105t-105 -43q-62 0 -105 43q-42 44 -42 105z" />
    <glyph glyph-name="quotedbl" unicode="&#x22;" horiz-adv-x="692" 
d="M506 1452q47 0 79 -32q31 -32 31 -88t-32 -186t-33 -200l4 -86h-98q4 59 4 104q0 44 -33 174t-33 190t32 92t79 32zM186 1452q47 0 79 -32t32 -88t-33 -186t-33 -200l5 -86h-99q4 59 4 104q-1 44 -33 174t-32 190t32 92t78 32z" />
    <glyph glyph-name="numbersign" unicode="#" horiz-adv-x="1345" 
d="M569 813l-98 -350h272l99 350h-273zM614 0l91 324h-273l-90 -324h-162l90 324h-225l41 139h223l99 350h-220l39 139h219l95 330h161l-94 -330h273l94 330h162l-95 -330h256l-38 -139h-256l-99 -350h254l-41 -139h-252l-90 -324h-162z" />
    <glyph glyph-name="dollar" unicode="$" horiz-adv-x="1081" 
d="M367 1071q0 -121 145 -219l31 395q-82 -6 -129 -55t-47 -121zM756 260q0 127 -166 236q-6 -102 -27 -435q85 3 139 61t54 138zM80 231q0 66 47 106t121 40q0 -115 51 -202t156 -109l37 489q-80 47 -124 79q-145 105 -186 212q-27 70 -26 155q0 147 107 241
q108 93 286 104l12 235h125q-20 -178 -27 -238q160 -16 250 -91t90 -146q0 -72 -42 -110t-121 -38q-4 109 -54 182t-133 97l-37 -444q86 -49 138 -83t112 -89q121 -109 121 -274t-105 -271t-321 -115l-12 -227h-119q14 170 20 231q-174 16 -270 93t-96 173z" />
    <glyph glyph-name="percent" unicode="%" horiz-adv-x="1568" 
d="M834 240q0 142 96 242q96 102 244 102t237 -85q90 -85 90 -227t-96 -242q-95 -102 -243 -102t-238 85t-90 227zM1156 492q-138 0 -138 -233q0 -111 46 -175t115 -64q138 0 138 233q0 111 -46 175t-115 64zM735 1006q0 -140 -96 -242q-95 -102 -243 -102t-238 84t-90 226
t96 244t244 101q148 0 237 -85q90 -85 90 -226zM390 1225q-138 0 -138 -233q0 -110 46 -174t115 -64q138 0 138 232q0 110 -46 174t-115 65zM1102 1300h196q-110 -143 -432 -670t-399 -681h-197q98 135 423 663t409 688z" />
    <glyph glyph-name="ampersand" unicode="&#x26;" horiz-adv-x="1486" 
d="M1075 633q0 125 -131 155l-59 15v74q143 -10 299 -11l268 11v-74l-84 -17q-94 -18 -141 -92t-94 -202t-105 -205q72 -90 151 -135q155 -89 294 -5l26 -47q-53 -63 -138 -98t-165 -35q-201 0 -344 154q-57 -45 -98 -71t-134 -54t-223 -27q-130 0 -230 80q-99 80 -99 211
t90 229t225 152q-84 96 -128 181t-44 188q0 190 142 321q141 131 323 131t273 -58t91 -159q0 -69 -49 -109t-117 -40t-114 28q33 55 33 119q0 131 -154 131q-84 0 -145 -66t-62 -188q0 -188 178 -381l359 -383q106 152 106 277zM279 317q0 -87 65 -139q66 -51 196 -51
t238 70l-344 383q-68 -40 -112 -108t-43 -155z" />
    <glyph glyph-name="quotesingle" unicode="'" horiz-adv-x="372" 
d="M186 1452q47 0 79 -32t32 -88t-33 -186t-33 -200l5 -86h-99q4 59 4 104q-1 44 -33 174t-32 190t32 92t78 32z" />
    <glyph glyph-name="parenleft" unicode="(" horiz-adv-x="696" 
d="M57 618q0 308 156 568t371 418l53 -52q-365 -393 -365 -933t365 -934l-53 -52q-215 158 -371 417t-156 568z" />
    <glyph glyph-name="parenright" unicode=")" horiz-adv-x="696" 
d="M639 618q0 -309 -156 -568t-370 -417l-54 52q365 395 365 935t-365 932l54 52q215 -158 371 -418t155 -568z" />
    <glyph glyph-name="asterisk" unicode="*" horiz-adv-x="727" 
d="M362 1475q62 -1 62 -85q0 -50 -23 -165q130 125 183 125q27 0 44 -18t17 -47q0 -30 -24 -46q-53 -39 -185 -82q160 -59 184 -77t25 -47q0 -30 -17 -47q-18 -17 -38 -17t-37 8q-49 31 -152 113q23 -136 23 -176q0 -74 -62 -74t-61 74q0 40 23 176q-102 -82 -152 -113
q-16 -8 -37 -8t-38 17t-17 47t24 47t185 77q-131 43 -185 82q-24 16 -24 46t22 52t62 9q57 -23 160 -121q-23 117 -23 166q0 82 61 84z" />
    <glyph glyph-name="plus" unicode="+" horiz-adv-x="933" 
d="M375 551v369h184v-369h375v-184h-375v-367h-184v367h-375v184h375z" />
    <glyph glyph-name="comma" unicode="," horiz-adv-x="571" 
d="M284 262q72 0 114 -52t42 -122q0 -154 -98 -272t-244 -154l-20 49q80 31 127 90t47 127q0 126 -117 187q0 63 39 105t110 42z" />
    <glyph glyph-name="hyphen" unicode="-" horiz-adv-x="729" 
d="M670 595q0 -36 -8 -48l-574 -109l-29 43q97 74 233 139t257 64q57 0 89 -26t32 -63z" />
    <glyph glyph-name="period" unicode="." horiz-adv-x="565" 
d="M135 115q0 61 42 104q43 43 105 43t105 -43t43 -104t-43 -105t-105 -43q-62 0 -105 43q-42 44 -42 105z" />
    <glyph glyph-name="slash" unicode="/" horiz-adv-x="841" 
d="M18 -346q295 852 572 1819l35 129h196q-260 -725 -565 -1803l-41 -145h-197z" />
    <glyph glyph-name="zero" unicode="0" horiz-adv-x="1261" 
d="M658 74q243 0 243 406q0 190 -88 310t-209 119q-244 1 -246 -405q0 -190 88 -310t212 -120zM610 -33q-238 0 -383 131t-145 371q0 239 166 393t404 154t382 -131q146 -131 146 -371t-166 -394t-404 -153z" />
    <glyph glyph-name="one" unicode="1" horiz-adv-x="819" 
d="M543 205q0 -109 135 -121l78 -8v-76q-195 6 -338 6l-348 -6v76l55 8q172 27 172 188v422q0 130 -117 142l-96 10v76q389 10 629 90l22 -82l-55 -29q-76 -39 -107 -96t-30 -164v-436z" />
    <glyph glyph-name="two" unicode="2" horiz-adv-x="1058" 
d="M516 1016q164 0 274 -87t109 -225q0 -138 -118 -248q-118 -112 -410 -282l336 27q96 6 149 53t96 137l60 -16l-105 -375h-829l-19 53l394 328q98 83 143 147t45 152t-48 141t-130 53t-122 -43t-40 -100t21 -108q-38 -29 -90 -29t-91 35t-39 96q0 127 125 209t289 82z" />
    <glyph glyph-name="three" unicode="3" horiz-adv-x="999" 
d="M598 711q0 71 -44 119t-131 48t-130 -50t-43 -106t14 -85q-25 -23 -80 -23t-88 34t-33 93q0 109 123 192q124 83 296 83t271 -81t99 -198q0 -225 -346 -338l2 -10q61 8 90 8q150 0 244 -78q94 -79 94 -203t-66 -220t-184 -154q-232 -114 -594 -129l-14 86q262 15 435 113
t173 268q0 215 -272 215q-72 0 -142 -19l-18 93q344 109 344 342z" />
    <glyph glyph-name="four" unicode="4" horiz-adv-x="1216" 
d="M1145 20h-264v-413h-222v413h-528l-29 62l314 461q119 174 119 291q0 86 -41 149q41 47 105 47q65 0 115 -44t50 -131t-58 -172t-186 -220l-262 -281h401v230l222 96v-326h264v-162z" />
    <glyph glyph-name="five" unicode="5" horiz-adv-x="1034" 
d="M840 140q0 -228 -166 -374t-420 -147q-135 0 -222 59t-87 150q0 61 39 92t83 31t74 -12q-12 -43 -12 -93t37 -88t108 -37q156 1 236 101t80 248q0 271 -282 339q-75 17 -163 17l101 565h434q172 0 244 174l45 -10l-84 -350h-576l-30 -174q231 0 396 -131
q165 -132 165 -360z" />
    <glyph glyph-name="six" unicode="6" horiz-adv-x="1110" 
d="M1020 385q0 -199 -139 -309t-345 -109q-206 0 -325 138q-119 139 -119 319t58 326t148 245q91 101 211 181q216 145 478 194l17 -63q-287 -94 -454 -291t-196 -402q29 6 78 38q136 88 240 87q144 0 246 -99t102 -255zM342 420q0 -172 59 -261t165 -89t154 76
q48 77 48 193q0 115 -51 189t-148 74q-49 0 -121 -28t-98 -35q-8 -41 -8 -119z" />
    <glyph glyph-name="seven" unicode="7" horiz-adv-x="1124" 
d="M496 -96q0 -116 84 -223q-56 -61 -146 -61t-143 62q-53 64 -53 164t55 202t203 304l354 484l-434 -31q-217 -16 -287 -211l-53 12l90 385h862l21 -37l-361 -565q-92 -145 -142 -257t-50 -228z" />
    <glyph glyph-name="eight" unicode="8" horiz-adv-x="1077" 
d="M950 1047q0 -70 -32 -127t-73 -87q-40 -30 -90 -66t-69 -58q279 -168 279 -381q0 -121 -77 -208q-139 -157 -372 -157q-172 0 -296 85t-124 228q0 92 52 158t138 123t105 80q-141 96 -204 178q-62 82 -62 195q0 147 124 240t294 93q171 1 289 -83t118 -213zM729 1052
q0 78 -48 136t-134 57q-86 0 -137 -53q-52 -53 -52 -138q0 -84 48 -142t176 -140q16 23 62 72t66 90q19 40 19 118zM319 244q-1 -78 53 -131t147 -53t146 69q52 70 52 145q0 170 -203 295q-18 -31 -72 -86t-89 -109q-34 -52 -34 -130z" />
    <glyph glyph-name="nine" unicode="9" horiz-adv-x="1110" 
d="M574 1018q206 0 325 -138t119 -318t-57 -326t-149 -246t-211 -180q-219 -146 -478 -195l-17 63q287 94 454 291t196 402q-29 -6 -78 -38q-136 -88 -240 -87q-143 0 -245 99t-103 255q0 198 139 308t345 110zM768 565q0 172 -59 261t-165 89t-154 -76q-48 -77 -48 -193
t51 -190t148 -73q49 1 121 29t98 34q8 41 8 119z" />
    <glyph glyph-name="colon" unicode=":" horiz-adv-x="565" 
d="M135 700q0 60 42 104q43 44 105 44t105 -43t43 -105t-43 -104q-43 -43 -105 -43t-105 43q-42 43 -42 104zM135 115q0 61 42 104q43 43 105 43t105 -43t43 -104t-43 -105t-105 -43q-62 0 -105 43q-42 44 -42 105z" />
    <glyph glyph-name="semicolon" unicode=";" horiz-adv-x="565" 
d="M284 262q72 0 114 -52t42 -122q0 -154 -98 -272t-244 -154l-20 49q80 31 127 90t47 127q0 126 -117 187q0 63 39 105t110 42zM135 700q0 60 42 104q43 44 105 44t105 -43t43 -105t-43 -104q-43 -43 -105 -43t-105 43q-42 43 -42 104z" />
    <glyph glyph-name="less" unicode="&#x3c;" horiz-adv-x="1136" 
d="M1001 0l-882 373v157l882 373v-182l-659 -270l659 -269v-182z" />
    <glyph glyph-name="equal" unicode="=" horiz-adv-x="935" 
d="M936 750v-183h-936v183h936zM936 154h-936v184h936v-184z" />
    <glyph glyph-name="greater" unicode="&#x3e;" horiz-adv-x="1116" 
d="M1001 373l-882 -373v182l659 269l-659 270v182l882 -373v-157z" />
    <glyph glyph-name="question" unicode="?" horiz-adv-x="905" 
d="M262 115q0 61 42 104t104 43t106 -43q43 -43 43 -104t-43 -105t-105 -43q-62 0 -105 43q-42 44 -42 105zM386 1462q150 0 285 -101q136 -101 136 -245q0 -88 -40 -165t-96 -132q-57 -55 -113 -107q-136 -126 -136 -235q0 -55 18 -92h-59q-94 109 -94 247t122 260
q50 50 100 98q122 117 122 218q1 51 -59 92t-144 41q-137 0 -137 -102l10 -63q-33 -12 -85 -12t-88 30q-36 31 -36 82q0 84 72 135t222 51z" />
    <glyph glyph-name="at" unicode="@" horiz-adv-x="1634" 
d="M700 303q51 0 117 84q109 139 191 375q-31 63 -93 63q-111 0 -191 -130t-81 -281q0 -111 57 -111zM889 299q0 78 41 172h-8q-125 -272 -277 -272q-75 0 -111 51t-36 133q0 190 137 352t311 162q78 0 105 -43q37 84 102 84q47 0 76 -35q-43 -49 -128 -253t-85 -304
q0 -47 49 -47q176 0 296 126q120 127 120 323q1 196 -137 320t-404 124t-458 -224q-194 -224 -194 -488t154 -424q154 -161 453 -160q100 0 218 30t187 84q6 -12 7 -22q1 -58 -145 -120t-328 -63q-336 -1 -541 177t-205 483q0 139 59 281q135 325 446 461q173 77 380 77
q283 0 455 -150t171 -368q0 -133 -57 -245t-147 -180q-185 -142 -404 -142q-102 0 -102 100z" />
    <glyph glyph-name="A" unicode="A" horiz-adv-x="1542" 
d="M696 1180l-188 -539h373zM1022 197q0 27 -14 69l-88 260h-453l-88 -254q-18 -55 -19 -90q0 -78 121 -98l62 -10v-74q-137 8 -275 8l-239 -8v74l37 10q129 35 186 192l436 1170l172 20l438 -1210q49 -139 175 -172l40 -10v-74q-111 8 -292 8l-340 -8v74l41 10
q100 27 100 113z" />
    <glyph glyph-name="B" unicode="B" horiz-adv-x="1302" 
d="M256 272v938q0 76 -23 103t-92 37l-63 10v74q182 -8 328 -9l243 9q217 0 349 -92t132 -242q0 -238 -299 -324q168 -27 290 -133t122 -264q0 -159 -135 -269t-391 -110l-328 8l-313 -8v74l49 10q131 27 131 188zM539 203q0 -119 141 -119q114 0 188 80t74 211
q0 172 -105 253t-247 81q-31 0 -51 -4v-502zM844 1101q0 105 -58 177t-163 72q-47 -1 -84 -13v-553q80 22 188 4q53 43 85 126t32 187z" />
    <glyph glyph-name="C" unicode="C" horiz-adv-x="1478" 
d="M1374 1407v-383h-67q-33 154 -148 245t-327 91t-339 -167q-128 -167 -128 -451t142 -478t411 -194q164 0 260 96t120 227l68 -8l-37 -340q-95 0 -243 -39t-283 -39q-328 1 -536 189t-208 524q0 207 93 383q92 176 280 288t438 111q108 0 256 -28t248 -27z" />
    <glyph glyph-name="D" unicode="D" horiz-adv-x="1624" 
d="M256 272v938q0 76 -23 103t-92 37l-63 10v74q182 -8 328 -9l425 9q307 0 521 -182t213 -499t-227 -535t-601 -218l-348 8l-313 -8v74l49 10q131 27 131 188zM702 84q557 0 558 602q0 303 -162 483t-428 181q-94 0 -131 -13v-1114q-1 -139 163 -139z" />
    <glyph glyph-name="E" unicode="E" 
d="M1079 1098h-67q-16 116 -104 184t-242 68q-90 0 -127 -13v-557h131q154 0 176 146l14 94h74q-8 -133 -8 -262l8 -242h-76l-12 51q-25 104 -150 105h-157v-455q0 -133 166 -133q135 0 226 84t138 221l68 -8l-68 -381q-451 8 -668 8l-325 -8v74l49 10q131 27 131 188v938
q0 76 -23 103t-92 37l-63 10v74q195 -9 340 -9l661 9v-336z" />
    <glyph glyph-name="F" unicode="F" horiz-adv-x="1163" 
d="M539 651v-428q0 -73 38 -99t123 -40l66 -10v-74q-231 8 -377 8l-313 -8v74l49 10q131 27 131 188v938q0 76 -23 103t-92 37l-63 10v74q195 -8 340 -9l661 9v-336h-67q-16 116 -104 184t-242 68q-90 0 -127 -13v-577h131q154 0 176 145l14 94h74q-8 -133 -8 -262l8 -241
h-76l-12 51q-25 104 -150 104h-157z" />
    <glyph glyph-name="G" unicode="G" horiz-adv-x="1597" 
d="M940 618h596v-73l-27 -6q-123 -29 -123 -183v-311q-110 0 -280 -39t-303 -39q-328 1 -536 189t-208 517q-1 329 221 559t588 230q106 0 256 -28t250 -27v-383h-67q-33 154 -148 245t-327 91t-339 -167q-128 -167 -128 -451t142 -478t411 -194q207 0 206 159v174
q0 63 -32 93q-33 29 -115 43l-37 6v73z" />
    <glyph glyph-name="H" unicode="H" horiz-adv-x="1742" 
d="M1487 1161v-938q1 -77 23 -103t92 -36l63 -10v-74q-182 8 -328 8l-313 -8v74l49 10q131 27 131 188v410h-665v-459q1 -77 23 -103t91 -36l64 -10v-74q-182 8 -328 8l-313 -8v74l49 10q131 27 131 188v938q0 76 -23 103t-92 37l-63 10v74q182 -8 328 -9l313 9v-74l-49 -10
q-131 -27 -131 -189v-356h665v405q0 76 -22 103q-23 27 -92 37l-64 10v74q182 -8 328 -9l313 9v-74l-49 -10q-131 -27 -131 -189z" />
    <glyph glyph-name="I" unicode="I" horiz-adv-x="794" 
d="M539 1161v-938q1 -77 23 -103t91 -36l64 -10v-74q-182 8 -328 8l-313 -8v74l49 10q131 27 131 188v938q0 76 -23 103t-92 37l-63 10v74q182 -8 328 -9l313 9v-74l-49 -10q-131 -27 -131 -189z" />
    <glyph glyph-name="J" unicode="J" horiz-adv-x="784" 
d="M539 1161v-975q0 -166 -31 -261q-32 -95 -94 -161t-184 -130q-122 -62 -156 -93l-45 64q16 27 83 89t93 113q51 98 51 283v1120q0 76 -23 103t-92 37l-63 10v74q182 -8 328 -9l313 9v-74l-49 -10q-131 -27 -131 -189z" />
    <glyph glyph-name="K" unicode="K" horiz-adv-x="1576" 
d="M539 1161v-391h133l329 434q31 43 31 78q0 53 -71 68l-54 10v74q145 -8 320 -9l282 9v-74l-53 -10q-135 -27 -246 -170l-303 -385l365 -519q145 -207 284 -206l54 6v-64q-76 -49 -221 -49q-256 0 -406 240l-229 372q-63 104 -160 105q-27 0 -55 -8v-449q1 -77 23 -103
t91 -36l64 -10v-74q-182 8 -328 8l-313 -8v74l49 10q131 27 131 188v938q0 76 -23 103t-92 37l-63 10v74q182 -8 328 -9l313 9v-74l-49 -10q-131 -27 -131 -189z" />
    <glyph glyph-name="L" unicode="L" 
d="M256 272v938q0 76 -23 103t-92 37l-63 10v74q182 -8 328 -9l321 9v-74l-53 -10q-135 -27 -135 -189v-938q0 -83 48 -111t134 -28q137 0 232 95t149 249l63 -8l-47 -420q-508 8 -729 8l-313 -8v74l49 10q131 27 131 188z" />
    <glyph glyph-name="M" unicode="M" horiz-adv-x="2080" 
d="M1507 1423q254 0 396 11l6 -74l-49 -10q-72 -14 -99 -58t-18 -139l90 -936q5 -61 37 -93t98 -40l70 -10v-72q-195 6 -346 6l-353 -8v74l47 10q176 39 158 248l-57 669l-477 -1009l-82 -10l-502 1015l-33 -692q-10 -199 154 -221l71 -10v-74q-131 8 -296 8l-279 -8v74
l53 10q158 31 174 278l56 828q4 80 -29 116t-117 48l-43 6v74q254 -8 455 -9q0 -82 55 -196l408 -883l399 860q53 119 53 217z" />
    <glyph glyph-name="N" unicode="N" horiz-adv-x="1644" 
d="M1450 1147v-1155l-104 -12l-981 1058v-764q0 -102 41 -138t143 -52l59 -10v-74q-166 8 -284 8l-281 -8v74l45 10q76 16 107 58t30 128v940q0 70 -24 100q-25 30 -95 40l-61 10v74q201 -10 428 -11q16 -96 121 -209l723 -776v746q0 86 -39 118t-131 48l-70 10v74
q179 -9 320 -9l225 9v-74l-43 -10q-69 -16 -99 -60t-30 -143z" />
    <glyph glyph-name="O" unicode="O" horiz-adv-x="1646" 
d="M870 1462q305 0 511 -194t206 -512q0 -319 -208 -548q-99 -110 -256 -176t-347 -65q-305 0 -511 194t-206 519q0 152 55 292q117 304 409 425q157 65 347 65zM866 70q147 0 244 86q96 86 134 218t38 312q0 299 -143 486t-359 188q-147 0 -243 -86q-97 -86 -135 -218
t-37 -313q0 -299 143 -486t358 -187z" />
    <glyph glyph-name="P" unicode="P" horiz-adv-x="1280" 
d="M723 705q94 0 153 98q58 98 58 232q0 135 -87 225t-212 90q-59 -1 -96 -13v-600q33 -2 92 -17t92 -15zM831 604q-80 0 -176 30t-116 32v-443q1 -75 33 -101t118 -38l72 -10v-74q-227 8 -373 8l-313 -8v74l49 10q131 27 131 188v938q0 76 -23 103t-92 37l-63 10v74
q182 -8 328 -9l311 9q215 0 359 -116t145 -290q0 -204 -121 -314t-269 -110z" />
    <glyph glyph-name="Q" unicode="Q" horiz-adv-x="1646" 
d="M866 70q147 0 244 86q96 86 134 218t38 312q0 299 -143 486t-359 188q-147 0 -243 -86q-97 -86 -135 -218t-37 -313q0 -299 143 -486t358 -187zM870 1462q305 0 511 -194t206 -518q0 -268 -156 -479q-157 -210 -436 -275q203 -29 596 -167q137 -48 336 -86t395 -38
q356 0 672 131l19 -16q-67 -80 -133 -139q-271 -240 -687 -240q-311 0 -642 176q-138 74 -266 150q-314 186 -511 200q-305 2 -510 195t-205 518q0 152 55 292q117 304 409 425q157 65 347 65z" />
    <glyph glyph-name="R" unicode="R" horiz-adv-x="1431" 
d="M539 1337v-632q49 33 117 33t98 -13l12 -2q59 41 105 129q47 88 47 213t-88 205t-207 80q-47 -1 -84 -13zM539 223q1 -77 23 -103t91 -36l64 -10v-74q-182 8 -328 8l-313 -8v74l49 10q131 27 131 188v938q0 76 -23 103t-92 37l-63 10v74q182 -8 328 -9l303 9
q243 0 373 -112t130 -257q0 -96 -38 -173t-100 -120q-113 -81 -202 -100q78 -37 156 -164l154 -250q131 -209 321 -209v-59q-66 -23 -194 -23q-289 0 -424 271l-142 278q-60 119 -129 119q-33 0 -75 -14v-398z" />
    <glyph glyph-name="S" unicode="S" horiz-adv-x="1064" 
d="M560 1358q-112 0 -172 -55t-60 -137t68 -152t165 -127q95 -57 193 -122t167 -162t68 -218q0 -186 -121 -302t-366 -116q-90 0 -228 33t-200 33v377h67q37 -338 348 -338q119 0 188 60t69 154q-1 165 -228 301q-94 57 -188 119t-161 160t-67 226q0 168 128 269t335 101
q65 0 193 -22t196 -21l-20 -354h-68q-14 141 -104 217t-202 76z" />
    <glyph glyph-name="T" unicode="T" horiz-adv-x="1368" 
d="M825 1327v-1104q0 -77 23 -103t92 -36l64 -10v-74q-182 8 -328 8l-314 -8v74l50 10q131 27 131 188v1055h-148q-215 0 -282 -190l-60 10l25 319h47q18 -33 84 -32h981q59 0 78 32h47l-23 -329l-59 10q0 180 -246 180h-162z" />
    <glyph glyph-name="U" unicode="U" horiz-adv-x="1597" 
d="M256 479v731q0 76 -23 103t-92 37l-63 10v74q182 -8 328 -9l313 9v-74l-49 -10q-131 -27 -131 -189v-688q0 -186 86 -275t266 -89q354 0 354 364v737q0 74 -27 101q-28 27 -102 39l-65 10v74q96 -8 260 -9l250 9v-74l-50 -10q-129 -27 -129 -189v-682q0 -233 -134 -373
t-412 -139q-278 0 -428 128q-152 128 -152 384z" />
    <glyph glyph-name="V" unicode="V" horiz-adv-x="1531" 
d="M545 1237q0 -31 14 -78l307 -850l301 844q23 68 23 100q0 82 -109 99l-57 8v74q129 -6 266 -7l217 7v-74l-37 -8q-111 -25 -180 -211l-442 -1159l-127 -15l-485 1233q-27 66 -63 102t-99 48l-49 10v74q125 -8 286 -9l342 9v-74l-30 -10q-78 -27 -78 -113z" />
    <glyph glyph-name="W" unicode="W" horiz-adv-x="2232" 
d="M539 1247q0 -31 18 -90l256 -805l252 832q8 29 8 59q0 88 -127 107l-65 10v74q256 -8 428 -9q2 -109 41 -233l268 -840l264 801q20 66 21 96q0 82 -121 103l-53 8v74q133 -9 270 -9l209 9v-74l-27 -8q-111 -37 -160 -176l-413 -1194l-129 -15l-351 1041l-317 -1026
l-141 -15l-434 1233q-20 61 -56 99t-106 51l-49 10v74q135 -8 311 -9l317 9v-74l-32 -10q-82 -25 -82 -103z" />
    <glyph glyph-name="X" unicode="X" horiz-adv-x="1460" 
d="M987 158q0 31 -26 65l-261 369l-260 -377q-27 -35 -26 -68q0 -51 71 -63l58 -10v-74q-141 8 -318 8l-243 -8v74l63 10q172 27 264 158l318 452l-355 480q-37 50 -56 74t-62 58t-88 44l-48 10v74q145 -10 304 -11l313 11v-74l-53 -10q-61 -14 -62 -72q0 -35 33 -82
l217 -311l221 334q25 37 25 65q0 49 -84 66l-53 10v74q184 -8 290 -9l269 9v-74l-49 -10q-89 -18 -145 -47t-105 -99l-293 -422l387 -532q55 -78 99 -114t118 -52l49 -10v-74q-156 10 -303 10l-332 -10v74l43 10q80 18 80 74z" />
    <glyph glyph-name="Y" unicode="Y" horiz-adv-x="1482" 
d="M889 223q1 -73 27 -101t98 -38l63 -10v-74q-193 8 -338 8l-323 -8v74l49 10q141 29 141 188v340l-317 568q-78 141 -217 170l-47 10v74q135 -10 299 -11l313 11v-74l-33 -10q-55 -18 -55 -70q0 -31 22 -72l260 -477l263 475q23 41 22 70q0 55 -76 74l-41 10v74
q139 -8 267 -9l192 9v-74l-41 -10q-72 -18 -123 -60t-102 -133l-303 -530v-404z" />
    <glyph glyph-name="Z" unicode="Z" horiz-adv-x="1353" 
d="M172 1466h47q8 -33 84 -32h940l27 -50l-860 -1292l331 27q217 16 328 103t195 267l59 -14l-102 -475h-1133l-20 37l860 1300l-363 -26q-166 -12 -251 -80t-140 -205l-59 10z" />
    <glyph glyph-name="bracketleft" unicode="[" horiz-adv-x="788" 
d="M475 -168q76 0 136 -32t61 -95q0 -25 -16 -45t-35 -25q-129 104 -488 105v1757q356 0 488 107q18 -4 34 -24t17 -46q0 -63 -60 -95t-143 -32l-131 12v-1599q61 12 137 12z" />
    <glyph glyph-name="backslash" unicode="\" horiz-adv-x="841" 
d="M215 1602q212 -758 359 -1207t196 -594l51 -145h-196q-276 1000 -562 1819l-45 127h197z" />
    <glyph glyph-name="bracketright" unicode="]" horiz-adv-x="788" 
d="M314 1407q-76 0 -137 32q-60 32 -60 95q0 25 16 45t35 25q131 -106 487 -107v-1757q-358 0 -487 -105q-18 5 -34 25t-17 45q0 63 60 95t142 32l132 -12v1599q-61 -12 -137 -12z" />
    <glyph glyph-name="asciicircum" unicode="^" horiz-adv-x="1138" 
d="M647 1634l395 -805h-178l-295 611l-293 -611h-180l396 805h155z" />
    <glyph glyph-name="underscore" unicode="_" horiz-adv-x="903" 
d="M31 -264h841v-164h-841v164z" />
    <glyph glyph-name="grave" unicode="`" horiz-adv-x="819" 
d="M375 1503l209 -426l-27 -26q-106 47 -214 150t-107 210q0 41 28 70q29 29 63 29t48 -7z" />
    <glyph glyph-name="a" unicode="a" horiz-adv-x="1044" 
d="M307 213q0 -119 133 -119q33 0 92 20t72 23q-16 49 -16 125l8 144q-121 0 -205 -48t-84 -145zM604 671q0 175 -146 175q-74 0 -102 -34t-28 -73t16 -65q-37 -37 -102 -37t-98 29q-32 29 -31 75q0 96 121 155q122 58 282 58t248 -78t88 -235l-18 -393q0 -68 30 -108
t76 -40q45 0 82 15l27 -45q-24 -35 -92 -69t-134 -34q-137 0 -196 107q-27 -8 -75 -36q-122 -71 -235 -71q-113 -1 -183 55t-68 156q0 152 137 230t395 77q6 100 6 186z" />
    <glyph glyph-name="b" unicode="b" horiz-adv-x="1181" 
d="M174 289v971q0 59 -32 85t-101 25l-16 64q88 8 186 34t154 48l55 20v-702q27 6 72 38q120 84 239 82q168 0 284 -136t115 -329q0 -241 -158 -381t-390 -141q-188 0 -303 58l-105 -84l-45 24q45 125 45 324zM594 803q-37 0 -96 -26t-78 -27v-502q0 -182 182 -182
q112 0 186 114t74 268q0 156 -68 256t-200 99z" />
    <glyph glyph-name="c" unicode="c" horiz-adv-x="974" 
d="M721 719q0 63 -44 101t-112 38q-111 0 -177 -108t-66 -284q0 -175 87 -262t234 -87q102 0 219 43l27 -51q-88 -72 -172 -107t-219 -35q-197 0 -322 124q-125 125 -125 353t159 369t392 141q136 0 232 -49t96 -141q0 -55 -38 -87q-38 -31 -93 -31t-84 20q6 29 6 53z" />
    <glyph glyph-name="d" unicode="d" 
d="M764 672q0 186 -203 186q-101 0 -171 -108t-68 -270q0 -163 66 -262t200 -99q39 -1 98 25t78 28v500zM1010 242q0 -57 32 -84t101 -27l16 -61q-171 -16 -334 -82l-53 -21l-8 121q-27 -6 -73 -38q-119 -83 -240 -83q-168 0 -284 136t-116 343t150 358t401 150
q90 0 162 -14v320q0 59 -32 85t-101 25l-17 64q88 8 186 34t154 48l56 20v-1294z" />
    <glyph glyph-name="e" unicode="e" horiz-adv-x="972" 
d="M295 479q0 -152 87 -255t265 -103q113 0 232 37l28 -54q-84 -72 -176 -104t-227 -33q-199 0 -326 127t-127 346q0 218 155 366t376 148q174 0 262 -96t88 -258l-47 -57l-586 8q-4 -35 -4 -72zM694 686q0 176 -147 176q-88 0 -153 -64t-85 -167l383 22q2 10 2 33z" />
    <glyph glyph-name="f" unicode="f" horiz-adv-x="776" 
d="M449 797v-613q1 -55 23 -79t71 -27l102 -10v-68q-193 6 -323 6l-277 -6v68l37 6q123 23 123 127v608h-148l-10 61q113 37 158 74v70q0 242 139 382t338 140q112 0 186 -41t74 -105t-50 -94q-50 -29 -101 -22q-15 59 -59 108t-103 50q-180 0 -180 -357v-153h313v-125h-313
z" />
    <glyph glyph-name="g" unicode="g" horiz-adv-x="1083" 
d="M544 102q460 0 460 -285q0 -139 -146 -239t-418 -100q-180 0 -303 63t-123 195q0 68 44 108t106 39q62 0 102 -43q-35 -42 -35 -112t73 -113t207 -43t222 50t88 124q0 156 -307 156q-416 0 -416 182q0 150 211 201q-109 27 -185 113t-75 194q0 156 117 259t323 103
q143 0 230 -57q78 -16 166 -16t184 45q18 -31 18 -69q1 -37 -33 -65t-74 -28t-87 15t-64 18q49 -72 50 -168q0 -153 -115 -247t-287 -111t-172 -93q1 -76 239 -76zM449 868q-166 0 -166 -245q0 -99 56 -185t142 -86q164 0 164 248q0 100 -55 184t-141 84z" />
    <glyph glyph-name="h" unicode="h" horiz-adv-x="1253" 
d="M1079 682v-498q1 -55 17 -78t53 -28l63 -10v-68q-129 6 -260 6l-245 -6v68l26 6q100 18 101 127v444q0 154 -152 154q-43 0 -117 -37t-96 -39v-539q0 -55 16 -78t54 -28l63 -10v-68q-129 6 -260 6l-268 -6v68l43 6q49 8 79 41t29 86v1059q0 59 -31 85q-32 26 -102 25
l-18 64q88 8 187 34t153 48l55 20v-733q31 6 83 44q149 109 268 108q120 -1 190 -74q69 -74 69 -199z" />
    <glyph glyph-name="i" unicode="i" horiz-adv-x="675" 
d="M471 184q0 -55 15 -78t55 -28l61 -10v-68q-127 6 -260 6l-266 -6v68l41 6q109 16 108 127v475q0 59 -31 86q-32 27 -102 26l-16 62q156 14 340 80l55 22v-768zM180 1340q0 60 43 102t105 41q62 0 106 -41q43 -42 43 -102t-43 -102t-105 -42t-106 42q-43 42 -43 102z" />
    <glyph glyph-name="j" unicode="j" horiz-adv-x="634" 
d="M207 39v637q0 113 -133 112l-19 62q163 15 342 80l54 22v-811q1 -283 -127 -413q-64 -64 -183 -111t-159 -78l-41 55q25 23 93 71t101 93q72 95 72 281zM162 1340q0 60 44 102t106 41q62 0 106 -41q44 -42 43 -102q0 -60 -43 -102q-44 -42 -106 -42t-106 42t-44 102z" />
    <glyph glyph-name="k" unicode="k" horiz-adv-x="1230" 
d="M469 551h80l123 174q23 33 22 57q0 55 -69 66l-43 6v68q104 -6 282 -7l281 7v-66l-72 -8q-195 -20 -289 -141l-75 -99l215 -319q88 -133 158 -177t171 -44v-50q-87 -32 -205 -32t-200 53t-148 164l-139 227q-33 51 -92 51v-297q0 -55 16 -78t54 -28l63 -10v-68
q-129 6 -260 6l-268 -6v68l43 6q49 8 79 41t29 86v1059q0 59 -31 85q-32 26 -102 25l-18 64q88 8 187 34t153 48l55 20v-985z" />
    <glyph glyph-name="l" unicode="l" horiz-adv-x="643" 
d="M469 184q0 -55 16 -78t54 -28l63 -10v-68q-129 6 -260 6l-268 -6v68l43 6q49 8 79 41t29 86v1059q0 59 -31 85q-32 26 -102 25l-18 64q88 8 187 34t153 48l55 20v-1352z" />
    <glyph glyph-name="m" unicode="m" horiz-adv-x="1765" 
d="M1020 682v-498q0 -50 14 -74t49 -32l47 -10v-68q-106 6 -237 6l-234 -6v68l25 6q90 23 90 127v444q0 154 -135 154q-45 0 -107 -35t-83 -41v-539q0 -50 14 -74t49 -32l47 -10v-68q-106 6 -237 6l-269 -6v68l43 6q49 8 79 41t30 86v475q0 113 -133 112l-19 62
q169 15 340 80l56 22v-149q23 8 73 49q125 104 232 102q178 0 241 -145q31 10 85 48q140 99 256 98t186 -75t69 -198v-498q1 -55 17 -78t53 -28l63 -10v-68q-129 6 -262 6l-231 -6v68l24 6q90 23 91 127v444q0 74 -41 114t-95 40t-113 -30q-60 -30 -81 -34q4 -18 4 -53z" />
    <glyph glyph-name="n" unicode="n" horiz-adv-x="1232" 
d="M1059 682v-498q0 -55 16 -78t53 -28l64 -10v-68q-129 6 -260 6l-246 -6v68l27 6q100 18 100 127v444q0 154 -151 154q-43 0 -117 -37t-96 -39v-539q0 -55 16 -78t53 -28l64 -10v-68q-129 6 -260 6l-269 -6v68l43 6q49 8 79 41t30 86v475q0 113 -133 112l-19 62
q169 15 340 80l56 22v-149q31 10 85 49q143 104 265 103q121 -1 191 -75t69 -198z" />
    <glyph glyph-name="o" unicode="o" horiz-adv-x="1138" 
d="M1087 481q0 -213 -148 -363q-147 -150 -381 -151q-234 0 -371 130q-136 130 -136 343t150 364t401 150q215 0 350 -130t135 -343zM322 478q0 -156 76 -284t191 -128q114 0 172 110t58 268q1 156 -77 284t-191 128t-171 -111t-58 -267z" />
    <glyph glyph-name="p" unicode="p" horiz-adv-x="1191" 
d="M1141 475q-1 -207 -149 -357t-400 -151q-90 0 -164 15v-320q0 -80 102 -96l62 -10v-68h-559v68l43 6q49 8 79 42t29 85v987q0 112 -133 112l-18 62q164 15 340 80l55 22v-118q29 6 74 38q120 84 239 82q168 0 284 -136t116 -343zM616 803q-42 0 -106 -26t-82 -27v-502
q0 -182 205 -184q101 0 171 107t68 269q0 162 -66 262t-190 101z" />
    <glyph glyph-name="q" unicode="q" horiz-adv-x="1214" 
d="M764 672q0 186 -203 186q-101 0 -171 -108t-68 -270q0 -163 66 -262t200 -99q39 -1 98 25t78 28v500zM1010 553v-891q0 -80 86 -96l63 -10v-68h-545v68l41 6q51 8 80 42t29 85v399q-27 -6 -73 -38q-119 -83 -240 -83q-168 0 -284 136t-116 343t150 358t401 150
q168 0 301 -53l111 80l51 -14q-55 -146 -55 -414z" />
    <glyph glyph-name="r" unicode="r" horiz-adv-x="901" 
d="M885 804q0 -66 -39 -98q-38 -34 -96 -34t-93 24q6 16 7 39q0 57 -56 58q-33 0 -87 -32t-70 -36v-541q-1 -55 21 -79t71 -27l102 -10v-68q-139 6 -323 6l-275 -6v68l37 6q53 10 87 43t34 84v475q0 59 -32 86t-101 26l-17 62q160 15 340 80l56 22v-151q18 6 66 45
q135 110 212 109q78 -1 117 -43t39 -108z" />
    <glyph glyph-name="s" unicode="s" horiz-adv-x="831" 
d="M459 954q81 0 155 -18t123 -18l-14 -267h-70q-4 91 -56 149t-132 58t-116 -34t-36 -86q0 -92 162 -161q69 -30 137 -67q68 -36 115 -102t47 -156q0 -141 -112 -213t-279 -72q-61 0 -157 22t-134 21l-10 285h72q8 -115 71 -173t153 -58t138 36q47 37 47 95q0 59 -47 105
t-114 77q-68 31 -134 65t-112 94q-46 62 -47 150q0 120 95 194t255 74z" />
    <glyph glyph-name="t" unicode="t" horiz-adv-x="776" 
d="M553 111q94 0 164 20l22 8l17 -59q-143 -113 -332 -113q-116 0 -184 67t-68 187v588h-133l-8 61q90 35 178 112t145 157l64 -19v-198h291v-125h-291v-557q0 -129 135 -129z" />
    <glyph glyph-name="u" unicode="u" horiz-adv-x="1198" 
d="M1024 242q0 -111 133 -111l17 -61q-88 -8 -184 -34t-146 -48l-53 -21l-11 150q-29 -6 -82 -45q-143 -105 -264 -105q-120 0 -190 74t-70 199v485q0 59 -30 87t-101 28v67l358 33l19 -18v-646q0 -154 162 -153q48 0 116 37t82 39v512q0 63 -27 96q-28 33 -106 33v67
l361 33l16 -18v-680z" />
    <glyph glyph-name="v" unicode="v" horiz-adv-x="1056" 
d="M401 786q0 -4 11 -41l155 -471l181 433q25 63 24 86q0 37 -59 51l-43 10v68q102 -6 190 -7l184 7v-68l-43 -10q-53 -12 -86 -47t-61 -105l-309 -725h-90l-295 762q-23 57 -45 82q-23 25 -60 33l-43 10v68q127 -9 258 -9l242 9v-68l-41 -10q-70 -16 -70 -58z" />
    <glyph glyph-name="w" unicode="w" horiz-adv-x="1619" 
d="M401 786q0 -4 11 -41l155 -471l181 433q25 63 24 86q0 37 -59 51l-43 10v68q96 -6 258 -7l202 -632l183 442q16 43 16 68q0 37 -59 51l-43 10v68q102 -6 192 -7l185 7v-68l-45 -10q-96 -20 -152 -152l-299 -725h-86l-221 598l-256 -598h-90l-295 762q-23 57 -45 82
q-23 25 -60 33l-43 10v68q127 -8 258 -9l242 9v-68l-41 -10q-70 -16 -70 -58z" />
    <glyph glyph-name="x" unicode="x" horiz-adv-x="1099" 
d="M748 806q0 28 -31 38l-35 10v68q98 -6 195 -7l202 7v-66l-53 -12q-106 -23 -201 -127l-170 -189l256 -360q49 -74 170 -94l35 -6v-68q-109 6 -276 6l-269 -6v68l31 6q61 12 62 53q0 31 -21 63l-125 183l-166 -191q-31 -37 -30 -65q0 -37 43 -43l34 -6v-68q-113 6 -219 6
l-184 -6v68l37 6q109 18 211 135l213 242l-211 297q-53 78 -148 96l-51 10v68q100 -6 266 -7l252 7v-68l-33 -10q-63 -18 -12 -109l82 -121l109 123q37 41 37 69z" />
    <glyph glyph-name="y" unicode="y" horiz-adv-x="1077" 
d="M-76 -320q0 54 32 88t91 33q25 0 47 -6q-4 -17 -4 -37t26 -40t66 -19q143 0 224 184l49 115l-285 731q-23 57 -45 82q-23 25 -59 33l-43 10v68q127 -8 258 -9l241 9v-68l-41 -10q-70 -16 -69 -58q0 -4 10 -41l160 -473l176 435q25 63 24 86q0 37 -59 51l-43 10v68
q102 -6 190 -7l185 7v-68l-43 -10q-53 -12 -86 -47t-62 -105l-354 -835q-129 -311 -391 -312q-94 0 -145 40q-50 41 -50 95z" />
    <glyph glyph-name="z" unicode="z" horiz-adv-x="952" 
d="M41 35l569 799l-231 -9q-93 -4 -155 -45t-95 -141l-57 4l51 303h55q12 -31 80 -31l625 7l14 -37q-90 -112 -467 -627l-121 -166l234 10q244 10 299 187l14 41l55 -11l-53 -319h-801z" />
    <glyph glyph-name="braceleft" unicode="{" horiz-adv-x="763" 
d="M70 578v84h53q76 0 116 49t40 123t-30 230t-30 230q0 156 95 234t221 78q77 0 113 -27t36 -59q0 -61 -66 -70q-14 49 -75 49q-113 0 -113 -160q0 -67 14 -203t14 -240t-58 -180q-58 -75 -144 -98q88 -22 145 -96t57 -178t-14 -242q-14 -137 -14 -202q0 -160 113 -160
q61 0 75 49q66 -8 66 -70q0 -33 -36 -59t-113 -27q-125 0 -221 78q-95 78 -95 234q0 75 30 231t30 230t-40 122q-40 49 -116 50h-53z" />
    <glyph glyph-name="bar" unicode="|" horiz-adv-x="452" 
d="M145 545l-12 1057h184q-12 -854 -12 -1057l12 -1057h-184q12 860 12 1057z" />
    <glyph glyph-name="braceright" unicode="}" horiz-adv-x="763" 
d="M694 662v-84h-53q-76 0 -116 -50t-40 -123q0 -75 30 -231t30 -229q0 -156 -95 -234t-221 -78q-77 0 -113 27t-36 59q0 61 65 70q14 -49 76 -49q113 0 113 160q0 66 -14 202t-15 242q0 104 57 178t146 96q-86 23 -144 98q-58 76 -58 180t13 241q14 137 15 202
q0 160 -113 160q-61 0 -76 -49q-66 8 -65 70q0 34 36 60t113 26q125 0 221 -78t95 -234q0 -74 -30 -230t-30 -230t40 -123t116 -49h53z" />
    <glyph glyph-name="asciitilde" unicode="~" horiz-adv-x="1136" 
d="M362 688q102 0 230 -68q127 -68 201 -67q133 0 194 129l64 -45q-13 -115 -95 -187t-187 -73t-228 67t-197 68q-137 0 -197 -129l-63 45q14 108 95 184t183 76z" />
    <glyph glyph-name="nbspace" unicode="&#xa0;" horiz-adv-x="567" 
 />
    <glyph glyph-name="exclamdown" unicode="&#xa1;" horiz-adv-x="565" 
d="M324 516q0 -156 57 -418t57 -397q0 -76 -45 -122t-111 -46t-110 46q-45 46 -45 122q0 135 57 397t58 418l-4 94h90q-4 -35 -4 -94zM135 881q0 61 42 104q43 43 105 43t105 -43t43 -104t-43 -105t-105 -43q-62 0 -105 43q-42 44 -42 105z" />
    <glyph glyph-name="cent" unicode="&#xa2;" horiz-adv-x="974" 
d="M721 719q0 63 -44 101t-112 38q-111 0 -177 -108t-66 -284q0 -175 87 -262t234 -87q102 0 219 43l27 -51q-137 -113 -281 -134l6 -311h-127q2 143 5 303q-195 2 -318 125t-123 336t124 348t319 168l-7 340h127q-2 -152 -4 -330q132 -2 226 -50t94 -140q0 -55 -38 -87
q-38 -31 -93 -31t-84 20q6 29 6 53z" />
    <glyph glyph-name="sterling" unicode="&#xa3;" horiz-adv-x="1511" 
d="M319 526v58q137 19 209 41l31 8l29 221q33 250 180 375t358 125q131 0 214 -49t83 -127q0 -54 -39 -94q-38 -40 -102 -40t-119 33q20 47 21 86q0 86 -88 86q-186 0 -248 -331l-49 -267h368v-125h-391q-39 -166 -121 -288t-174 -185q133 -43 348 -169t277 -126q74 0 74 77
t-84 145q34 63 106 63t104 -42t31 -93q0 -109 -99 -197t-249 -88q-149 0 -281 83t-333 282q-75 -37 -149 -37q-74 1 -107 25t-33 59t38 61t110 25q72 0 169 -33q104 88 144 438h-228z" />
    <glyph glyph-name="yen" unicode="&#xa5;" horiz-adv-x="1433" 
d="M594 506h-324v123q33 0 132 -3q100 -3 157 -3l-258 448q-76 133 -190 156l-52 10v78q125 -10 275 -10l295 10v-78l-33 -10q-55 -18 -55 -64q0 -25 20 -65l238 -428l237 420q20 37 21 69q0 57 -66 68l-55 10v78q145 -8 262 -8l176 8v-78l-37 -10q-73 -19 -115 -55
t-92 -121l-251 -430l284 8v-123q-152 0 -311 2v-109l311 9v-123q-152 0 -311 2v-74q0 -67 24 -91t91 -36l61 -10v-76q-180 8 -311 8l-303 -8v76l49 10q131 25 131 172v27h-324v123l324 -7v105z" />
    <glyph glyph-name="brokenbar" unicode="&#xa6;" horiz-adv-x="450" 
d="M317 -512h-184q8 555 12 877h162zM133 1602h184q-8 -555 -12 -877h-162z" />
    <glyph glyph-name="section" unicode="&#xa7;" horiz-adv-x="1179" 
d="M383 -164q0 -30 28 -56q27 -26 99 -26t129 50t57 131q0 142 -210 352q-87 88 -174 182t-148 211t-62 235q0 244 184 396t449 151q131 0 200 -52t69 -116t-37 -96q-37 -31 -89 -31t-100 29q16 24 16 54t-27 56t-99 26t-129 -50q-57 -49 -57 -128t60 -163q62 -84 149 -167
t174 -177t149 -219t61 -258q0 -244 -183 -396t-450 -151q-132 0 -200 51q-68 50 -68 116t37 97t89 31t99 -29q-16 -23 -16 -53zM270 981q0 -88 42 -179t106 -164t138 -155q75 -81 138 -153q148 -168 148 -332q0 -88 -47 -156q113 102 112 262q0 94 -42 188t-105 165
q-63 73 -138 153t-139 149q-63 69 -105 155t-42 174q0 87 47 155q-113 -100 -113 -262z" />
    <glyph glyph-name="dieresis" unicode="&#xa8;" horiz-adv-x="741" 
d="M440 1248q0 56 37 93t93 37t94 -37t36 -93q0 -56 -36 -93t-94 -37q-56 0 -93 37t-37 93zM39 1248q0 56 37 93t93 37t93 -37t37 -93t-37 -93t-93 -37t-93 37t-37 93z" />
    <glyph glyph-name="copyright" unicode="&#xa9;" horiz-adv-x="1638" 
d="M201 715q0 -257 183 -441t441 -184t442 183q183 183 183 441t-183 442q-183 183 -441 183t-442 -183q-183 -183 -183 -441zM78 715q0 309 218 527t527 218t527 -218t219 -527q0 -309 -218 -527q-217 -218 -527 -219q-310 1 -528 219t-218 527zM1133 1098v-221h-56
q-11 82 -75 137t-177 55t-193 -97t-81 -259q0 -162 84 -253t225 -91q92 1 157 65t83 162l55 -2l-31 -270q-45 0 -139 -22t-160 -21q-193 0 -317 103q-124 104 -125 300q0 196 122 330t333 135q64 1 152 -25t143 -26z" />
    <glyph glyph-name="ordfeminine" unicode="&#xaa;" horiz-adv-x="874" 
d="M283 1212q0 -31 18 -49q-29 -20 -70 -20t-67 18t-27 53q0 56 78 104q77 48 189 48q229 0 231 -195l-10 -270q0 -78 61 -78l64 13l14 -41q-58 -68 -154 -68t-133 84q-10 -2 -81 -42t-126 -40q-164 0 -164 133q0 72 56 119q101 84 307 84q2 66 2 90q0 125 -102 125
q-86 0 -86 -68zM348 823q25 -1 63 17t56 22q-6 37 -6 66l2 73q-84 1 -136 -29t-53 -83q0 -66 74 -66zM94 606q186 -8 342 -8l342 8v-137q-174 6 -342 6l-342 -6v137z" />
    <glyph glyph-name="guillemotleft" unicode="&#xab;" horiz-adv-x="1032" 
d="M905 166q-1 -45 -29 -70t-65 -24l-313 415l323 406l82 -109l-276 -286q102 -62 190 -154t88 -178zM567 133q1 -47 -29 -78t-67 -30l-344 462l340 457l98 -123l-301 -329q111 -68 207 -167t96 -192z" />
    <glyph glyph-name="logicalnot" unicode="&#xac;" horiz-adv-x="935" 
d="M936 735v-612h-184v432h-752v180h936z" />
    <glyph glyph-name="registered" unicode="&#xae;" horiz-adv-x="798" 
d="M385 1434q-14 0 -23 -2v-144q10 8 29 8l27 -6q24 28 24 86t-57 58zM522 1375q0 -39 -19 -63t-40 -30l-21 -4q20 -12 35 -43l43 -88q16 -33 51 -33l21 2v-22q-27 -12 -51 -13q-68 0 -97 72l-36 92q-13 32 -46 17v-115q0 -29 29 -33l15 -2v-20q-47 2 -82 2l-78 -2v20l14 2
q33 6 33 57v224q0 23 -7 29t-40 14v28q39 -4 73 -4l78 4q55 0 90 -26t35 -65zM55 1274q-1 144 99 244t243 100t245 -100t101 -242q0 -142 -101 -244q-102 -102 -246 -102t-242 100t-99 244zM125 1274q0 -119 78 -201q77 -82 195 -82t196 82t78 201t-78 202t-196 83t-196 -83
t-77 -202z" />
    <glyph glyph-name="macron" unicode="&#xaf;" horiz-adv-x="684" 
d="M51 1339q158 -6 291 -6l291 6v-161q-141 6 -291 6l-291 -6v161z" />
    <glyph glyph-name="degree" unicode="&#xb0;" horiz-adv-x="645" 
d="M582 1203q0 -109 -75 -183t-183 -74t-184 74q-74 74 -74 183q0 110 74 185q75 74 184 74q110 0 184 -74t74 -185zM178 1204q0 -64 42 -108q42 -43 104 -43t102 42q39 41 39 107t-39 110q-40 44 -104 44t-104 -44t-40 -108z" />
    <glyph glyph-name="plusminus" unicode="&#xb1;" horiz-adv-x="933" 
d="M0 0v184h934v-184h-934zM373 934h184v-258h377v-184h-377v-261h-184v261h-373v184h373v258z" />
    <glyph glyph-name="twosuperior" unicode="&#xb2;" horiz-adv-x="743" 
d="M463 1288q0 64 -30 108t-84 44t-84 -26q-45 -39 -23 -111q-23 -15 -65 -15q-41 0 -67 23t-26 59q0 62 72 114t210 52t216 -69q80 -69 80 -167q0 -157 -216 -348q-43 -39 -124 -108l-74 -62l268 13q104 6 141 106l52 -10l-52 -232h-596l-16 39l184 199q76 82 116 129
t79 123t39 139z" />
    <glyph glyph-name="threesuperior" unicode="&#xb3;" horiz-adv-x="686" 
d="M313 1442q-45 0 -69 -28t-25 -62q0 -34 8 -56q-31 -10 -71 -10t-65 23q-26 23 -25 59q0 63 71 116q72 52 197 52q126 0 194 -51t68 -125q0 -152 -221 -199l2 -12q131 -23 195 -89t65 -149q1 -127 -105 -199t-262 -73q-94 0 -153 32t-59 77q0 46 25 68q26 22 64 22t64 -11
q-4 -19 -4 -41t21 -43q22 -20 74 -20t94 40q40 40 40 111q0 102 -74 156t-190 55l-16 58q238 63 237 205q0 94 -80 94z" />
    <glyph glyph-name="acute" unicode="&#xb4;" horiz-adv-x="819" 
d="M492 1509q34 -1 63 -29t29 -69q0 -105 -108 -209t-214 -151l-26 26l208 426q14 6 48 6z" />
    <glyph glyph-name="mu" unicode="&#xb5;" horiz-adv-x="1198" 
d="M1024 242q0 -111 133 -111l17 -61q-88 -8 -184 -34t-146 -48l-53 -21l-11 150q-29 -6 -82 -45q-143 -105 -242 -105q-100 0 -155 41q-2 -45 -2 -147q0 -217 76 -271q-20 -70 -107 -69q-57 0 -93 45t-36 121t18 255q17 179 17 298v485q0 59 -30 87t-101 28v67l358 33
l19 -18v-646q0 -154 162 -153q48 0 116 37t82 39v512q0 63 -27 96q-28 33 -106 33v67l361 33l16 -18v-680z" />
    <glyph glyph-name="paragraph" unicode="&#xb6;" horiz-adv-x="1267" 
d="M1012 1161v-815q0 -360 -174 -542t-441 -183q-121 0 -214 56t-93 161q0 57 35 94t96 37t94 -30q-33 -61 -32 -121q0 -113 114 -113q221 0 221 475v404q-29 -2 -77 -2q-481 0 -482 424q0 428 504 428l328 -7l301 7v-74l-49 -10q-131 -27 -131 -189zM840 270v1080h-101
v-1129q1 -181 -27 -287t-100 -178q113 43 170 177q58 134 58 337z" />
    <glyph glyph-name="periodcentered" unicode="&#xb7;" horiz-adv-x="423" 
d="M66 596q0 61 42 104t104 43t105 -43t43 -104t-43 -104t-105 -43t-104 43t-42 104z" />
    <glyph glyph-name="cedilla" unicode="&#xb8;" horiz-adv-x="649" 
d="M543 -333q0 -61 -74 -109t-166 -47t-144 31q-53 30 -53 74t25 68t59 24t52 -13q-37 -54 4 -91q20 -20 61 -20t66 16t25 40q-1 41 -75 90q-28 18 -52 52t-23 79q0 45 30 83t58 52l29 16h67q-61 -37 -61 -88t86 -101t86 -156z" />
    <glyph glyph-name="onesuperior" unicode="&#xb9;" horiz-adv-x="614" 
d="M463 795q0 -51 51 -62l72 -14v-62q-125 6 -221 7l-242 -5v62l55 12q96 23 96 113v547q-63 -49 -139 -50q-33 -1 -53 15t-20 41t14 39q74 6 180 38t166 62l41 -4v-739z" />
    <glyph glyph-name="ordmasculine" unicode="&#xba;" horiz-adv-x="821" 
d="M68 604q186 -8 342 -8l342 8v-137q-174 6 -342 6l-342 -6v137zM78 1029q0 135 99 235t243 100t233 -89q88 -89 88 -216t-92 -229t-260 -103q-127 0 -219 83t-92 219zM395 1274q-137 0 -137 -217q0 -117 48 -179t122 -63q133 0 133 221q0 100 -42 169t-124 69z" />
    <glyph glyph-name="guillemotright" unicode="&#xbb;" horiz-adv-x="1032" 
d="M127 803q0 45 29 69t65 25l314 -416l-324 -405l-82 108l277 287q-102 63 -190 155t-89 177zM465 836q0 48 30 78t66 30l344 -463l-340 -456l-98 122l301 330q-111 68 -207 167t-96 192z" />
    <glyph glyph-name="onequarter" unicode="&#xbc;" horiz-adv-x="1658" 
d="M1618 223h-166v-86q0 -53 45 -61l53 -10v-66h-379v61l50 15q45 10 45 57v90h-348l-21 41l203 291q70 96 69 197q0 57 -26 100q39 25 87 25t80 -36q62 -70 2 -187q-30 -56 -59 -92t-88 -101l-121 -133h222v131l186 94v-225h166v-105zM381 -145q120 240 827 1773l152 -67
q-154 -309 -836 -1774zM137 1270q-74 0 -76 57q0 23 15 37q74 6 180 38t166 62l41 -4v-739q0 -51 51 -62l72 -14v-61q-125 6 -221 6l-242 -4v61l55 12q96 23 96 113v547q-63 -49 -137 -49z" />
    <glyph glyph-name="onehalf" unicode="&#xbd;" horiz-adv-x="1775" 
d="M1495 628q0 64 -30 108t-84 44t-91 -32t-16 -105q-20 -14 -64 -14q-44 1 -68 23q-26 22 -26 59q0 63 72 114t210 51t217 -68q79 -69 79 -167q0 -158 -215 -348q-43 -39 -125 -109l-74 -61l268 12q104 6 142 107l51 -11l-51 -231h-596l-17 39l185 199q76 82 115 129
q40 47 79 123q39 74 39 138zM381 -145q120 240 827 1773l152 -67q-154 -309 -836 -1774zM137 1270q-74 0 -76 57q0 23 15 37q74 6 180 38t166 62l41 -4v-739q0 -51 51 -62l72 -14v-61q-125 6 -221 6l-242 -4v61l55 12q96 23 96 113v547q-63 -49 -137 -49z" />
    <glyph glyph-name="threequarters" unicode="&#xbe;" horiz-adv-x="1642" 
d="M1602 223h-166v-86q0 -53 45 -61l53 -10v-66h-379v61l49 15q45 10 45 57v90h-348l-20 41l202 291q70 96 70 197q0 57 -27 100q39 25 87 25t80 -36t32 -83q0 -48 -30 -104q-31 -56 -59 -92t-87 -101l-121 -133h221v131l187 94v-225h166v-105zM365 -145q120 240 827 1773
l151 -67q-154 -309 -835 -1774zM313 1368q-45 0 -69 -28t-25 -62q0 -34 8 -55q-90 -29 -136 12q-26 23 -25 59q0 63 71 116q72 52 197 52q126 0 194 -51t68 -125q0 -152 -221 -199l2 -12q131 -23 195 -89t65 -148q1 -127 -105 -200t-262 -73q-94 0 -153 32t-59 77
q0 46 25 68q26 22 64 22t64 -10q-4 -20 -4 -42q-1 -22 21 -42t74 -20t94 39q40 40 40 127t-74 141t-190 55l-16 57q238 63 237 205q0 94 -80 94z" />
    <glyph glyph-name="questiondown" unicode="&#xbf;" horiz-adv-x="905" 
d="M643 881q0 -61 -42 -105t-104 -43q-62 0 -106 43q-43 42 -43 104t43 105t105 43t105 -43q42 -43 42 -104zM813 -281q1 -84 -71 -135t-222 -51t-286 101t-136 245q0 88 40 165t96 132q56 56 112 108q136 127 137 234q0 55 -18 92h59q94 -110 94 -248t-121 -259
q-51 -50 -101 -98q-122 -116 -122 -218q0 -51 60 -92t143 -41q137 0 137 102l-10 64q35 12 86 12t87 -31t36 -82z" />
    <glyph glyph-name="Agrave" unicode="&#xc0;" horiz-adv-x="1542" 
d="M696 1180l-188 -539h373zM1022 197q0 27 -14 69l-88 260h-453l-88 -254q-18 -55 -19 -90q0 -78 121 -98l62 -10v-74q-137 8 -275 8l-239 -8v74l37 10q129 35 186 192l436 1170l172 20l438 -1210q49 -139 175 -172l40 -10v-74q-111 8 -292 8l-340 -8v74l41 10
q100 27 100 113zM584 1817q0 43 26 71t58 29q31 0 47 -6l149 -328l-24 -22q-100 39 -178 111t-78 145z" />
    <glyph glyph-name="Aacute" unicode="&#xc1;" horiz-adv-x="1542" 
d="M696 1180l-188 -539h373zM1022 197q0 27 -14 69l-88 260h-453l-88 -254q-18 -55 -19 -90q0 -78 121 -98l62 -10v-74q-137 8 -275 8l-239 -8v74l37 10q129 35 186 192l436 1170l172 20l438 -1210q49 -139 175 -172l40 -10v-74q-111 8 -292 8l-340 -8v74l41 10
q100 27 100 113zM903 1917q31 0 58 -29t26 -71q0 -74 -78 -146t-178 -110l-24 22l149 328q16 6 47 6z" />
    <glyph glyph-name="Acircumflex" unicode="&#xc2;" horiz-adv-x="1542" 
d="M696 1180l-188 -539h373zM1022 197q0 27 -14 69l-88 260h-453l-88 -254q-18 -55 -19 -90q0 -78 121 -98l62 -10v-74q-137 8 -275 8l-239 -8v74l37 10q129 35 186 192l436 1170l172 20l438 -1210q49 -139 175 -172l40 -10v-74q-111 8 -292 8l-340 -8v74l41 10
q100 27 100 113zM426 1606l360 282l351 -280q0 -33 -23 -59t-74 -25q-90 0 -162 80t-100 176l-213 -262z" />
    <glyph glyph-name="Atilde" unicode="&#xc3;" horiz-adv-x="1542" 
d="M696 1180l-188 -539h373zM1022 197q0 27 -14 69l-88 260h-453l-88 -254q-18 -55 -19 -90q0 -78 121 -98l62 -10v-74q-137 8 -275 8l-239 -8v74l37 10q129 35 186 192l436 1170l172 20l438 -1210q49 -139 175 -172l40 -10v-74q-111 8 -292 8l-340 -8v74l41 10
q100 27 100 113zM618 1679q-92 0 -133 -100l-51 41q14 96 64 156t129 61q78 0 175 -49t142 -49q92 0 133 100l51 -43q-16 -94 -65 -154t-123 -61q-74 0 -173 49q-98 49 -149 49z" />
    <glyph glyph-name="Adieresis" unicode="&#xc4;" horiz-adv-x="1542" 
d="M696 1180l-188 -539h373zM1022 197q0 27 -14 69l-88 260h-453l-88 -254q-18 -55 -19 -90q0 -78 121 -98l62 -10v-74q-137 8 -275 8l-239 -8v74l37 10q129 35 186 192l436 1170l172 20l438 -1210q49 -139 175 -172l40 -10v-74q-111 8 -292 8l-340 -8v74l41 10
q100 27 100 113zM1124 1732q0 -56 -37 -94t-93 -36q-56 0 -93 37t-37 93t37 93t93 37t93 -37t37 -93zM442 1732q0 56 37 93t93 37t94 -37t36 -93q0 -56 -36 -94q-38 -36 -94 -36t-93 37t-37 93z" />
    <glyph glyph-name="Aring" unicode="&#xc5;" horiz-adv-x="1542" 
d="M696 1180l-188 -539h373zM1022 197q0 27 -14 69l-88 260h-453l-88 -254q-18 -55 -19 -90q0 -78 121 -98l62 -10v-74q-137 8 -275 8l-239 -8v74l37 10q129 35 186 192l436 1170l172 20l438 -1210q49 -139 175 -172l40 -10v-74q-111 8 -292 8l-340 -8v74l41 10
q100 27 100 113zM545 1736q0 92 64 156q63 66 165 66t162 -54t61 -146q-1 -92 -65 -159q-64 -65 -165 -65t-162 55q-60 55 -60 147zM780 1614q100 0 101 127q0 63 -34 100t-85 37q-100 0 -100 -127q0 -63 34 -100t84 -37z" />
    <glyph glyph-name="AE" unicode="&#xc6;" horiz-adv-x="1880" 
d="M942 272v256h-399l-142 -256q-35 -63 -34 -104q0 -70 88 -84l59 -10v-74q-143 8 -281 8l-249 -8v74l63 10q127 20 225 188l559 959q38 69 -14 92q-31 14 -100 27l-64 10v74q281 -8 426 -9l686 9v-336h-67q-16 116 -104 184t-242 68q-90 0 -127 -13v-557h131
q154 0 176 146l14 94h74q-8 -133 -8 -262l8 -242h-76l-12 51q-25 104 -150 105h-157v-455q0 -133 166 -133q127 0 223 85t141 220l68 -8l-68 -381q-475 8 -692 8l-301 -8v74l49 10q131 27 131 188zM942 641v594l-334 -594h334z" />
    <glyph glyph-name="Ccedilla" unicode="&#xc7;" horiz-adv-x="1478" 
d="M748 -440q90 0 90 58q0 28 -38 56t-75 68q-37 39 -37 94q0 80 80 131q-315 11 -512 199t-197 514q0 207 93 383q92 176 280 288t438 111q108 0 256 -28t248 -27v-383h-67q-33 154 -148 245t-327 91t-339 -167q-128 -167 -128 -451t142 -478t411 -194q164 0 260 96
t120 227l68 -8l-37 -340q-98 0 -235 -36t-248 -40q-35 -35 -35 -67q0 -52 86 -104q33 -19 59 -57t27 -87q0 -72 -74 -120t-166 -48t-144 31t-52 75q1 44 25 68t58 23q34 0 52 -13q-16 -24 -16 -48t20 -43t62 -19z" />
    <glyph glyph-name="Egrave" unicode="&#xc8;" 
d="M1079 1098h-67q-16 116 -104 184t-242 68q-90 0 -127 -13v-557h131q154 0 176 146l14 94h74q-8 -133 -8 -262l8 -242h-76l-12 51q-25 104 -150 105h-157v-455q0 -133 166 -133q135 0 226 84t138 221l68 -8l-68 -381q-451 8 -668 8l-325 -8v74l49 10q131 27 131 188v938
q0 76 -23 103t-92 37l-63 10v74q195 -9 340 -9l661 9v-336zM485 1817q0 43 27 71q26 28 58 29q32 0 46 -6l150 -328l-25 -22q-100 39 -178 111t-78 145z" />
    <glyph glyph-name="Eacute" unicode="&#xc9;" 
d="M1079 1098h-67q-16 116 -104 184t-242 68q-90 0 -127 -13v-557h131q154 0 176 146l14 94h74q-8 -133 -8 -262l8 -242h-76l-12 51q-25 104 -150 105h-157v-455q0 -133 166 -133q135 0 226 84t138 221l68 -8l-68 -381q-451 8 -668 8l-325 -8v74l49 10q131 27 131 188v938
q0 76 -23 103t-92 37l-63 10v74q195 -9 340 -9l661 9v-336zM731 1917q31 0 57 -29t27 -71q0 -74 -78 -146t-178 -110l-24 22l149 328q16 6 47 6z" />
    <glyph glyph-name="Ecircumflex" unicode="&#xca;" 
d="M1079 1098h-67q-16 116 -104 184t-242 68q-90 0 -127 -13v-557h131q154 0 176 146l14 94h74q-8 -133 -8 -262l8 -242h-76l-12 51q-25 104 -150 105h-157v-455q0 -133 166 -133q135 0 226 84t138 221l68 -8l-68 -381q-451 8 -668 8l-325 -8v74l49 10q131 27 131 188v938
q0 76 -23 103t-92 37l-63 10v74q195 -9 340 -9l661 9v-336zM268 1606l361 282l350 -280q0 -33 -23 -59t-73 -25q-90 0 -163 80t-99 176l-213 -262z" />
    <glyph glyph-name="Edieresis" unicode="&#xcb;" 
d="M1079 1098h-67q-16 116 -104 184t-242 68q-90 0 -127 -13v-557h131q154 0 176 146l14 94h74q-8 -133 -8 -262l8 -242h-76l-12 51q-25 104 -150 105h-157v-455q0 -133 166 -133q135 0 226 84t138 221l68 -8l-68 -381q-451 8 -668 8l-325 -8v74l49 10q131 27 131 188v938
q0 76 -23 103t-92 37l-63 10v74q195 -9 340 -9l661 9v-336zM979 1732q0 -56 -37 -94t-93 -36q-56 0 -93 37t-37 93t37 93t93 37t93 -37t37 -93zM557 1732q0 -56 -37 -94t-93 -36q-56 0 -93 37t-37 93t37 93t93 37t93 -37t37 -93z" />
    <glyph glyph-name="Igrave" unicode="&#xcc;" horiz-adv-x="794" 
d="M539 1161v-938q1 -77 23 -103t91 -36l64 -10v-74q-182 8 -328 8l-313 -8v74l49 10q131 27 131 188v938q0 76 -23 103t-92 37l-63 10v74q182 -8 328 -9l313 9v-74l-49 -10q-131 -27 -131 -189zM207 1817q1 43 27 71t58 29q32 0 46 -6l149 -328l-24 -22q-100 39 -178 111
t-78 145z" />
    <glyph glyph-name="Iacute" unicode="&#xcd;" horiz-adv-x="794" 
d="M539 1161v-938q1 -77 23 -103t91 -36l64 -10v-74q-182 8 -328 8l-313 -8v74l49 10q131 27 131 188v938q0 76 -23 103t-92 37l-63 10v74q182 -8 328 -9l313 9v-74l-49 -10q-131 -27 -131 -189zM519 1917q32 0 59 -29t26 -71q0 -74 -78 -146t-178 -110l-24 22l149 328
q14 6 46 6z" />
    <glyph glyph-name="Icircumflex" unicode="&#xce;" horiz-adv-x="794" 
d="M539 1161v-938q1 -77 23 -103t91 -36l64 -10v-74q-182 8 -328 8l-313 -8v74l49 10q131 27 131 188v938q0 76 -23 103t-92 37l-63 10v74q182 -8 328 -9l313 9v-74l-49 -10q-131 -27 -131 -189zM53 1606l361 282l350 -280q0 -33 -23 -59t-73 -25q-90 0 -163 80t-99 176
l-213 -262z" />
    <glyph glyph-name="Idieresis" unicode="&#xcf;" horiz-adv-x="794" 
d="M539 1161v-938q1 -77 23 -103t91 -36l64 -10v-74q-182 8 -328 8l-313 -8v74l49 10q131 27 131 188v938q0 76 -23 103t-92 37l-63 10v74q182 -8 328 -9l313 9v-74l-49 -10q-131 -27 -131 -189zM492 1732q0 56 36 93q38 37 94 37t93 -37t37 -93t-37 -94t-93 -36
q-56 0 -94 36q-36 38 -36 94zM70 1732q0 56 36 93q38 37 94 37t93 -37t37 -93t-37 -94t-93 -36q-56 0 -94 36q-36 38 -36 94z" />
    <glyph glyph-name="Eth" unicode="&#xd0;" horiz-adv-x="1624" 
d="M831 645h-292v-422q-1 -139 163 -139q557 0 558 602q0 303 -162 483t-428 181q-94 0 -131 -13v-559l292 2v-135zM256 272v373h-225v135q123 -2 225 -2v432q0 76 -23 103t-92 37l-63 10v74q182 -8 328 -9l425 9q307 0 521 -182t213 -499t-227 -535t-601 -218l-348 8
l-313 -8v74l49 10q131 27 131 188z" />
    <glyph glyph-name="Ntilde" unicode="&#xd1;" horiz-adv-x="1644" 
d="M1450 1147v-1155l-104 -12l-981 1058v-764q0 -102 41 -138t143 -52l59 -10v-74q-166 8 -284 8l-281 -8v74l45 10q76 16 107 58t30 128v940q0 70 -24 100q-25 30 -95 40l-61 10v74q201 -10 428 -11q16 -96 121 -209l723 -776v746q0 86 -39 118t-131 48l-70 10v74
q179 -9 320 -9l225 9v-74l-43 -10q-69 -16 -99 -60t-30 -143zM696 1679q-92 0 -133 -100l-51 41q14 96 64 156t129 61q78 0 175 -49t142 -49q92 0 133 100l51 -43q-16 -94 -65 -154t-123 -61q-74 0 -173 49q-98 49 -149 49z" />
    <glyph glyph-name="Ograve" unicode="&#xd2;" horiz-adv-x="1646" 
d="M870 1462q305 0 511 -194t206 -512q0 -319 -208 -548q-99 -110 -256 -176t-347 -65q-305 0 -511 194t-206 519q0 152 55 292q117 304 409 425q157 65 347 65zM866 70q147 0 244 86q96 86 134 218t38 312q0 299 -143 486t-359 188q-147 0 -243 -86q-97 -86 -135 -218
t-37 -313q0 -299 143 -486t358 -187zM604 1817q0 43 27 71t57 29q30 0 47 -6l150 -328l-25 -22q-100 39 -178 111t-78 145z" />
    <glyph glyph-name="Oacute" unicode="&#xd3;" horiz-adv-x="1646" 
d="M870 1462q305 0 511 -194t206 -512q0 -319 -208 -548q-99 -110 -256 -176t-347 -65q-305 0 -511 194t-206 519q0 152 55 292q117 304 409 425q157 65 347 65zM866 70q147 0 244 86q96 86 134 218t38 312q0 299 -143 486t-359 188q-147 0 -243 -86q-97 -86 -135 -218
t-37 -313q0 -299 143 -486t358 -187zM956 1917q31 0 58 -29t26 -71q0 -74 -78 -146t-178 -110l-24 22l149 328q16 6 47 6z" />
    <glyph glyph-name="Ocircumflex" unicode="&#xd4;" horiz-adv-x="1646" 
d="M870 1462q305 0 511 -194t206 -512q0 -319 -208 -548q-99 -110 -256 -176t-347 -65q-305 0 -511 194t-206 519q0 152 55 292q117 304 409 425q157 65 347 65zM866 70q147 0 244 86q96 86 134 218t38 312q0 299 -143 486t-359 188q-147 0 -243 -86q-97 -86 -135 -218
t-37 -313q0 -299 143 -486t358 -187zM502 1606l360 282l350 -280q0 -33 -22 -59t-74 -25q-90 0 -163 80t-99 176l-213 -262z" />
    <glyph glyph-name="Otilde" unicode="&#xd5;" horiz-adv-x="1646" 
d="M870 1462q305 0 511 -194t206 -512q0 -319 -208 -548q-99 -110 -256 -176t-347 -65q-305 0 -511 194t-206 519q0 152 55 292q117 304 409 425q157 65 347 65zM866 70q147 0 244 86q96 86 134 218t38 312q0 299 -143 486t-359 188q-147 0 -243 -86q-97 -86 -135 -218
t-37 -313q0 -299 143 -486t358 -187zM702 1679q-92 0 -133 -100l-51 41q14 96 64 156t129 61q78 0 175 -49t142 -49q92 0 133 100l51 -43q-16 -94 -65 -154t-123 -61q-74 0 -173 49q-98 49 -149 49z" />
    <glyph glyph-name="Odieresis" unicode="&#xd6;" horiz-adv-x="1646" 
d="M870 1462q305 0 511 -194t206 -512q0 -319 -208 -548q-99 -110 -256 -176t-347 -65q-305 0 -511 194t-206 519q0 152 55 292q117 304 409 425q157 65 347 65zM866 70q147 0 244 86q96 86 134 218t38 312q0 299 -143 486t-359 188q-147 0 -243 -86q-97 -86 -135 -218
t-37 -313q0 -299 143 -486t358 -187zM1043 1862q55 0 93 -37t38 -93t-37 -94t-93 -36q-56 0 -94 37q-37 37 -37 93t37 93t93 37zM492 1732q0 56 36 93q38 37 94 37t93 -37t37 -93t-37 -94t-93 -36q-56 0 -94 36q-36 38 -36 94z" />
    <glyph glyph-name="multiply" unicode="&#xd7;" horiz-adv-x="1138" 
d="M569 584l320 321l131 -127l-320 -323l320 -322l-131 -131l-320 322l-319 -322l-131 131l319 322l-319 323l131 127z" />
    <glyph glyph-name="Oslash" unicode="&#xd8;" horiz-adv-x="1646" 
d="M1104 1212q-137 147 -324 148q-147 0 -243 -86q-97 -86 -135 -218t-38 -338t93 -380q172 227 647 874zM866 70q147 0 244 86q96 86 134 218t38 338t-96 384q-238 -311 -647 -875q134 -151 327 -151zM59 680q0 152 55 292q117 304 409 425q157 65 351 65t351 -84l96 131
h184l-162 -209q244 -201 244 -550q0 -313 -208 -542q-99 -110 -256 -176t-349 -65q-192 0 -358 86l-90 -125h-185l156 203q-238 201 -238 549z" />
    <glyph glyph-name="Ugrave" unicode="&#xd9;" horiz-adv-x="1597" 
d="M256 479v731q0 76 -23 103t-92 37l-63 10v74q182 -8 328 -9l313 9v-74l-49 -10q-131 -27 -131 -189v-688q0 -186 86 -275t266 -89q354 0 354 364v737q0 74 -27 101q-28 27 -102 39l-65 10v74q96 -8 260 -9l250 9v-74l-50 -10q-129 -27 -129 -189v-682q0 -233 -134 -373
t-412 -139q-278 0 -428 128q-152 128 -152 384zM645 1817q0 43 27 71q28 28 58 29q30 0 46 -6l150 -328l-25 -22q-100 39 -178 111t-78 145z" />
    <glyph glyph-name="Uacute" unicode="&#xda;" horiz-adv-x="1597" 
d="M256 479v731q0 76 -23 103t-92 37l-63 10v74q182 -8 328 -9l313 9v-74l-49 -10q-131 -27 -131 -189v-688q0 -186 86 -275t266 -89q354 0 354 364v737q0 74 -27 101q-28 27 -102 39l-65 10v74q96 -8 260 -9l250 9v-74l-50 -10q-129 -27 -129 -189v-682q0 -233 -134 -373
t-412 -139q-278 0 -428 128q-152 128 -152 384zM1091 1917q31 0 58 -29t27 -71q0 -74 -78 -146t-178 -110l-25 22l149 328q16 6 47 6z" />
    <glyph glyph-name="Ucircumflex" unicode="&#xdb;" horiz-adv-x="1597" 
d="M256 479v731q0 76 -23 103t-92 37l-63 10v74q182 -8 328 -9l313 9v-74l-49 -10q-131 -27 -131 -189v-688q0 -186 86 -275t266 -89q354 0 354 364v737q0 74 -27 101q-28 27 -102 39l-65 10v74q96 -8 260 -9l250 9v-74l-50 -10q-129 -27 -129 -189v-682q0 -233 -134 -373
t-412 -139q-278 0 -428 128q-152 128 -152 384zM518 1606l361 282l350 -280q0 -33 -23 -59t-73 -25q-90 0 -163 80t-100 176l-213 -262z" />
    <glyph glyph-name="Udieresis" unicode="&#xdc;" horiz-adv-x="1597" 
d="M256 479v731q0 76 -23 103t-92 37l-63 10v74q182 -8 328 -9l313 9v-74l-49 -10q-131 -27 -131 -189v-688q0 -186 86 -275t266 -89q354 0 354 364v737q0 74 -27 101q-28 27 -102 39l-65 10v74q96 -8 260 -9l250 9v-74l-50 -10q-129 -27 -129 -189v-682q0 -233 -134 -373
t-412 -139q-278 0 -428 128q-152 128 -152 384zM1241 1732q0 -56 -37 -94t-93 -36q-56 0 -93 37t-37 93t37 93t93 37t93 -37t37 -93zM819 1732q0 -56 -37 -94t-93 -36q-56 0 -93 37t-37 93t37 93t93 37t93 -37t37 -93z" />
    <glyph glyph-name="Yacute" unicode="&#xdd;" horiz-adv-x="1482" 
d="M889 223q1 -73 27 -101t98 -38l63 -10v-74q-193 8 -338 8l-323 -8v74l49 10q141 29 141 188v340l-317 568q-78 141 -217 170l-47 10v74q135 -10 299 -11l313 11v-74l-33 -10q-55 -18 -55 -70q0 -31 22 -72l260 -477l263 475q23 41 22 70q0 55 -76 74l-41 10v74
q139 -8 267 -9l192 9v-74l-41 -10q-72 -18 -123 -60t-102 -133l-303 -530v-404zM992 1917q32 0 59 -29t26 -71q0 -74 -78 -146t-178 -110l-24 22l149 328q14 6 46 6z" />
    <glyph glyph-name="Thorn" unicode="&#xde;" horiz-adv-x="1280" 
d="M709 1022q-49 0 -103 -17t-67 -18v-545q6 0 62 -17t108 -17q106 0 165 86q60 86 60 222t-60 221t-165 85zM539 1161v-88q16 0 106 31t176 31q162 0 281 -113q119 -114 119 -306t-119 -306t-281 -113q-86 0 -175 31t-107 30v-135q1 -75 27 -101t100 -38l63 -10v-74
q-195 8 -340 8l-313 -8v74l49 10q131 27 131 188v938q0 76 -23 103t-92 37l-63 10v74q182 -8 328 -9l313 9v-74l-49 -10q-131 -27 -131 -189z" />
    <glyph glyph-name="germandbls" unicode="&#xdf;" horiz-adv-x="1349" 
d="M1004 1237q0 87 -66 141t-183 54q-118 0 -190 -98t-71 -259v-1075h-404v68l37 6q53 10 88 43t35 84v608h-148l-8 61q90 14 156 74v70q0 242 153 382q154 140 365 140t340 -86t129 -195q0 -76 -36 -134t-87 -94t-102 -68q-123 -77 -123 -166q0 -72 146 -162
q61 -37 121 -80t104 -112t43 -150q-1 -147 -103 -235t-280 -87q-115 0 -206 53t-91 140q0 57 36 87q37 30 86 29l78 -10q-16 -40 -16 -84t41 -82q42 -38 112 -37q70 0 108 41q38 40 38 106q0 116 -152 204q-62 38 -126 76t-108 98t-44 126q0 68 34 116t82 85t96 77t82 100
t34 145z" />
    <glyph glyph-name="agrave" unicode="&#xe0;" horiz-adv-x="1044" 
d="M379 1503l209 -426l-27 -26q-106 47 -214 150t-107 210q0 41 28 70q29 29 63 29t48 -7zM307 213q0 -119 133 -119q33 0 92 20t72 23q-16 49 -16 125l8 144q-121 0 -205 -48t-84 -145zM604 671q0 175 -146 175q-74 0 -102 -34t-28 -73t16 -65q-37 -37 -102 -37t-98 29
q-32 29 -31 75q0 96 121 155q122 58 282 58t248 -78t88 -235l-18 -393q0 -68 30 -108t76 -40q45 0 82 15l27 -45q-24 -35 -92 -69t-134 -34q-137 0 -196 107q-27 -8 -75 -36q-122 -71 -235 -71q-113 -1 -183 55t-68 156q0 152 137 230t395 77q6 100 6 186z" />
    <glyph glyph-name="aacute" unicode="&#xe1;" horiz-adv-x="1044" 
d="M693 1509q34 -1 63 -29t28 -69q0 -106 -107 -210q-108 -103 -214 -150l-27 26l209 426q14 6 48 6zM307 213q0 -119 133 -119q33 0 92 20t72 23q-16 49 -16 125l8 144q-121 0 -205 -48t-84 -145zM604 671q0 175 -146 175q-74 0 -102 -34t-28 -73t16 -65q-37 -37 -102 -37
t-98 29q-32 29 -31 75q0 96 121 155q122 58 282 58t248 -78t88 -235l-18 -393q0 -68 30 -108t76 -40q45 0 82 15l27 -45q-24 -35 -92 -69t-134 -34q-137 0 -196 107q-27 -8 -75 -36q-122 -71 -235 -71q-113 -1 -183 55t-68 156q0 152 137 230t395 77q6 100 6 186z" />
    <glyph glyph-name="acircumflex" unicode="&#xe2;" horiz-adv-x="1044" 
d="M784 1065q-86 0 -160 103t-102 210l-207 -317l-151 84l366 356l351 -352q0 -31 -25 -57t-72 -27zM307 213q0 -119 133 -119q33 0 92 20t72 23q-16 49 -16 125l8 144q-121 0 -205 -48t-84 -145zM604 671q0 175 -146 175q-74 0 -102 -34t-28 -73t16 -65q-37 -37 -102 -37
t-98 29q-32 29 -31 75q0 96 121 155q122 58 282 58t248 -78t88 -235l-18 -393q0 -68 30 -108t76 -40q45 0 82 15l27 -45q-24 -35 -92 -69t-134 -34q-137 0 -196 107q-27 -8 -75 -36q-122 -71 -235 -71q-113 -1 -183 55t-68 156q0 152 137 230t395 77q6 100 6 186z" />
    <glyph glyph-name="atilde" unicode="&#xe3;" horiz-adv-x="1044" 
d="M358 1247q-92 0 -133 -100l-51 41q14 96 64 156t129 61q78 0 175 -49t142 -49q92 0 133 100l51 -43q-16 -94 -65 -154t-123 -61q-74 0 -173 49q-98 49 -149 49zM307 213q0 -119 133 -119q33 0 92 20t72 23q-16 49 -16 125l8 144q-121 0 -205 -48t-84 -145zM604 671
q0 175 -146 175q-74 0 -102 -34t-28 -73t16 -65q-37 -37 -102 -37t-98 29q-32 29 -31 75q0 96 121 155q122 58 282 58t248 -78t88 -235l-18 -393q0 -68 30 -108t76 -40q45 0 82 15l27 -45q-24 -35 -92 -69t-134 -34q-137 0 -196 107q-27 -8 -75 -36q-122 -71 -235 -71
q-113 -1 -183 55t-68 156q0 152 137 230t395 77q6 100 6 186z" />
    <glyph glyph-name="adieresis" unicode="&#xe4;" horiz-adv-x="1044" 
d="M592 1248q0 56 37 93t93 37t93 -37t37 -93t-37 -93t-93 -37t-93 37t-37 93zM190 1248q0 56 37 93t93 37t94 -37t37 -93q0 -56 -37 -93q-38 -37 -94 -37t-93 37t-37 93zM307 213q0 -119 133 -119q33 0 92 20t72 23q-16 49 -16 125l8 144q-121 0 -205 -48t-84 -145z
M604 671q0 175 -146 175q-74 0 -102 -34t-28 -73t16 -65q-37 -37 -102 -37t-98 29q-32 29 -31 75q0 96 121 155q122 58 282 58t248 -78t88 -235l-18 -393q0 -68 30 -108t76 -40q45 0 82 15l27 -45q-24 -35 -92 -69t-134 -34q-137 0 -196 107q-27 -8 -75 -36
q-122 -71 -235 -71q-113 -1 -183 55t-68 156q0 152 137 230t395 77q6 100 6 186z" />
    <glyph glyph-name="aring" unicode="&#xe5;" horiz-adv-x="1044" 
d="M548 1524q102 0 162 -54t60 -147q0 -92 -64 -158q-64 -65 -166 -65t-162 55t-60 147t64 156q64 66 166 66zM553 1180q100 0 100 127q0 63 -33 100q-34 37 -85 37q-100 0 -101 -127q0 -63 34 -100t85 -37zM307 213q0 -119 133 -119q33 0 92 20t72 23q-16 49 -16 125l8 144
q-121 0 -205 -48t-84 -145zM604 671q0 175 -146 175q-74 0 -102 -34t-28 -73t16 -65q-37 -37 -102 -37t-98 29q-32 29 -31 75q0 96 121 155q122 58 282 58t248 -78t88 -235l-18 -393q0 -68 30 -108t76 -40q45 0 82 15l27 -45q-24 -35 -92 -69t-134 -34q-137 0 -196 107
q-27 -8 -75 -36q-122 -71 -235 -71q-113 -1 -183 55t-68 156q0 152 137 230t395 77q6 100 6 186z" />
    <glyph glyph-name="ae" unicode="&#xe6;" horiz-adv-x="1511" 
d="M1233 686q0 176 -148 176q-89 0 -153 -64t-84 -167l383 22q2 10 2 33zM604 671q0 175 -146 175q-74 0 -102 -34t-28 -73t16 -65q-37 -37 -102 -37t-98 29q-32 29 -31 75q0 96 121 155q122 58 282 58q86 0 163 -34t105 -93q138 127 324 127t274 -96t88 -258l-47 -57
l-585 8q-4 -35 -4 -72q0 -152 87 -255t265 -103q113 0 231 37l29 -54q-162 -137 -375 -137t-338 119q-33 -2 -92 -33q-164 -86 -295 -86q-131 1 -206 57t-74 154q0 152 138 230t396 77q4 100 4 186zM307 213q0 -55 40 -88q39 -33 97 -33t139 26t97 29q-74 109 -80 261
q-121 -2 -207 -52t-86 -143z" />
    <glyph glyph-name="ccedilla" unicode="&#xe7;" horiz-adv-x="974" 
d="M452 -426q90 0 91 58q0 28 -38 57t-75 67t-37 102q0 62 62 111q-180 12 -292 135t-112 328q0 240 159 381t392 141q179 0 272 -72q56 -42 56 -98t-42 -89q-42 -31 -96 -31t-77 16q6 29 6 53q0 63 -43 94t-113 31q-111 0 -177 -108t-66 -284q0 -175 87 -262t234 -87
q102 0 219 43l27 -51q-82 -66 -158 -100t-192 -40q-23 -27 -23 -57q0 -48 86 -99q33 -19 60 -57t26 -88q0 -72 -74 -120t-166 -48t-144 31t-52 75t24 68t59 23q34 0 52 -12q-16 -23 -16 -48t20 -44q19 -19 61 -19z" />
    <glyph glyph-name="egrave" unicode="&#xe8;" horiz-adv-x="972" 
d="M422 1503l209 -426l-27 -26q-106 47 -214 150t-107 210q0 41 28 70q29 29 62 29t49 -7zM295 479q0 -152 87 -255t265 -103q113 0 232 37l28 -54q-84 -72 -176 -104t-227 -33q-199 0 -326 127t-127 346q0 218 155 366t376 148q174 0 262 -96t88 -258l-47 -57l-586 8
q-4 -35 -4 -72zM694 686q0 176 -147 176q-88 0 -153 -64t-85 -167l383 22q2 10 2 33z" />
    <glyph glyph-name="eacute" unicode="&#xe9;" horiz-adv-x="972" 
d="M754 1509q32 -1 61 -29t29 -69q0 -105 -108 -209t-214 -151l-26 26l209 426q17 6 49 6zM295 479q0 -152 87 -255t265 -103q113 0 232 37l28 -54q-84 -72 -176 -104t-227 -33q-199 0 -326 127t-127 346q0 218 155 366t376 148q174 0 262 -96t88 -258l-47 -57l-586 8
q-4 -35 -4 -72zM694 686q0 176 -147 176q-88 0 -153 -64t-85 -167l383 22q2 10 2 33z" />
    <glyph glyph-name="ecircumflex" unicode="&#xea;" horiz-adv-x="972" 
d="M834 1065q-86 0 -160 103t-103 210l-206 -317l-152 84l367 356l350 -352q0 -31 -25 -57t-71 -27zM295 479q0 -152 87 -255t265 -103q113 0 232 37l28 -54q-84 -72 -176 -104t-227 -33q-199 0 -326 127t-127 346q0 218 155 366t376 148q174 0 262 -96t88 -258l-47 -57
l-586 8q-4 -35 -4 -72zM694 686q0 176 -147 176q-88 0 -153 -64t-85 -167l383 22q2 10 2 33z" />
    <glyph glyph-name="edieresis" unicode="&#xeb;" horiz-adv-x="972" 
d="M645 1248q0 56 37 93t93 37t93 -37t37 -93t-37 -93t-93 -37t-93 37t-37 93zM244 1248q0 56 37 93t93 37t93 -37t37 -93t-37 -93t-93 -37t-93 37t-37 93zM295 479q0 -152 87 -255t265 -103q113 0 232 37l28 -54q-84 -72 -176 -104t-227 -33q-199 0 -326 127t-127 346
q0 218 155 366t376 148q174 0 262 -96t88 -258l-47 -57l-586 8q-4 -35 -4 -72zM694 686q0 176 -147 176q-88 0 -153 -64t-85 -167l383 22q2 10 2 33z" />
    <glyph glyph-name="igrave" unicode="&#xec;" horiz-adv-x="690" 
d="M221 1503l209 -426l-27 -26q-106 47 -214 150t-107 210q0 41 29 70q46 46 110 22zM496 184q0 -55 15 -78t54 -28l62 -10v-68q-127 6 -260 6l-267 -6v68l41 6q109 16 109 127v475q0 59 -32 86t-101 26l-17 62q160 15 340 80l56 22v-768z" />
    <glyph glyph-name="iacute" unicode="&#xed;" horiz-adv-x="690" 
d="M523 1509q34 -1 63 -29t28 -69q0 -106 -107 -210q-108 -103 -214 -150l-27 26l209 426q14 6 48 6zM496 184q0 -55 15 -78t54 -28l62 -10v-68q-127 6 -260 6l-267 -6v68l41 6q109 16 109 127v475q0 59 -32 86t-101 26l-17 62q160 15 340 80l56 22v-768z" />
    <glyph glyph-name="icircumflex" unicode="&#xee;" horiz-adv-x="690" 
d="M608 1065q-86 0 -160 103t-102 210l-207 -317l-151 84l366 356l351 -352q0 -31 -25 -57t-72 -27zM496 184q0 -55 15 -78t54 -28l62 -10v-68q-127 6 -260 6l-267 -6v68l41 6q109 16 109 127v475q0 59 -32 86t-101 26l-17 62q160 15 340 80l56 22v-768z" />
    <glyph glyph-name="idieresis" unicode="&#xef;" horiz-adv-x="690" 
d="M434 1248q0 56 37 93t93 37t93 -37t37 -93t-37 -93t-93 -37t-93 37t-37 93zM33 1248q0 56 37 93t93 37t93 -37t37 -93t-37 -93t-93 -37t-93 37t-37 93zM496 184q0 -55 15 -78t54 -28l62 -10v-68q-127 6 -260 6l-267 -6v68l41 6q109 16 109 127v475q0 59 -32 86t-101 26
l-17 62q160 15 340 80l56 22v-768z" />
    <glyph glyph-name="eth" unicode="&#xf0;" horiz-adv-x="1138" 
d="M819 442q1 158 -77 287t-191 129t-171 -112t-58 -268t76 -286q76 -128 191 -128q114 0 172 110t58 268zM539 -33q-215 0 -352 130q-136 130 -136 343q-1 213 145 364t390 150q147 0 254 -75q-14 186 -127 346l-209 -97l-45 93l188 84q-131 127 -377 172l62 79
q112 -8 236 -61t216 -133l228 104l45 -92l-199 -90q229 -260 229 -694q0 -281 -146 -452t-402 -171z" />
    <glyph glyph-name="ntilde" unicode="&#xf1;" horiz-adv-x="1232" 
d="M473 1247q-92 0 -133 -100l-51 41q14 96 64 156q51 60 129 61q78 0 174 -49t143 -49q92 0 133 100l51 -43q-16 -94 -65 -154t-124 -61q-74 0 -172 49t-149 49zM1059 682v-498q0 -55 16 -78t53 -28l64 -10v-68q-129 6 -260 6l-246 -6v68l27 6q100 18 100 127v444
q0 154 -151 154q-43 0 -117 -37t-96 -39v-539q0 -55 16 -78t53 -28l64 -10v-68q-129 6 -260 6l-269 -6v68l43 6q49 8 79 41t30 86v475q0 113 -133 112l-19 62q169 15 340 80l56 22v-149q31 10 85 49q143 104 265 103q121 -1 191 -75t69 -198z" />
    <glyph glyph-name="ograve" unicode="&#xf2;" horiz-adv-x="1138" 
d="M307 1411q0 41 29 70q46 46 110 22l209 -426l-26 -26q-106 47 -214 150t-108 210zM1087 481q0 -213 -148 -363q-147 -150 -381 -151q-234 0 -371 130q-136 130 -136 343t150 364t401 150q215 0 350 -130t135 -343zM322 478q0 -156 76 -284t191 -128q114 0 172 110t58 268
q1 156 -77 284t-191 128t-171 -111t-58 -267z" />
    <glyph glyph-name="oacute" unicode="&#xf3;" horiz-adv-x="1138" 
d="M800 1509q34 -1 62 -29t29 -69q0 -105 -108 -209t-214 -151l-26 26l209 426q14 6 48 6zM1087 481q0 -213 -148 -363q-147 -150 -381 -151q-234 0 -371 130q-136 130 -136 343t150 364t401 150q215 0 350 -130t135 -343zM322 478q0 -156 76 -284t191 -128q114 0 172 110
t58 268q1 156 -77 284t-191 128t-171 -111t-58 -267z" />
    <glyph glyph-name="ocircumflex" unicode="&#xf4;" horiz-adv-x="1138" 
d="M840 1065q-86 0 -160 103t-102 210l-207 -317l-152 84l367 356l350 -352q0 -31 -25 -57t-71 -27zM1087 481q0 -213 -148 -363q-147 -150 -381 -151q-234 0 -371 130q-136 130 -136 343t150 364t401 150q215 0 350 -130t135 -343zM322 478q0 -156 76 -284t191 -128
q114 0 172 110t58 268q1 156 -77 284t-191 128t-171 -111t-58 -267z" />
    <glyph glyph-name="otilde" unicode="&#xf5;" horiz-adv-x="1138" 
d="M426 1247q-92 0 -133 -100l-51 41q14 96 64 156t128 61q78 0 175 -49t143 -49q92 0 133 100l51 -43q-16 -94 -66 -154t-124 -61q-74 0 -172 49t-148 49zM1087 481q0 -213 -148 -363q-147 -150 -381 -151q-234 0 -371 130q-136 130 -136 343t150 364t401 150
q215 0 350 -130t135 -343zM322 478q0 -156 76 -284t191 -128q114 0 172 110t58 268q1 156 -77 284t-191 128t-171 -111t-58 -267z" />
    <glyph glyph-name="odieresis" unicode="&#xf6;" horiz-adv-x="1138" 
d="M653 1248q0 56 37 93t93 37q55 0 93 -37t38 -93t-38 -93q-36 -37 -92 -37t-94 37q-37 37 -37 93zM252 1248q0 56 37 93t93 37t93 -37t37 -93t-37 -93t-93 -37t-93 37t-37 93zM1087 481q0 -213 -148 -363q-147 -150 -381 -151q-234 0 -371 130q-136 130 -136 343t150 364
t401 150q215 0 350 -130t135 -343zM322 478q0 -156 76 -284t191 -128q114 0 172 110t58 268q1 156 -77 284t-191 128t-171 -111t-58 -267z" />
    <glyph glyph-name="divide" unicode="&#xf7;" horiz-adv-x="931" 
d="M313 782q0 66 44 110t110 44t110 -44t44 -110t-44 -110t-110 -43q-66 -1 -110 43t-44 110zM313 121q0 63 44 108t110 45t110 -45t44 -108t-44 -109t-110 -45q-66 -1 -110 45t-44 109zM932 360h-932v183h932v-183z" />
    <glyph glyph-name="oslash" unicode="&#xf8;" horiz-adv-x="1138" 
d="M546 858q-108 0 -166 -112t-58 -267q0 -90 24 -170q156 170 381 439q-73 110 -181 110zM592 63q111 0 169 111t58 268q0 78 -28 179q-77 -83 -388 -439q78 -119 189 -119zM539 -33q-147 0 -263 64l-53 -64h-194q59 59 141 148q-119 125 -119 331t150 358q150 151 401 150
q143 0 256 -61l55 59h197q-61 -59 -143 -143q121 -127 121 -334t-149 -357q-148 -150 -400 -151z" />
    <glyph glyph-name="ugrave" unicode="&#xf9;" horiz-adv-x="1198" 
d="M465 1503l209 -426l-27 -26q-106 47 -214 150t-107 210q0 41 28 70q29 29 63 29t48 -7zM1024 242q0 -111 133 -111l17 -61q-88 -8 -184 -34t-146 -48l-53 -21l-11 150q-29 -6 -82 -45q-143 -105 -264 -105q-120 0 -190 74t-70 199v485q0 59 -30 87t-101 28v67l358 33
l19 -18v-646q0 -154 162 -153q48 0 116 37t82 39v512q0 63 -27 96q-28 33 -106 33v67l361 33l16 -18v-680z" />
    <glyph glyph-name="uacute" unicode="&#xfa;" horiz-adv-x="1198" 
d="M805 1509q33 -1 61 -29t29 -69q0 -105 -108 -209t-214 -151l-26 26l209 426q16 6 49 6zM1024 242q0 -111 133 -111l17 -61q-88 -8 -184 -34t-146 -48l-53 -21l-11 150q-29 -6 -82 -45q-143 -105 -264 -105q-120 0 -190 74t-70 199v485q0 59 -30 87t-101 28v67l358 33
l19 -18v-646q0 -154 162 -153q48 0 116 37t82 39v512q0 63 -27 96q-28 33 -106 33v67l361 33l16 -18v-680z" />
    <glyph glyph-name="ucircumflex" unicode="&#xfb;" horiz-adv-x="1198" 
d="M860 1065q-86 0 -160 103t-102 210l-207 -317l-151 84l366 356l350 -352q0 -31 -24 -57t-72 -27zM1024 242q0 -111 133 -111l17 -61q-88 -8 -184 -34t-146 -48l-53 -21l-11 150q-29 -6 -82 -45q-143 -105 -264 -105q-120 0 -190 74t-70 199v485q0 59 -30 87t-101 28v67
l358 33l19 -18v-646q0 -154 162 -153q48 0 116 37t82 39v512q0 63 -27 96q-28 33 -106 33v67l361 33l16 -18v-680z" />
    <glyph glyph-name="udieresis" unicode="&#xfc;" horiz-adv-x="1198" 
d="M670 1248q0 56 37 93t93 37t93 -37t37 -93t-37 -93t-93 -37t-93 37t-37 93zM268 1248q0 56 37 93t93 37t94 -37t36 -93q0 -56 -36 -93t-94 -37q-56 0 -93 37t-37 93zM1024 242q0 -111 133 -111l17 -61q-88 -8 -184 -34t-146 -48l-53 -21l-11 150q-29 -6 -82 -45
q-143 -105 -264 -105q-120 0 -190 74t-70 199v485q0 59 -30 87t-101 28v67l358 33l19 -18v-646q0 -154 162 -153q48 0 116 37t82 39v512q0 63 -27 96q-28 33 -106 33v67l361 33l16 -18v-680z" />
    <glyph glyph-name="yacute" unicode="&#xfd;" horiz-adv-x="1077" 
d="M769 1509q35 -1 63 -29t28 -69q0 -106 -107 -210q-108 -103 -214 -150l-27 26l209 426q14 6 48 6zM-76 -320q0 54 32 88t91 33q25 0 47 -6q-4 -17 -4 -37t26 -40t66 -19q143 0 224 184l49 115l-285 731q-23 57 -45 82q-23 25 -59 33l-43 10v68q127 -8 258 -9l241 9v-68
l-41 -10q-70 -16 -69 -58q0 -4 10 -41l160 -473l176 435q25 63 24 86q0 37 -59 51l-43 10v68q102 -6 190 -7l185 7v-68l-43 -10q-53 -12 -86 -47t-62 -105l-354 -835q-129 -311 -391 -312q-94 0 -145 40q-50 41 -50 95z" />
    <glyph glyph-name="thorn" unicode="&#xfe;" horiz-adv-x="1232" 
d="M657 803q-41 0 -105 -26t-83 -27v-502q0 -182 205 -184q100 0 170 107t70 269t-68 262q-66 100 -189 101zM1182 475q0 -207 -148 -357t-401 -151q-90 0 -164 15v-320q0 -80 102 -96l62 -10v-68h-559v68l43 6q106 16 106 127v1571q0 59 -32 85t-101 25l-18 64q88 8 187 34
t155 48l53 20l2 -702q29 6 74 38q120 84 239 82q168 0 284 -136t116 -343z" />
    <glyph glyph-name="ydieresis" unicode="&#xff;" horiz-adv-x="1077" 
d="M682 1248q0 56 37 93t93 37t93 -37t37 -93t-37 -93t-93 -37t-93 37t-37 93zM281 1248q0 56 36 93q37 37 93 37t94 -37q37 -37 37 -93t-37 -93t-93 -37t-94 37q-36 37 -36 93zM-76 -320q0 54 32 88t91 33q25 0 47 -6q-4 -17 -4 -37t26 -40t66 -19q143 0 224 184l49 115
l-285 731q-23 57 -45 82q-23 25 -59 33l-43 10v68q127 -8 258 -9l241 9v-68l-41 -10q-70 -16 -69 -58q0 -4 10 -41l160 -473l176 435q25 63 24 86q0 37 -59 51l-43 10v68q102 -6 190 -7l185 7v-68l-43 -10q-53 -12 -86 -47t-62 -105l-354 -835q-129 -311 -391 -312
q-94 0 -145 40q-50 41 -50 95z" />
    <glyph glyph-name="Amacron" unicode="&#x100;" horiz-adv-x="1542" 
d="M696 1180l-188 -539h373zM1022 197q0 27 -14 69l-88 260h-453l-88 -254q-18 -55 -19 -90q0 -78 121 -98l62 -10v-74q-137 8 -275 8l-239 -8v74l37 10q129 35 186 192l436 1170l172 20l438 -1210q49 -139 175 -172l40 -10v-74q-111 8 -292 8l-340 -8v74l41 10
q100 27 100 113zM487 1788q166 -6 299 -6l299 6v-162q-150 6 -299 6l-299 -6v162z" />
    <glyph glyph-name="amacron" unicode="&#x101;" horiz-adv-x="1044" 
d="M244 1339q158 -6 291 -6l290 6v-161q-141 6 -290 6l-291 -6v161zM307 213q0 -119 133 -119q33 0 92 20t72 23q-16 49 -16 125l8 144q-121 0 -205 -48t-84 -145zM604 671q0 175 -146 175q-74 0 -102 -34t-28 -73t16 -65q-37 -37 -102 -37t-98 29q-32 29 -31 75
q0 96 121 155q122 58 282 58t248 -78t88 -235l-18 -393q0 -68 30 -108t76 -40q45 0 82 15l27 -45q-24 -35 -92 -69t-134 -34q-137 0 -196 107q-27 -8 -75 -36q-122 -71 -235 -71q-113 -1 -183 55t-68 156q0 152 137 230t395 77q6 100 6 186z" />
    <glyph glyph-name="Abreve" unicode="&#x102;" horiz-adv-x="1542" 
d="M696 1180l-188 -539h373zM1022 197q0 27 -14 69l-88 260h-453l-88 -254q-18 -55 -19 -90q0 -78 121 -98l62 -10v-74q-137 8 -275 8l-239 -8v74l37 10q129 35 186 192l436 1170l172 20l438 -1210q49 -139 175 -172l40 -10v-74q-111 8 -292 8l-340 -8v74l41 10
q100 27 100 113zM995 1876h88q0 -164 -83 -252q-84 -88 -232 -88t-234 87t-88 253h183q0 -195 170 -195q94 1 145 51t51 144z" />
    <glyph glyph-name="abreve" unicode="&#x103;" horiz-adv-x="1044" 
d="M733 1436h88q0 -164 -83 -252q-82 -88 -228 -88t-232 87t-88 253h183q0 -195 166 -195q94 1 144 51t50 144zM307 213q0 -119 133 -119q33 0 92 20t72 23q-16 49 -16 125l8 144q-121 0 -205 -48t-84 -145zM604 671q0 175 -146 175q-74 0 -102 -34t-28 -73t16 -65
q-37 -37 -102 -37t-98 29q-32 29 -31 75q0 96 121 155q122 58 282 58t248 -78t88 -235l-18 -393q0 -68 30 -108t76 -40q45 0 82 15l27 -45q-24 -35 -92 -69t-134 -34q-137 0 -196 107q-27 -8 -75 -36q-122 -71 -235 -71q-113 -1 -183 55t-68 156q0 152 137 230t395 77
q6 100 6 186z" />
    <glyph glyph-name="Aogonek" unicode="&#x104;" horiz-adv-x="1542" 
d="M696 1180l-188 -539h373zM1610 -388q0 -42 -48 -79t-153 -37t-168 53t-63 150q0 166 233 301q-197 8 -233 8l-297 -8v74l41 10q100 27 100 113q0 27 -14 69l-88 260h-453l-88 -254q-18 -55 -19 -90q0 -78 121 -98l62 -10v-74q-137 8 -275 8l-239 -8v74l37 10
q129 35 186 192l436 1170l172 20l438 -1210q49 -139 175 -172l40 -10v-74q-170 -137 -170 -260q0 -51 33 -83q32 -32 92 -32t93 41q49 -12 49 -54z" />
    <glyph glyph-name="aogonek" unicode="&#x105;" horiz-adv-x="1044" 
d="M307 213q0 -119 133 -119q33 0 92 20t72 23q-16 49 -16 125l8 144q-121 0 -205 -48t-84 -145zM604 671q0 175 -146 175q-74 0 -102 -34t-28 -73t16 -65q-37 -37 -102 -37t-98 29q-32 29 -31 75q0 96 121 155q122 58 282 58t248 -78t88 -235l-18 -393q0 -68 30 -108
t76 -40q45 0 82 15l27 -45q-147 -115 -209 -188t-62 -135t33 -94t93 -32t91 41q49 -12 49 -54t-48 -79t-152 -37t-168 53q-63 53 -64 150q0 145 183 274q-119 10 -168 105q-27 -8 -75 -36q-122 -71 -235 -71q-113 -1 -183 55t-68 156q0 152 137 230t395 77q6 100 6 186z" />
    <glyph glyph-name="Cacute" unicode="&#x106;" horiz-adv-x="1478" 
d="M1374 1407v-383h-67q-33 154 -148 245t-327 91t-339 -167q-128 -167 -128 -451t142 -478t411 -194q164 0 260 96t120 227l68 -8l-37 -340q-95 0 -243 -39t-283 -39q-328 1 -536 189t-208 524q0 207 93 383q92 176 280 288t438 111q108 0 256 -28t248 -27zM956 1917
q31 0 58 -29t26 -71q0 -74 -78 -146t-178 -110l-24 22l149 328q16 6 47 6z" />
    <glyph glyph-name="cacute" unicode="&#x107;" horiz-adv-x="974" 
d="M779 1509q34 -1 63 -29t28 -69q0 -106 -107 -210q-108 -103 -214 -150l-27 26l209 426q14 6 48 6zM721 719q0 63 -44 101t-112 38q-111 0 -177 -108t-66 -284q0 -175 87 -262t234 -87q102 0 219 43l27 -51q-88 -72 -172 -107t-219 -35q-197 0 -322 124q-125 125 -125 353
t159 369t392 141q136 0 232 -49t96 -141q0 -55 -38 -87q-38 -31 -93 -31t-84 20q6 29 6 53z" />
    <glyph glyph-name="Ccircumflex" unicode="&#x108;" horiz-adv-x="1478" 
d="M1374 1407v-383h-67q-33 154 -148 245t-327 91t-339 -167q-128 -167 -128 -451t142 -478t411 -194q164 0 260 96t120 227l68 -8l-37 -340q-95 0 -243 -39t-283 -39q-328 1 -536 189t-208 524q0 207 93 383q92 176 280 288t438 111q108 0 256 -28t248 -27zM502 1606
l360 282l350 -280q0 -33 -22 -59t-74 -25q-90 0 -163 80t-99 176l-213 -262z" />
    <glyph glyph-name="ccircumflex" unicode="&#x109;" horiz-adv-x="974" 
d="M872 1065q-86 0 -160 103t-102 210l-207 -317l-151 84l366 356l351 -352q0 -31 -25 -57t-72 -27zM721 719q0 63 -44 101t-112 38q-111 0 -177 -108t-66 -284q0 -175 87 -262t234 -87q102 0 219 43l27 -51q-88 -72 -172 -107t-219 -35q-197 0 -322 124q-125 125 -125 353
t159 369t392 141q136 0 232 -49t96 -141q0 -55 -38 -87q-38 -31 -93 -31t-84 20q6 29 6 53z" />
    <glyph glyph-name="Cdotaccent" unicode="&#x10a;" horiz-adv-x="1478" 
d="M1374 1407v-383h-67q-33 154 -148 245t-327 91t-339 -167q-128 -167 -128 -451t142 -478t411 -194q164 0 260 96t120 227l68 -8l-37 -340q-95 0 -243 -39t-283 -39q-328 1 -536 189t-208 524q0 207 93 383q92 176 280 288t438 111q108 0 256 -28t248 -27zM719 1733
q0 63 46 108t109 45q62 0 108 -45t46 -108t-45 -109t-109 -47q-64 1 -109 47q-46 46 -46 109z" />
    <glyph glyph-name="cdotaccent" unicode="&#x10b;" horiz-adv-x="974" 
d="M457 1284q0 62 46 108t109 46q62 0 108 -45t46 -109t-45 -109q-45 -47 -109 -47t-109 46q-46 46 -46 110zM721 719q0 63 -44 101t-112 38q-111 0 -177 -108t-66 -284q0 -175 87 -262t234 -87q102 0 219 43l27 -51q-88 -72 -172 -107t-219 -35q-197 0 -322 124
q-125 125 -125 353t159 369t392 141q136 0 232 -49t96 -141q0 -55 -38 -87q-38 -31 -93 -31t-84 20q6 29 6 53z" />
    <glyph glyph-name="Ccaron" unicode="&#x10c;" horiz-adv-x="1478" 
d="M1374 1407v-383h-67q-33 154 -148 245t-327 91t-339 -167q-128 -167 -128 -451t142 -478t411 -194q164 0 260 96t120 227l68 -8l-37 -340q-95 0 -243 -39t-283 -39q-328 1 -536 189t-208 524q0 207 93 383q92 176 280 288t438 111q108 0 256 -28t248 -27zM1137 1882
q51 0 73 -26t23 -58l-350 -280l-361 282l140 88l212 -262q27 96 100 176t163 80z" />
    <glyph glyph-name="ccaron" unicode="&#x10d;" horiz-adv-x="974" 
d="M879 1511q47 -1 71 -27t25 -57l-350 -352l-367 357l152 84l206 -318q29 106 103 210t160 103zM721 719q0 63 -44 101t-112 38q-111 0 -177 -108t-66 -284q0 -175 87 -262t234 -87q102 0 219 43l27 -51q-88 -72 -172 -107t-219 -35q-197 0 -322 124q-125 125 -125 353
t159 369t392 141q136 0 232 -49t96 -141q0 -55 -38 -87q-38 -31 -93 -31t-84 20q6 29 6 53z" />
    <glyph glyph-name="Dcaron" unicode="&#x10e;" horiz-adv-x="1624" 
d="M256 272v938q0 76 -23 103t-92 37l-63 10v74q182 -8 328 -9l425 9q307 0 521 -182t213 -499t-227 -535t-601 -218l-348 8l-313 -8v74l49 10q131 27 131 188zM702 84q557 0 558 602q0 303 -162 483t-428 181q-94 0 -131 -13v-1114q-1 -139 163 -139zM1085 1882
q51 0 74 -26t23 -58l-351 -280l-360 282l139 88l213 -262q27 96 100 176t162 80z" />
    <glyph glyph-name="dcaron" unicode="&#x10f;" horiz-adv-x="1282" 
d="M1290 1585q68 0 113 -57t45 -133q0 -158 -94 -271t-244 -139l-20 49q80 31 127 90t47 127q0 126 -117 187q0 63 38 105q37 42 105 42zM764 672q0 186 -203 186q-101 0 -171 -108t-68 -270q0 -163 66 -262t200 -99q39 -1 98 25t78 28v500zM1010 242q0 -57 32 -84t101 -27
l16 -61q-171 -16 -334 -82l-53 -21l-8 121q-27 -6 -73 -38q-119 -83 -240 -83q-168 0 -284 136t-116 343t150 358t401 150q90 0 162 -14v320q0 59 -32 85t-101 25l-17 64q88 8 186 34t154 48l56 20v-1294z" />
    <glyph glyph-name="Dcroat" unicode="&#x110;" horiz-adv-x="1624" 
d="M831 645h-292v-422q-1 -139 163 -139q557 0 558 602q0 303 -162 483t-428 181q-94 0 -131 -13v-559l292 2v-135zM256 272v373h-225v135q123 -2 225 -2v432q0 76 -23 103t-92 37l-63 10v74q182 -8 328 -9l425 9q307 0 521 -182t213 -499t-227 -535t-601 -218l-348 8
l-313 -8v74l49 10q131 27 131 188z" />
    <glyph glyph-name="dcroat" unicode="&#x111;" 
d="M764 672q0 186 -203 186q-101 0 -171 -108t-68 -270q0 -163 66 -262t200 -99q39 -1 98 25t78 28v500zM1178 1100q-88 0 -168 2v-860q0 -57 32 -84t101 -27l16 -61q-171 -16 -334 -82l-53 -21l-8 121q-27 -6 -73 -38q-119 -83 -240 -83q-168 0 -284 136t-116 343t150 358
t401 150q90 0 162 -14v166l-332 -6v133q195 -6 332 -6v33q0 59 -32 85t-101 25l-17 64q88 8 186 34t154 48l56 20v-307l168 4v-133z" />
    <glyph glyph-name="Emacron" unicode="&#x112;" 
d="M1079 1098h-67q-16 116 -104 184t-242 68q-90 0 -127 -13v-557h131q154 0 176 146l14 94h74q-8 -133 -8 -262l8 -242h-76l-12 51q-25 104 -150 105h-157v-455q0 -133 166 -133q135 0 226 84t138 221l68 -8l-68 -381q-451 8 -668 8l-325 -8v74l49 10q131 27 131 188v938
q0 76 -23 103t-92 37l-63 10v74q195 -9 340 -9l661 9v-336zM350 1788q166 -6 299 -6l299 6v-162q-150 6 -299 6l-299 -6v162z" />
    <glyph glyph-name="emacron" unicode="&#x113;" horiz-adv-x="972" 
d="M291 1339q158 -6 291 -6l290 6v-161q-141 6 -290 6l-291 -6v161zM295 479q0 -152 87 -255t265 -103q113 0 232 37l28 -54q-84 -72 -176 -104t-227 -33q-199 0 -326 127t-127 346q0 218 155 366t376 148q174 0 262 -96t88 -258l-47 -57l-586 8q-4 -35 -4 -72zM694 686
q0 176 -147 176q-88 0 -153 -64t-85 -167l383 22q2 10 2 33z" />
    <glyph glyph-name="Ebreve" unicode="&#x114;" 
d="M1079 1098h-67q-16 116 -104 184t-242 68q-90 0 -127 -13v-557h131q154 0 176 146l14 94h74q-8 -133 -8 -262l8 -242h-76l-12 51q-25 104 -150 105h-157v-455q0 -133 166 -133q135 0 226 84t138 221l68 -8l-68 -381q-451 8 -668 8l-325 -8v74l49 10q131 27 131 188v938
q0 76 -23 103t-92 37l-63 10v74q195 -9 340 -9l661 9v-336zM872 1876h89q0 -164 -83 -252t-232 -88q-150 0 -236 87t-86 253h182q0 -195 170 -195q94 1 145 51t51 144z" />
    <glyph glyph-name="ebreve" unicode="&#x115;" horiz-adv-x="972" 
d="M823 1436h88q0 -164 -83 -252q-82 -88 -228 -88t-232 87t-87 253h182q0 -195 166 -195q94 1 144 51t50 144zM295 479q0 -152 87 -255t265 -103q113 0 232 37l28 -54q-84 -72 -176 -104t-227 -33q-199 0 -326 127t-127 346q0 218 155 366t376 148q174 0 262 -96t88 -258
l-47 -57l-586 8q-4 -35 -4 -72zM694 686q0 176 -147 176q-88 0 -153 -64t-85 -167l383 22q2 10 2 33z" />
    <glyph glyph-name="Edotaccent" unicode="&#x116;" 
d="M1079 1098h-67q-16 116 -104 184t-242 68q-90 0 -127 -13v-557h131q154 0 176 146l14 94h74q-8 -133 -8 -262l8 -242h-76l-12 51q-25 104 -150 105h-157v-455q0 -133 166 -133q135 0 226 84t138 221l68 -8l-68 -381q-451 8 -668 8l-325 -8v74l49 10q131 27 131 188v938
q0 76 -23 103t-92 37l-63 10v74q195 -9 340 -9l661 9v-336zM508 1733q0 63 46 108t110 45t108 -45q45 -45 45 -108t-45 -109t-108 -47q-63 0 -110 46q-46 47 -46 110z" />
    <glyph glyph-name="edotaccent" unicode="&#x117;" horiz-adv-x="972" 
d="M444 1284q0 62 46 108t110 46t108 -45q46 -45 46 -109t-45 -109q-45 -47 -109 -47t-110 46t-46 110zM295 479q0 -152 87 -255t265 -103q113 0 232 37l28 -54q-84 -72 -176 -104t-227 -33q-199 0 -326 127t-127 346q0 218 155 366t376 148q174 0 262 -96t88 -258l-47 -57
l-586 8q-4 -35 -4 -72zM694 686q0 176 -147 176q-88 0 -153 -64t-85 -167l383 22q2 10 2 33z" />
    <glyph glyph-name="Eogonek" unicode="&#x118;" 
d="M1167 -386q0 -42 -48 -79q-49 -37 -153 -37t-167 53t-64 150q0 168 226 301q-442 6 -560 6l-325 -8v74l49 10q131 27 131 188v938q0 76 -23 103t-92 37l-63 10v74q195 -8 340 -9l661 9v-336h-67q-16 116 -104 184t-242 68q-90 0 -127 -13v-557h131q154 0 176 146l14 94
h74q-8 -133 -8 -262l8 -242h-76l-12 51q-25 104 -150 105h-157v-455q0 -133 166 -133q135 0 226 84t138 221l68 -8l-68 -381q-168 -135 -168 -258q0 -51 33 -83q32 -32 92 -32t92 41q49 -12 49 -54z" />
    <glyph glyph-name="eogonek" unicode="&#x119;" horiz-adv-x="972" 
d="M694 686q0 176 -147 176q-88 0 -153 -64t-85 -167l383 22q2 10 2 33zM811 -392q0 -42 -48 -79q-49 -37 -153 -37t-168 53q-63 53 -63 150q0 145 182 274q-18 -2 -57 -2q-199 0 -326 127t-127 346q0 218 155 366t376 148q174 0 262 -96t88 -258l-47 -57l-586 8
q-4 -35 -4 -72q0 -152 87 -255t265 -103q113 0 232 37l28 -54q-167 -106 -239 -166q-72 -61 -98 -107t-26 -96t34 -82q32 -32 92 -32t92 41q49 -12 49 -54z" />
    <glyph glyph-name="Ecaron" unicode="&#x11a;" 
d="M1079 1098h-67q-16 116 -104 184t-242 68q-90 0 -127 -13v-557h131q154 0 176 146l14 94h74q-8 -133 -8 -262l8 -242h-76l-12 51q-25 104 -150 105h-157v-455q0 -133 166 -133q135 0 226 84t138 221l68 -8l-68 -381q-451 8 -668 8l-325 -8v74l49 10q131 27 131 188v938
q0 76 -23 103t-92 37l-63 10v74q195 -9 340 -9l661 9v-336zM905 1882q51 0 74 -26t22 -58l-350 -280l-360 282l139 88l213 -262q27 96 99 176q73 80 163 80z" />
    <glyph glyph-name="ecaron" unicode="&#x11b;" horiz-adv-x="972" 
d="M842 1511q48 -1 72 -27t24 -57l-350 -352l-367 357l152 84l207 -318q29 106 102 210q74 103 160 103zM295 479q0 -152 87 -255t265 -103q113 0 232 37l28 -54q-84 -72 -176 -104t-227 -33q-199 0 -326 127t-127 346q0 218 155 366t376 148q174 0 262 -96t88 -258l-47 -57
l-586 8q-4 -35 -4 -72zM694 686q0 176 -147 176q-88 0 -153 -64t-85 -167l383 22q2 10 2 33z" />
    <glyph glyph-name="Gcircumflex" unicode="&#x11c;" horiz-adv-x="1597" 
d="M940 618h596v-73l-27 -6q-123 -29 -123 -183v-311q-110 0 -280 -39t-303 -39q-328 1 -536 189t-208 517q-1 329 221 559t588 230q106 0 256 -28t250 -27v-383h-67q-33 154 -148 245t-327 91t-339 -167q-128 -167 -128 -451t142 -478t411 -194q207 0 206 159v174
q0 63 -32 93q-33 29 -115 43l-37 6v73zM535 1606l360 282l350 -280q-1 -33 -23 -59t-73 -25q-90 0 -163 80t-99 176l-213 -262z" />
    <glyph glyph-name="gcircumflex" unicode="&#x11d;" horiz-adv-x="1083" 
d="M821 1065q-85 0 -159 103t-103 210l-207 -317l-151 84l366 356l351 -352q0 -31 -25 -57t-72 -27zM544 102q460 0 460 -285q0 -139 -146 -239t-418 -100q-180 0 -303 63t-123 195q0 68 44 108t106 39q62 0 102 -43q-35 -42 -35 -112t73 -113t207 -43t222 50t88 124
q0 156 -307 156q-416 0 -416 182q0 150 211 201q-109 27 -185 113t-75 194q0 156 117 259t323 103q143 0 230 -57q78 -16 166 -16t184 45q18 -31 18 -69q1 -37 -33 -65t-74 -28t-87 15t-64 18q49 -72 50 -168q0 -153 -115 -247t-287 -111t-172 -93q1 -76 239 -76zM449 868
q-166 0 -166 -245q0 -99 56 -185t142 -86q164 0 164 248q0 100 -55 184t-141 84z" />
    <glyph glyph-name="Gbreve" unicode="&#x11e;" horiz-adv-x="1597" 
d="M940 618h596v-73l-27 -6q-123 -29 -123 -183v-311q-110 0 -280 -39t-303 -39q-328 1 -536 189t-208 517q-1 329 221 559t588 230q106 0 256 -28t250 -27v-383h-67q-33 154 -148 245t-327 91t-339 -167q-128 -167 -128 -451t142 -478t411 -194q207 0 206 159v174
q0 63 -32 93q-33 29 -115 43l-37 6v73zM1090 1876h88q0 -164 -83 -252t-232 -88t-235 87t-87 253h182q0 -195 170 -195q93 1 145 51t52 144z" />
    <glyph glyph-name="gbreve" unicode="&#x11f;" horiz-adv-x="1083" 
d="M803 1436h88q0 -164 -83 -252q-82 -88 -228 -88t-233 87t-87 253h182q0 -195 166 -195q94 0 145 50q50 51 50 145zM544 102q460 0 460 -285q0 -139 -146 -239t-418 -100q-180 0 -303 63t-123 195q0 68 44 108t106 39q62 0 102 -43q-35 -42 -35 -112t73 -113t207 -43
t222 50t88 124q0 156 -307 156q-416 0 -416 182q0 150 211 201q-109 27 -185 113t-75 194q0 156 117 259t323 103q143 0 230 -57q78 -16 166 -16t184 45q18 -31 18 -69q1 -37 -33 -65t-74 -28t-87 15t-64 18q49 -72 50 -168q0 -153 -115 -247t-287 -111t-172 -93
q1 -76 239 -76zM449 868q-166 0 -166 -245q0 -99 56 -185t142 -86q164 0 164 248q0 100 -55 184t-141 84z" />
    <glyph glyph-name="Gdotaccent" unicode="&#x120;" horiz-adv-x="1597" 
d="M940 618h596v-73l-27 -6q-123 -29 -123 -183v-311q-110 0 -280 -39t-303 -39q-328 1 -536 189t-208 517q-1 329 221 559t588 230q106 0 256 -28t250 -27v-383h-67q-33 154 -148 245t-327 91t-339 -167q-128 -167 -128 -451t142 -478t411 -194q207 0 206 159v174
q0 63 -32 93q-33 29 -115 43l-37 6v73zM739 1733q0 63 46 108q45 45 109 45t110 -45t45 -108q0 -63 -45 -109q-44 -46 -108 -47q-64 0 -111 46q-46 47 -46 110z" />
    <glyph glyph-name="gdotaccent" unicode="&#x121;" horiz-adv-x="1083" 
d="M379 1284q0 62 46 108q45 46 109 46t109 -45t45 -109t-45 -109q-45 -47 -108 -47t-109 46t-47 110zM544 102q460 0 460 -285q0 -139 -146 -239t-418 -100q-180 0 -303 63t-123 195q0 68 44 108t106 39q62 0 102 -43q-35 -42 -35 -112t73 -113t207 -43t222 50t88 124
q0 156 -307 156q-416 0 -416 182q0 150 211 201q-109 27 -185 113t-75 194q0 156 117 259t323 103q143 0 230 -57q78 -16 166 -16t184 45q18 -31 18 -69q1 -37 -33 -65t-74 -28t-87 15t-64 18q49 -72 50 -168q0 -153 -115 -247t-287 -111t-172 -93q1 -76 239 -76zM449 868
q-166 0 -166 -245q0 -99 56 -185t142 -86q164 0 164 248q0 100 -55 184t-141 84z" />
    <glyph glyph-name="Gcommaaccent" unicode="&#x122;" horiz-adv-x="1597" 
d="M826 -123q68 0 109 -46q42 -46 42 -114q0 -121 -95 -201t-231 -116l-20 49q63 23 102 67t39 93q0 76 -94 123q0 63 40 104t108 41zM940 618h596v-73l-27 -6q-123 -29 -123 -183v-311q-110 0 -280 -39t-303 -39q-328 1 -536 189t-208 517q-1 329 221 559t588 230
q106 0 256 -28t250 -27v-383h-67q-33 154 -148 245t-327 91t-339 -167q-128 -167 -128 -451t142 -478t411 -194q207 0 206 159v174q0 63 -32 93q-33 29 -115 43l-37 6v73z" />
    <glyph glyph-name="gcommaaccent" unicode="&#x123;" horiz-adv-x="1083" 
d="M557 1073q-68 0 -110 46t-41 114q0 121 95 202t230 115l21 -49q-63 -23 -103 -66q-39 -44 -39 -94q1 -75 95 -122q0 -63 -40 -105t-108 -41zM544 102q460 0 460 -285q0 -139 -146 -239t-418 -100q-180 0 -303 63t-123 195q0 68 44 108t106 39q62 0 102 -43
q-35 -42 -35 -112t73 -113t207 -43t222 50t88 124q0 156 -307 156q-416 0 -416 182q0 150 211 201q-109 27 -185 113t-75 194q0 156 117 259t323 103q143 0 230 -57q78 -16 166 -16t184 45q18 -31 18 -69q1 -37 -33 -65t-74 -28t-87 15t-64 18q49 -72 50 -168
q0 -153 -115 -247t-287 -111t-172 -93q1 -76 239 -76zM449 868q-166 0 -166 -245q0 -99 56 -185t142 -86q164 0 164 248q0 100 -55 184t-141 84z" />
    <glyph glyph-name="Hcircumflex" unicode="&#x124;" horiz-adv-x="1744" 
d="M1487 1161v-938q1 -77 23 -103t92 -36l63 -10v-74q-182 8 -328 8l-313 -8v74l49 10q131 27 131 188v410h-665v-459q1 -77 23 -103t91 -36l64 -10v-74q-182 8 -328 8l-313 -8v74l49 10q131 27 131 188v938q0 76 -23 103t-92 37l-63 10v74q182 -8 328 -9l313 9v-74l-49 -10
q-131 -27 -131 -189v-356h665v405q0 76 -22 103q-23 27 -92 37l-64 10v74q182 -8 328 -9l313 9v-74l-49 -10q-131 -27 -131 -189zM535 1606l360 282l350 -280q-1 -33 -23 -59t-73 -25q-90 0 -163 80t-99 176l-213 -262z" />
    <glyph glyph-name="hcircumflex" unicode="&#x125;" horiz-adv-x="1165" 
d="M1079 682v-498q1 -55 17 -78t53 -28l63 -10v-68q-129 6 -260 6l-245 -6v68l26 6q100 18 101 127v444q0 154 -152 154q-43 0 -117 -37t-96 -39v-539q0 -55 16 -78t54 -28l63 -10v-68q-129 6 -260 6l-268 -6v68l43 6q49 8 79 41t29 86v1059q0 59 -31 85q-32 26 -102 25
l-18 64q88 8 187 34t153 48l55 20v-733q31 6 83 44q149 109 268 108q120 -1 190 -74q69 -74 69 -199zM973 1595q-90 0 -163 80t-99 176l-213 -262l-140 88l361 283l350 -281q-1 -33 -23 -59t-73 -25z" />
    <glyph glyph-name="Hbar" unicode="&#x126;" horiz-adv-x="1742" 
d="M539 805h665v166l-334 2l-331 -2v-166zM256 1106v104q0 76 -23 103t-92 37l-63 10v74q182 -8 328 -9l313 9v-74l-49 -10q-131 -27 -131 -189v-57q143 -2 332 -2t333 2v106q0 76 -22 103q-23 27 -92 37l-64 10v74q182 -8 328 -9l313 9v-74l-49 -10q-131 -27 -131 -189v-55
l180 2v-141q-76 0 -180 2v-746q1 -77 23 -103t92 -36l63 -10v-74q-182 8 -328 8l-313 -8v74l49 10q131 27 131 188v410h-665v-459q1 -77 23 -103t91 -36l64 -10v-74q-182 8 -328 8l-313 -8v74l49 10q131 27 131 188v697l-178 -2v141q76 -2 178 -2z" />
    <glyph glyph-name="hbar" unicode="&#x127;" horiz-adv-x="1253" 
d="M1079 682v-498q1 -55 17 -78t53 -28l63 -10v-68q-129 6 -260 6l-245 -6v68l26 6q100 18 101 127v444q0 154 -152 154q-43 0 -117 -37t-96 -39v-539q0 -55 16 -78t54 -28l63 -10v-68q-129 6 -260 6l-268 -6v68l43 6q49 8 79 41t29 86v895l-155 -4v135q70 -4 155 -6v39
q0 59 -31 85q-32 26 -102 25l-18 64q88 8 187 34t153 48l55 20v-315l389 6v-135q-223 4 -389 6v-295q31 6 83 44q149 109 268 108q120 -1 190 -74q69 -74 69 -199z" />
    <glyph glyph-name="Itilde" unicode="&#x128;" horiz-adv-x="794" 
d="M539 1161v-938q1 -77 23 -103t91 -36l64 -10v-74q-182 8 -328 8l-313 -8v74l49 10q131 27 131 188v938q0 76 -23 103t-92 37l-63 10v74q182 -8 328 -9l313 9v-74l-49 -10q-131 -27 -131 -189zM244 1679q-92 0 -133 -100l-52 41q15 96 65 156t128 61q78 0 175 -49t142 -49
q92 0 133 100l52 -43q-16 -94 -66 -154t-124 -61q-74 0 -172 49t-148 49z" />
    <glyph glyph-name="itilde" unicode="&#x129;" horiz-adv-x="673" 
d="M176 1247q-92 0 -133 -100l-51 41q14 96 64 156t128 61q78 0 176 -49q96 -49 142 -49q92 0 133 100l51 -43q-16 -94 -65 -154t-124 -61q-75 0 -173 49t-148 49zM469 184q0 -55 15 -78t55 -28l61 -10v-68q-127 6 -260 6l-266 -6v68l41 6q109 16 108 127v475q0 59 -32 86
t-101 26l-16 62q156 14 340 80l55 22v-768z" />
    <glyph glyph-name="Imacron" unicode="&#x12a;" horiz-adv-x="794" 
d="M539 1161v-938q1 -77 23 -103t91 -36l64 -10v-74q-182 8 -328 8l-313 -8v74l49 10q131 27 131 188v938q0 76 -23 103t-92 37l-63 10v74q182 -8 328 -9l313 9v-74l-49 -10q-131 -27 -131 -189zM109 1788q166 -6 299 -6l299 6v-162q-150 6 -299 6l-299 -6v162z" />
    <glyph glyph-name="imacron" unicode="&#x12b;" horiz-adv-x="675" 
d="M55 1339q158 -6 291 -6l291 6v-161q-141 6 -291 6l-291 -6v161zM471 184q0 -55 15 -78t55 -28l61 -10v-68q-127 6 -260 6l-266 -6v68l41 6q109 16 108 127v475q0 59 -31 86q-32 27 -102 26l-16 62q156 14 340 80l55 22v-768z" />
    <glyph glyph-name="Ibreve" unicode="&#x12c;" horiz-adv-x="794" 
d="M539 1161v-938q1 -77 23 -103t91 -36l64 -10v-74q-182 8 -328 8l-313 -8v74l49 10q131 27 131 188v938q0 76 -23 103t-92 37l-63 10v74q182 -8 328 -9l313 9v-74l-49 -10q-131 -27 -131 -189zM643 1876h88q0 -164 -83 -252q-84 -88 -232 -88t-235 87t-87 253h182
q0 -195 170 -195q94 1 146 51t51 144z" />
    <glyph glyph-name="ibreve" unicode="&#x12d;" horiz-adv-x="675" 
d="M578 1436h88q0 -164 -83 -252t-229 -88t-232 87t-87 253h182q0 -195 166 -195q95 1 145 51t50 144zM471 184q0 -55 15 -78t55 -28l61 -10v-68q-127 6 -260 6l-266 -6v68l41 6q109 16 108 127v475q0 59 -31 86q-32 27 -102 26l-16 62q156 14 340 80l55 22v-768z" />
    <glyph glyph-name="Iogonek" unicode="&#x12e;" horiz-adv-x="794" 
d="M815 -386q0 -42 -48 -79q-49 -37 -153 -37t-168 53q-63 53 -63 150q0 168 227 303q-127 4 -221 4l-313 -8v74l49 10q131 27 131 188v938q0 76 -23 103t-92 37l-63 10v74q182 -8 328 -9l313 9v-74l-49 -10q-131 -27 -131 -189v-938q1 -77 23 -103t91 -36l64 -10v-74
q-168 -135 -168 -258q0 -51 33 -83q32 -32 92 -32t92 41q49 -12 49 -54z" />
    <glyph glyph-name="iogonek" unicode="&#x12f;" horiz-adv-x="675" 
d="M180 1340q0 60 43 102t105 41q62 0 106 -41q43 -42 43 -102t-43 -102t-105 -42t-106 42q-43 42 -43 102zM225 676q0 59 -31 86q-32 27 -102 26l-16 62q156 14 340 80l55 22v-768q0 -55 15 -78t55 -28l61 -10v-68q-168 -135 -168 -258q0 -51 33 -83t93 -32t91 41
q49 -12 49 -54t-48 -79t-152 -37t-168 53q-63 53 -64 150q0 168 228 303l-154 2l-266 -6v68l41 6q109 16 108 127v475z" />
    <glyph glyph-name="Idotaccent" unicode="&#x130;" horiz-adv-x="794" 
d="M539 1161v-938q1 -77 23 -103t91 -36l64 -10v-74q-182 8 -328 8l-313 -8v74l49 10q131 27 131 188v938q0 76 -23 103t-92 37l-63 10v74q182 -8 328 -9l313 9v-74l-49 -10q-131 -27 -131 -189zM279 1733q0 63 46 108t109 45q62 0 108 -45t46 -108t-45 -109t-109 -47
q-64 1 -109 47q-46 46 -46 109z" />
    <glyph glyph-name="dotlessi" unicode="&#x131;" horiz-adv-x="690" 
d="M496 184q0 -55 15 -78t54 -28l62 -10v-68q-127 6 -260 6l-267 -6v68l41 6q109 16 109 127v475q0 59 -32 86t-101 26l-17 62q160 15 340 80l56 22v-768z" />
    <glyph glyph-name="IJ" unicode="&#x132;" horiz-adv-x="1574" 
d="M1319 1161v-975q0 -166 -31 -261t-93 -161t-184 -130q-122 -62 -157 -93l-45 64q16 27 83 89t93 113q51 98 51 283v1120q0 76 -22 103q-23 27 -92 37l-64 10v74q182 -8 328 -9l313 9v-74l-49 -10q-131 -27 -131 -189zM539 1161v-938q1 -77 23 -103t91 -36l64 -10v-74
q-182 8 -328 8l-313 -8v74l49 10q131 27 131 188v938q0 76 -23 103t-92 37l-63 10v74q182 -8 328 -9l313 9v-74l-49 -10q-131 -27 -131 -189z" />
    <glyph glyph-name="ij" unicode="&#x133;" horiz-adv-x="1265" 
d="M838 39v637q0 113 -133 112l-19 62q158 14 342 80l53 22v-811q-1 -285 -127 -413q-64 -64 -182 -111q-119 -47 -160 -78l-41 55q25 23 93 71t102 93q72 95 72 281zM793 1340q0 60 44 102t106 41q61 0 105 -41q44 -42 44 -102t-43 -102t-105 -42t-107 42q-44 42 -44 102z
M471 184q0 -55 15 -78t55 -28l61 -10v-68q-127 6 -260 6l-266 -6v68l41 6q109 16 108 127v475q0 59 -31 86q-32 27 -102 26l-16 62q156 14 340 80l55 22v-768zM180 1340q0 60 43 102t105 41q62 0 106 -41q43 -42 43 -102t-43 -102t-105 -42t-106 42q-43 42 -43 102z" />
    <glyph glyph-name="Jcircumflex" unicode="&#x134;" horiz-adv-x="784" 
d="M539 1161v-975q0 -166 -31 -261q-32 -95 -94 -161t-184 -130q-122 -62 -156 -93l-45 64q16 27 83 89t93 113q51 98 51 283v1120q0 76 -23 103t-92 37l-63 10v74q182 -8 328 -9l313 9v-74l-49 -10q-131 -27 -131 -189zM53 1606l361 282l350 -280q0 -33 -23 -59t-73 -25
q-90 0 -163 80t-99 176l-213 -262z" />
    <glyph glyph-name="jcircumflex" unicode="&#x135;" horiz-adv-x="634" 
d="M596 1065q-86 0 -160 103t-102 210l-207 -317l-152 84l367 356l350 -352q0 -31 -24 -57t-72 -27zM207 39v637q0 113 -133 112l-19 62q163 15 342 80l54 22v-811q1 -283 -127 -413q-64 -64 -183 -111t-159 -78l-41 55q25 23 93 71t101 93q72 95 72 281z" />
    <glyph glyph-name="Kcommaaccent" unicode="&#x136;" horiz-adv-x="1576" 
d="M866 -123q68 0 110 -46t42 -114q0 -121 -95 -201t-231 -116l-20 49q63 23 102 67t39 93q0 76 -94 123q0 63 40 104q39 41 107 41zM539 1161v-391h133l329 434q31 43 31 78q0 53 -71 68l-54 10v74q145 -8 320 -9l282 9v-74l-53 -10q-135 -27 -246 -170l-303 -385l365 -519
q145 -207 284 -206l54 6v-64q-76 -49 -221 -49q-256 0 -406 240l-229 372q-63 104 -160 105q-27 0 -55 -8v-449q1 -77 23 -103t91 -36l64 -10v-74q-182 8 -328 8l-313 -8v74l49 10q131 27 131 188v938q0 76 -23 103t-92 37l-63 10v74q182 -8 328 -9l313 9v-74l-49 -10
q-131 -27 -131 -189z" />
    <glyph glyph-name="kcommaaccent" unicode="&#x137;" horiz-adv-x="1230" 
d="M702 -123q68 0 110 -46t42 -114q0 -121 -95 -201t-231 -116l-20 49q63 23 102 67t39 93q0 76 -94 123q0 63 40 104q39 41 107 41zM469 551h80l123 174q23 33 22 57q0 55 -69 66l-43 6v68q104 -6 282 -7l281 7v-66l-72 -8q-195 -20 -289 -141l-75 -99l215 -319
q88 -133 158 -177t171 -44v-50q-87 -32 -205 -32t-200 53t-148 164l-139 227q-33 51 -92 51v-297q0 -55 16 -78t54 -28l63 -10v-68q-129 6 -260 6l-268 -6v68l43 6q49 8 79 41t29 86v1059q0 59 -31 85q-32 26 -102 25l-18 64q88 8 187 34t153 48l55 20v-985z" />
    <glyph glyph-name="kgreenlandic" unicode="&#x138;" horiz-adv-x="1230" 
d="M469 541h80l123 184q20 31 20 59q0 55 -67 64l-43 6v68q104 -6 282 -7l281 7v-66l-72 -8q-205 -20 -297 -154l-67 -96l213 -309q92 -133 162 -177t169 -44v-50q-89 -32 -205 -32t-199 55t-151 162l-137 217q-33 51 -92 51v-287q0 -55 16 -78t54 -28l63 -10v-68
q-129 6 -260 6l-268 -6v68l43 6q49 8 79 41t29 86v485q0 59 -31 85q-32 26 -102 26l-18 63q98 8 196 31t148 43l51 18v-411z" />
    <glyph glyph-name="Lacute" unicode="&#x139;" 
d="M256 272v938q0 76 -23 103t-92 37l-63 10v74q182 -8 328 -9l321 9v-74l-53 -10q-135 -27 -135 -189v-938q0 -83 48 -111t134 -28q137 0 232 95t149 249l63 -8l-47 -420q-508 8 -729 8l-313 -8v74l49 10q131 27 131 188zM586 1917q32 0 58 -29t26 -71q0 -74 -78 -146
t-178 -110l-25 22l150 328q16 6 47 6z" />
    <glyph glyph-name="lacute" unicode="&#x13a;" horiz-adv-x="643" 
d="M469 184q0 -55 16 -78t54 -28l63 -10v-68q-129 6 -260 6l-268 -6v68l43 6q49 8 79 41t29 86v1059q0 59 -31 85q-32 26 -102 25l-18 64q88 8 187 34t153 48l55 20v-1352zM404 1917q32 0 59 -29t26 -71q1 -74 -77 -146t-179 -110l-24 22l149 328q14 6 46 6z" />
    <glyph glyph-name="Lcommaaccent" unicode="&#x13b;" 
d="M623 -123q67 0 109 -46t42 -114q0 -121 -95 -201t-230 -116l-21 49q63 23 102 67t39 93q0 76 -94 123q0 63 40 104t108 41zM256 272v938q0 76 -23 103t-92 37l-63 10v74q182 -8 328 -9l321 9v-74l-53 -10q-135 -27 -135 -189v-938q0 -83 48 -111t134 -28q137 0 232 95
t149 249l63 -8l-47 -420q-508 8 -729 8l-313 -8v74l49 10q131 27 131 188z" />
    <glyph glyph-name="lcommaaccent" unicode="&#x13c;" horiz-adv-x="643" 
d="M322 -123q68 0 109 -46q42 -46 42 -114q0 -121 -95 -201t-231 -116l-20 49q63 23 102 67t39 93q0 76 -94 123q0 63 40 104t108 41zM469 184q0 -55 16 -78t54 -28l63 -10v-68q-129 6 -260 6l-268 -6v68l43 6q49 8 79 41t29 86v1059q0 59 -31 85q-32 26 -102 25l-18 64
q88 8 187 34t153 48l55 20v-1352z" />
    <glyph glyph-name="Lcaron" unicode="&#x13d;" 
d="M988 1585q68 0 112 -57q45 -57 45 -133q0 -158 -94 -271t-244 -139l-21 49q80 31 127 90t48 127q0 126 -117 187q0 63 38 105t106 42zM256 272v938q0 76 -23 103t-92 37l-63 10v74q182 -8 328 -9l321 9v-74l-53 -10q-135 -27 -135 -189v-938q0 -83 48 -111t134 -28
q137 0 232 95t149 249l63 -8l-47 -420q-508 8 -729 8l-313 -8v74l49 10q131 27 131 188z" />
    <glyph glyph-name="lcaron" unicode="&#x13e;" horiz-adv-x="714" 
d="M776 1585q68 0 113 -57t45 -133q0 -158 -94 -271t-244 -139l-21 49q80 31 127 90t48 127q0 126 -117 187q0 63 38 105q37 42 105 42zM469 184q0 -55 16 -78t54 -28l63 -10v-68q-129 6 -260 6l-268 -6v68l43 6q49 8 79 41t29 86v1059q0 59 -31 85q-32 26 -102 25l-18 64
q88 8 187 34t153 48l55 20v-1352z" />
    <glyph glyph-name="Ldot" unicode="&#x13f;" 
d="M768 788q0 60 42 104t104 44t106 -43t43 -105q0 -62 -43 -104q-44 -43 -106 -43t-104 43t-42 104zM256 272v938q0 76 -23 103t-92 37l-63 10v74q182 -8 328 -9l321 9v-74l-53 -10q-135 -27 -135 -189v-938q0 -83 48 -111t134 -28q137 0 232 95t149 249l63 -8l-47 -420
q-508 8 -729 8l-313 -8v74l49 10q131 27 131 188z" />
    <glyph glyph-name="ldot" unicode="&#x140;" horiz-adv-x="899" 
d="M547 748q0 61 42 104t104 43q61 0 105 -43t44 -104q0 -60 -43 -104t-105 -44t-105 44q-42 44 -42 104zM469 184q0 -55 16 -78t54 -28l63 -10v-68q-129 6 -260 6l-268 -6v68l43 6q49 8 79 41t29 86v1059q0 59 -31 85q-32 26 -102 25l-18 64q88 8 187 34t153 48l55 20
v-1352z" />
    <glyph glyph-name="Lslash" unicode="&#x141;" 
d="M256 272v326l-133 -78l-66 117q102 59 199 113v460q0 76 -23 103t-92 37l-63 10v74q182 -8 328 -9l321 9v-74l-53 -10q-135 -27 -135 -189v-250l272 158l66 -125q-252 -135 -338 -182v-539q0 -83 48 -111t134 -28q137 0 232 95t149 249l63 -8l-47 -420q-508 8 -729 8
l-313 -8v74l49 10q131 27 131 188z" />
    <glyph glyph-name="lslash" unicode="&#x142;" horiz-adv-x="643" 
d="M469 184q0 -55 16 -78t54 -28l63 -10v-68q-129 6 -260 6l-268 -6v68l43 6q49 8 79 41t29 86v438l-108 -66l-66 107q74 37 174 90v490q0 59 -31 85q-32 26 -102 25l-18 64q88 8 187 34t153 48l55 20v-627l199 125l61 -110q-129 -68 -260 -144v-596z" />
    <glyph glyph-name="Nacute" unicode="&#x143;" horiz-adv-x="1644" 
d="M1450 1147v-1155l-104 -12l-981 1058v-764q0 -102 41 -138t143 -52l59 -10v-74q-166 8 -284 8l-281 -8v74l45 10q76 16 107 58t30 128v940q0 70 -24 100q-25 30 -95 40l-61 10v74q201 -10 428 -11q16 -96 121 -209l723 -776v746q0 86 -39 118t-131 48l-70 10v74
q179 -9 320 -9l225 9v-74l-43 -10q-69 -16 -99 -60t-30 -143zM982 1917q32 0 58 -29t27 -71q0 -74 -78 -146t-178 -110l-25 22l150 328q14 6 46 6z" />
    <glyph glyph-name="nacute" unicode="&#x144;" horiz-adv-x="1232" 
d="M877 1509q34 -1 63 -29t29 -69q0 -105 -108 -209t-214 -151l-26 26l208 426q14 6 48 6zM1059 682v-498q0 -55 16 -78t53 -28l64 -10v-68q-129 6 -260 6l-246 -6v68l27 6q100 18 100 127v444q0 154 -151 154q-43 0 -117 -37t-96 -39v-539q0 -55 16 -78t53 -28l64 -10v-68
q-129 6 -260 6l-269 -6v68l43 6q49 8 79 41t30 86v475q0 113 -133 112l-19 62q169 15 340 80l56 22v-149q31 10 85 49q143 104 265 103q121 -1 191 -75t69 -198z" />
    <glyph glyph-name="Ncommaaccent" unicode="&#x145;" horiz-adv-x="1644" 
d="M864 -123q68 0 110 -46t42 -114q0 -121 -95 -201t-231 -116l-20 49q63 23 102 67t39 93q0 76 -94 123q0 63 40 104q39 41 107 41zM1450 1147v-1155l-104 -12l-981 1058v-764q0 -102 41 -138t143 -52l59 -10v-74q-166 8 -284 8l-281 -8v74l45 10q76 16 107 58t30 128v940
q0 70 -24 100q-25 30 -95 40l-61 10v74q201 -10 428 -11q16 -96 121 -209l723 -776v746q0 86 -39 118t-131 48l-70 10v74q179 -9 320 -9l225 9v-74l-43 -10q-69 -16 -99 -60t-30 -143z" />
    <glyph glyph-name="ncommaaccent" unicode="&#x146;" horiz-adv-x="1232" 
d="M635 -123q67 0 109 -46t42 -114q0 -121 -95 -201t-230 -116l-21 49q63 23 103 67q39 44 39 93q-1 76 -95 123q0 63 40 104t108 41zM1059 682v-498q0 -55 16 -78t53 -28l64 -10v-68q-129 6 -260 6l-246 -6v68l27 6q100 18 100 127v444q0 154 -151 154q-43 0 -117 -37
t-96 -39v-539q0 -55 16 -78t53 -28l64 -10v-68q-129 6 -260 6l-269 -6v68l43 6q49 8 79 41t30 86v475q0 113 -133 112l-19 62q169 15 340 80l56 22v-149q31 10 85 49q143 104 265 103q121 -1 191 -75t69 -198z" />
    <glyph glyph-name="Ncaron" unicode="&#x147;" horiz-adv-x="1644" 
d="M1450 1147v-1155l-104 -12l-981 1058v-764q0 -102 41 -138t143 -52l59 -10v-74q-166 8 -284 8l-281 -8v74l45 10q76 16 107 58t30 128v940q0 70 -24 100q-25 30 -95 40l-61 10v74q201 -10 428 -11q16 -96 121 -209l723 -776v746q0 86 -39 118t-131 48l-70 10v74
q179 -9 320 -9l225 9v-74l-43 -10q-69 -16 -99 -60t-30 -143zM1122 1882q51 0 74 -26t23 -58l-351 -280l-360 282l139 88l213 -262q27 96 99 176q73 80 163 80z" />
    <glyph glyph-name="ncaron" unicode="&#x148;" horiz-adv-x="1232" 
d="M948 1511q47 -1 72 -27t24 -57l-350 -352l-366 357l151 84l207 -318q29 106 102 210q74 103 160 103zM1059 682v-498q0 -55 16 -78t53 -28l64 -10v-68q-129 6 -260 6l-246 -6v68l27 6q100 18 100 127v444q0 154 -151 154q-43 0 -117 -37t-96 -39v-539q0 -55 16 -78
t53 -28l64 -10v-68q-129 6 -260 6l-269 -6v68l43 6q49 8 79 41t30 86v475q0 113 -133 112l-19 62q169 15 340 80l56 22v-149q31 10 85 49q143 104 265 103q121 -1 191 -75t69 -198z" />
    <glyph glyph-name="napostrophe" unicode="&#x149;" horiz-adv-x="1232" 
d="M164 1550q68 0 110 -46t41 -113q0 -121 -95 -202t-230 -116l-21 49q63 23 103 67q39 44 39 93q-1 76 -95 123q0 63 40 104t108 41zM1059 682v-498q0 -55 16 -78t53 -28l64 -10v-68q-129 6 -260 6l-246 -6v68l27 6q100 18 100 127v444q0 154 -151 154q-43 0 -117 -37
t-96 -39v-539q0 -55 16 -78t53 -28l64 -10v-68q-129 6 -260 6l-269 -6v68l43 6q49 8 79 41t30 86v475q0 113 -133 112l-19 62q169 15 340 80l56 22v-149q31 10 85 49q143 104 265 103q121 -1 191 -75t69 -198z" />
    <glyph glyph-name="Eng" unicode="&#x14a;" horiz-adv-x="1644" 
d="M1450 1147v-961q0 -166 -31 -261t-93 -161t-184 -130q-122 -62 -157 -93l-45 64q16 27 88 89t98 113q51 98 52 283v72l-813 876v-764q0 -102 41 -138t143 -52l59 -10v-74q-166 8 -284 8l-281 -8v74l45 10q76 16 107 58t30 128v940q0 70 -24 100q-25 30 -95 40l-61 10v74
q201 -10 428 -11q16 -96 121 -209l723 -776v746q0 86 -39 118t-131 48l-70 10v74q179 -9 320 -9l225 9v-74l-43 -10q-69 -16 -99 -60t-30 -143z" />
    <glyph glyph-name="eng" unicode="&#x14b;" horiz-adv-x="1222" 
d="M815 39v606q0 154 -153 154q-43 0 -117 -37t-96 -39v-539q0 -55 16 -78t53 -28l64 -10v-68q-129 6 -260 6l-269 -6v68l43 6q49 8 79 41t30 86v475q0 113 -133 112l-19 62q169 15 340 80l56 22v-149q31 10 85 49q143 104 265 103q121 -1 191 -75t69 -198v-545
q0 -147 -32 -245t-105 -175q-53 -53 -172 -100t-160 -78l-41 55q25 23 93 71t101 93q72 95 72 281z" />
    <glyph glyph-name="Omacron" unicode="&#x14c;" horiz-adv-x="1646" 
d="M870 1462q305 0 511 -194t206 -512q0 -319 -208 -548q-99 -110 -256 -176t-347 -65q-305 0 -511 194t-206 519q0 152 55 292q117 304 409 425q157 65 347 65zM866 70q147 0 244 86q96 86 134 218t38 312q0 299 -143 486t-359 188q-147 0 -243 -86q-97 -86 -135 -218
t-37 -313q0 -299 143 -486t358 -187zM551 1788q166 -6 299 -6l299 6v-162q-150 6 -299 6l-299 -6v162z" />
    <glyph glyph-name="omacron" unicode="&#x14d;" horiz-adv-x="1138" 
d="M303 1339q158 -6 291 -6l291 6v-161q-141 6 -291 6l-291 -6v161zM1087 481q0 -213 -148 -363q-147 -150 -381 -151q-234 0 -371 130q-136 130 -136 343t150 364t401 150q215 0 350 -130t135 -343zM322 478q0 -156 76 -284t191 -128q114 0 172 110t58 268q1 156 -77 284
t-191 128t-171 -111t-58 -267z" />
    <glyph glyph-name="Obreve" unicode="&#x14e;" horiz-adv-x="1646" 
d="M870 1462q305 0 511 -194t206 -512q0 -319 -208 -548q-99 -110 -256 -176t-347 -65q-305 0 -511 194t-206 519q0 152 55 292q117 304 409 425q157 65 347 65zM866 70q147 0 244 86q96 86 134 218t38 312q0 299 -143 486t-359 188q-147 0 -243 -86q-97 -86 -135 -218
t-37 -313q0 -299 143 -486t358 -187zM1065 1876h88q0 -164 -83 -252q-84 -88 -232 -88t-235 87t-87 253h182q0 -195 170 -195q94 1 146 51t51 144z" />
    <glyph glyph-name="obreve" unicode="&#x14f;" horiz-adv-x="1138" 
d="M844 1436h88q0 -164 -83 -252t-229 -88t-232 87q-87 87 -87 253h182q0 -195 166 -195q94 0 145 50q50 51 50 145zM1087 481q0 -213 -148 -363q-147 -150 -381 -151q-234 0 -371 130q-136 130 -136 343t150 364t401 150q215 0 350 -130t135 -343zM322 478q0 -156 76 -284
t191 -128q114 0 172 110t58 268q1 156 -77 284t-191 128t-171 -111t-58 -267z" />
    <glyph glyph-name="Ohungarumlaut" unicode="&#x150;" horiz-adv-x="1646" 
d="M870 1462q305 0 511 -194t206 -512q0 -319 -208 -548q-99 -110 -256 -176t-347 -65q-305 0 -511 194t-206 519q0 152 55 292q117 304 409 425q157 65 347 65zM866 70q147 0 244 86q96 86 134 218t38 312q0 299 -143 486t-359 188q-147 0 -243 -86q-97 -86 -135 -218
t-37 -313q0 -299 143 -486t358 -187zM1141 1917q31 0 57 -29t27 -71q0 -74 -78 -146t-178 -110l-25 22l150 328q16 6 47 6zM866 1917q31 0 58 -29t26 -71q0 -74 -78 -146t-178 -110l-24 22l149 328q16 6 47 6z" />
    <glyph glyph-name="ohungarumlaut" unicode="&#x151;" horiz-adv-x="1138" 
d="M992 1509q34 -1 63 -29t28 -69q0 -106 -107 -210q-108 -103 -214 -150l-27 26l209 426q14 6 48 6zM663 1509q33 -1 62 -29t29 -69q0 -105 -108 -209t-214 -151l-26 26l208 426q16 6 49 6zM1087 481q0 -213 -148 -363q-147 -150 -381 -151q-234 0 -371 130
q-136 130 -136 343t150 364t401 150q215 0 350 -130t135 -343zM322 478q0 -156 76 -284t191 -128q114 0 172 110t58 268q1 156 -77 284t-191 128t-171 -111t-58 -267z" />
    <glyph glyph-name="OE" unicode="&#x152;" horiz-adv-x="1961" 
d="M1024 244v932q0 94 -71 139t-179 45t-190 -48t-128 -134q-93 -174 -92 -454t143 -467t357 -187q160 0 160 174zM1847 1098h-67q-16 116 -104 184t-242 68q-90 0 -127 -13v-557h131q154 0 176 146l14 94h74q-8 -133 -8 -262l8 -242h-76l-12 51q-25 104 -150 105h-157v-455
q0 -133 166 -133q135 0 226 84t138 221l68 -8l-68 -381q-449 8 -599 8t-189 -2q-129 -39 -275 -39q-301 0 -508 195t-207 518q0 152 55 292q117 304 409 425q157 65 315 65t270 -37l739 9v-336z" />
    <glyph glyph-name="oe" unicode="&#x153;" horiz-adv-x="1765" 
d="M1487 686q0 176 -148 176q-89 0 -153 -64t-84 -167l383 22q2 10 2 33zM322 478q0 -156 76 -284t191 -128q114 0 172 110t58 268q1 156 -77 284t-191 128t-171 -111t-58 -267zM1440 121q113 0 231 37l29 -54q-84 -72 -176 -104t-228 -33q-229 0 -354 158
q-152 -158 -385 -158t-370 130q-136 130 -136 343t150 364q151 150 397 150t381 -166q156 166 395 166q174 0 262 -96t88 -258l-47 -57l-585 8q-4 -35 -5 -72q-1 -152 87 -255t266 -103z" />
    <glyph glyph-name="Racute" unicode="&#x154;" horiz-adv-x="1431" 
d="M539 1337v-632q49 33 117 33t98 -13l12 -2q59 41 105 129q47 88 47 213t-88 205t-207 80q-47 -1 -84 -13zM539 223q1 -77 23 -103t91 -36l64 -10v-74q-182 8 -328 8l-313 -8v74l49 10q131 27 131 188v938q0 76 -23 103t-92 37l-63 10v74q182 -8 328 -9l303 9
q243 0 373 -112t130 -257q0 -96 -38 -173t-100 -120q-113 -81 -202 -100q78 -37 156 -164l154 -250q131 -209 321 -209v-59q-66 -23 -194 -23q-289 0 -424 271l-142 278q-60 119 -129 119q-33 0 -75 -14v-398zM849 1917q33 0 59 -29t26 -71q0 -74 -78 -146t-178 -110l-25 22
l150 328q14 6 46 6z" />
    <glyph glyph-name="racute" unicode="&#x155;" horiz-adv-x="901" 
d="M774 1509q33 -1 62 -29t28 -69q0 -106 -107 -210q-108 -103 -214 -150l-27 26l209 426q16 6 49 6zM885 804q0 -66 -39 -98q-38 -34 -96 -34t-93 24q6 16 7 39q0 57 -56 58q-33 0 -87 -32t-70 -36v-541q-1 -55 21 -79t71 -27l102 -10v-68q-139 6 -323 6l-275 -6v68l37 6
q53 10 87 43t34 84v475q0 59 -32 86t-101 26l-17 62q160 15 340 80l56 22v-151q18 6 66 45q135 110 212 109q78 -1 117 -43t39 -108z" />
    <glyph glyph-name="Rcommaaccent" unicode="&#x156;" horiz-adv-x="1431" 
d="M793 -123q67 0 109 -46t42 -114q0 -121 -95 -201t-231 -116l-20 49q63 23 102 67t39 93q0 76 -94 123q0 63 40 104t108 41zM539 1337v-632q49 33 117 33t98 -13l12 -2q59 41 105 129q47 88 47 213t-88 205t-207 80q-47 -1 -84 -13zM539 223q1 -77 23 -103t91 -36l64 -10
v-74q-182 8 -328 8l-313 -8v74l49 10q131 27 131 188v938q0 76 -23 103t-92 37l-63 10v74q182 -8 328 -9l303 9q243 0 373 -112t130 -257q0 -96 -38 -173t-100 -120q-113 -81 -202 -100q78 -37 156 -164l154 -250q131 -209 321 -209v-59q-66 -23 -194 -23q-289 0 -424 271
l-142 278q-60 119 -129 119q-33 0 -75 -14v-398z" />
    <glyph glyph-name="rcommaaccent" unicode="&#x157;" horiz-adv-x="901" 
d="M358 -123q68 0 110 -46t42 -114q0 -121 -95 -201t-231 -116l-20 49q63 23 102 67t39 93q0 76 -94 123q0 63 40 104q39 41 107 41zM885 804q0 -66 -39 -98q-38 -34 -96 -34t-93 24q6 16 7 39q0 57 -56 58q-33 0 -87 -32t-70 -36v-541q-1 -55 21 -79t71 -27l102 -10v-68
q-139 6 -323 6l-275 -6v68l37 6q53 10 87 43t34 84v475q0 59 -32 86t-101 26l-17 62q160 15 340 80l56 22v-151q18 6 66 45q135 110 212 109q78 -1 117 -43t39 -108z" />
    <glyph glyph-name="Rcaron" unicode="&#x158;" horiz-adv-x="1431" 
d="M539 1337v-632q49 33 117 33t98 -13l12 -2q59 41 105 129q47 88 47 213t-88 205t-207 80q-47 -1 -84 -13zM539 223q1 -77 23 -103t91 -36l64 -10v-74q-182 8 -328 8l-313 -8v74l49 10q131 27 131 188v938q0 76 -23 103t-92 37l-63 10v74q182 -8 328 -9l303 9
q243 0 373 -112t130 -257q0 -96 -38 -173t-100 -120q-113 -81 -202 -100q78 -37 156 -164l154 -250q131 -209 321 -209v-59q-66 -23 -194 -23q-289 0 -424 271l-142 278q-60 119 -129 119q-33 0 -75 -14v-398zM954 1882q51 0 74 -26t23 -58l-351 -280l-360 282l139 88
l213 -262q27 96 100 176t162 80z" />
    <glyph glyph-name="rcaron" unicode="&#x159;" horiz-adv-x="901" 
d="M813 1511q47 -1 72 -27t24 -57l-350 -352l-366 357l151 84l207 -318q29 106 102 210q74 103 160 103zM885 804q0 -66 -39 -98q-38 -34 -96 -34t-93 24q6 16 7 39q0 57 -56 58q-33 0 -87 -32t-70 -36v-541q-1 -55 21 -79t71 -27l102 -10v-68q-139 6 -323 6l-275 -6v68
l37 6q53 10 87 43t34 84v475q0 59 -32 86t-101 26l-17 62q160 15 340 80l56 22v-151q18 6 66 45q135 110 212 109q78 -1 117 -43t39 -108z" />
    <glyph glyph-name="Sacute" unicode="&#x15a;" horiz-adv-x="1064" 
d="M560 1358q-112 0 -172 -55t-60 -137t68 -152t165 -127q95 -57 193 -122t167 -162t68 -218q0 -186 -121 -302t-366 -116q-90 0 -228 33t-200 33v377h67q37 -338 348 -338q119 0 188 60t69 154q-1 165 -228 301q-94 57 -188 119t-161 160t-67 226q0 168 128 269t335 101
q65 0 193 -22t196 -21l-20 -354h-68q-14 141 -104 217t-202 76zM734 1917q32 0 59 -29t26 -71q0 -74 -78 -146t-178 -110l-24 22l149 328q14 6 46 6z" />
    <glyph glyph-name="sacute" unicode="&#x15b;" horiz-adv-x="831" 
d="M663 1509q33 -1 62 -29t29 -69q0 -105 -108 -209t-214 -151l-26 26l208 426q16 6 49 6zM459 954q81 0 155 -18t123 -18l-14 -267h-70q-4 91 -56 149t-132 58t-116 -34t-36 -86q0 -92 162 -161q69 -30 137 -67q68 -36 115 -102t47 -156q0 -141 -112 -213t-279 -72
q-61 0 -157 22t-134 21l-10 285h72q8 -115 71 -173t153 -58t138 36q47 37 47 95q0 59 -47 105t-114 77q-68 31 -134 65t-112 94q-46 62 -47 150q0 120 95 194t255 74z" />
    <glyph glyph-name="Scircumflex" unicode="&#x15c;" horiz-adv-x="1064" 
d="M560 1358q-112 0 -172 -55t-60 -137t68 -152t165 -127q95 -57 193 -122t167 -162t68 -218q0 -186 -121 -302t-366 -116q-90 0 -228 33t-200 33v377h67q37 -338 348 -338q119 0 188 60t69 154q-1 165 -228 301q-94 57 -188 119t-161 160t-67 226q0 168 128 269t335 101
q65 0 193 -22t196 -21l-20 -354h-68q-14 141 -104 217t-202 76zM238 1606l360 282l350 -280q0 -33 -22 -59t-74 -25q-90 0 -163 80t-99 176l-213 -262z" />
    <glyph glyph-name="scircumflex" unicode="&#x15d;" horiz-adv-x="831" 
d="M737 1065q-85 0 -159 103t-103 210l-207 -317l-151 84l366 356l351 -352q0 -31 -25 -57t-72 -27zM459 954q81 0 155 -18t123 -18l-14 -267h-70q-4 91 -56 149t-132 58t-116 -34t-36 -86q0 -92 162 -161q69 -30 137 -67q68 -36 115 -102t47 -156q0 -141 -112 -213
t-279 -72q-61 0 -157 22t-134 21l-10 285h72q8 -115 71 -173t153 -58t138 36q47 37 47 95q0 59 -47 105t-114 77q-68 31 -134 65t-112 94q-46 62 -47 150q0 120 95 194t255 74z" />
    <glyph glyph-name="Scedilla" unicode="&#x15e;" horiz-adv-x="1064" 
d="M560 1358q-112 0 -172 -55t-60 -137t68 -152t165 -127q95 -57 193 -122t167 -162t68 -218q1 -182 -113 -296t-344 -122q-18 -18 -18 -48q0 -50 86 -96q34 -17 60 -53t26 -85q0 -72 -74 -120t-166 -48q-92 1 -144 31t-52 74t24 68q25 24 59 24t52 -13q-16 -23 -16 -47
t20 -44q19 -20 61 -20t66 16t25 43q0 27 -37 53t-75 62t-38 98q0 61 64 107q-72 4 -196 34t-185 30v377h67q37 -338 348 -338q119 0 188 60t69 154q-1 165 -228 301q-94 57 -188 119t-161 160t-67 226q0 168 128 269t335 101q65 0 193 -22t196 -21l-20 -354h-68
q-14 141 -104 217t-202 76z" />
    <glyph glyph-name="scedilla" unicode="&#x15f;" horiz-adv-x="831" 
d="M459 954q81 0 155 -18t123 -18l-14 -267h-70q-4 91 -56 149t-132 58t-116 -34t-36 -86q0 -92 162 -161q69 -30 137 -67q68 -36 115 -102t47 -156q0 -131 -98 -203t-250 -80q-18 -23 -18 -49t26 -52q26 -24 60 -42t60 -55t26 -86q0 -72 -74 -120t-166 -48q-92 1 -144 31
t-52 74t24 68t58 24t53 -13q-37 -54 4 -91q20 -20 61 -20t66 16q24 16 24 43q0 29 -37 55t-75 64t-37 100q0 62 61 101q-49 1 -133 21t-121 20l-10 285h72q8 -115 71 -173t153 -58t138 36q47 37 47 95q0 59 -47 105t-114 77q-68 31 -134 65t-112 94q-46 62 -47 150
q0 120 95 194t255 74z" />
    <glyph glyph-name="Scaron" unicode="&#x160;" horiz-adv-x="1064" 
d="M560 1358q-112 0 -172 -55t-60 -137t68 -152t165 -127q95 -57 193 -122t167 -162t68 -218q0 -186 -121 -302t-366 -116q-90 0 -228 33t-200 33v377h67q37 -338 348 -338q119 0 188 60t69 154q-1 165 -228 301q-94 57 -188 119t-161 160t-67 226q0 168 128 269t335 101
q65 0 193 -22t196 -21l-20 -354h-68q-14 141 -104 217t-202 76zM866 1882q51 0 74 -26t23 -58l-351 -280l-360 282l139 88l213 -262q27 96 99 176q73 80 163 80z" />
    <glyph glyph-name="scaron" unicode="&#x161;" horiz-adv-x="831" 
d="M727 1511q47 -1 72 -27t24 -57l-350 -352l-367 357l152 84l207 -318q29 106 102 210q74 103 160 103zM459 954q81 0 155 -18t123 -18l-14 -267h-70q-4 91 -56 149t-132 58t-116 -34t-36 -86q0 -92 162 -161q69 -30 137 -67q68 -36 115 -102t47 -156q0 -141 -112 -213
t-279 -72q-61 0 -157 22t-134 21l-10 285h72q8 -115 71 -173t153 -58t138 36q47 37 47 95q0 59 -47 105t-114 77q-68 31 -134 65t-112 94q-46 62 -47 150q0 120 95 194t255 74z" />
    <glyph glyph-name="Tcommaaccent" unicode="&#x162;" horiz-adv-x="1368" 
d="M709 -123q67 0 109 -46t42 -114q0 -121 -95 -201t-230 -116l-21 49q63 23 102 67t39 93q0 76 -94 123q0 63 40 104t108 41zM825 1327v-1104q0 -77 23 -103t92 -36l64 -10v-74q-182 8 -328 8l-314 -8v74l50 10q131 27 131 188v1055h-148q-215 0 -282 -190l-60 10l25 319
h47q18 -33 84 -32h981q59 0 78 32h47l-23 -329l-59 10q0 180 -246 180h-162z" />
    <glyph glyph-name="Tcommaaccent" unicode="&#x21a;" horiz-adv-x="1368" 
d="M709 -123q67 0 109 -46t42 -114q0 -121 -95 -201t-230 -116l-21 49q63 23 102 67t39 93q0 76 -94 123q0 63 40 104t108 41zM825 1327v-1104q0 -77 23 -103t92 -36l64 -10v-74q-182 8 -328 8l-314 -8v74l50 10q131 27 131 188v1055h-148q-215 0 -282 -190l-60 10l25 319
h47q18 -33 84 -32h981q59 0 78 32h47l-23 -329l-59 10q0 180 -246 180h-162z" />
    <glyph glyph-name="tcommaaccent" unicode="&#x163;" horiz-adv-x="776" 
d="M426 -123q68 0 110 -46t42 -114q0 -121 -96 -201t-230 -116l-21 49q63 23 103 67q39 44 39 93q0 76 -94 123q0 63 39 104q40 41 108 41zM553 111q94 0 164 20l22 8l17 -59q-143 -113 -332 -113q-116 0 -184 67t-68 187v588h-133l-8 61q90 35 178 112t145 157l64 -19v-198
h291v-125h-291v-557q0 -129 135 -129z" />
    <glyph glyph-name="tcommaaccent" unicode="&#x21b;" horiz-adv-x="776" 
d="M426 -123q68 0 110 -46t42 -114q0 -121 -96 -201t-230 -116l-21 49q63 23 103 67q39 44 39 93q0 76 -94 123q0 63 39 104q40 41 108 41zM553 111q94 0 164 20l22 8l17 -59q-143 -113 -332 -113q-116 0 -184 67t-68 187v588h-133l-8 61q90 35 178 112t145 157l64 -19v-198
h291v-125h-291v-557q0 -129 135 -129z" />
    <glyph glyph-name="Tcaron" unicode="&#x164;" horiz-adv-x="1368" 
d="M825 1327v-1104q0 -77 23 -103t92 -36l64 -10v-74q-182 8 -328 8l-314 -8v74l50 10q131 27 131 188v1055h-148q-215 0 -282 -190l-60 10l25 319h47q18 -33 84 -32h981q59 0 78 32h47l-23 -329l-59 10q0 180 -246 180h-162zM940 1874q41 0 64 -18t24 -39l-330 -279
l-327 268l112 72l215 -246q32 92 94 167t148 75z" />
    <glyph glyph-name="tcaron" unicode="&#x165;" horiz-adv-x="776" 
d="M553 111q94 0 164 20l22 8l17 -59q-143 -113 -332 -113q-116 0 -184 67t-68 187v588h-133l-8 61q90 35 178 112t145 157l64 -19v-198h291v-125h-291v-557q0 -129 135 -129zM782 1585q70 0 112 -51t42 -127q0 -139 -95 -248t-243 -135l-20 49q78 31 120 88t43 121
q0 107 -106 156q0 63 38 105q39 42 109 42z" />
    <glyph glyph-name="Tbar" unicode="&#x166;" horiz-adv-x="1368" 
d="M825 1327v-426l226 6v-141q-111 2 -226 4v-547q0 -77 23 -103t92 -36l64 -10v-74q-182 8 -328 8l-314 -8v74l50 10q131 27 131 188v498l-209 -4v141q102 -4 209 -6v426h-148q-215 0 -282 -190l-60 10l25 319h47q18 -33 84 -32h981q59 0 78 32h47l-23 -329l-59 10
q0 180 -246 180h-162z" />
    <glyph glyph-name="tbar" unicode="&#x167;" horiz-adv-x="776" 
d="M553 111q94 0 164 20l22 8l17 -59q-143 -113 -332 -113q-116 0 -184 67t-68 187v287l-141 -4v133q63 -4 141 -6v178h-133l-8 61q90 35 178 112t145 157l64 -19v-198h291v-125h-291v-166l266 6v-133q-147 4 -266 6v-270q0 -129 135 -129z" />
    <glyph glyph-name="Utilde" unicode="&#x168;" horiz-adv-x="1597" 
d="M256 479v731q0 76 -23 103t-92 37l-63 10v74q182 -8 328 -9l313 9v-74l-49 -10q-131 -27 -131 -189v-688q0 -186 86 -275t266 -89q354 0 354 364v737q0 74 -27 101q-28 27 -102 39l-65 10v74q96 -8 260 -9l250 9v-74l-50 -10q-129 -27 -129 -189v-682q0 -233 -134 -373
t-412 -139q-278 0 -428 128q-152 128 -152 384zM729 1679q-92 0 -133 -100l-51 41q14 96 64 156q51 60 129 61q78 0 174 -49t143 -49q92 0 133 100l51 -43q-16 -94 -65 -154t-124 -61q-74 0 -172 49t-149 49z" />
    <glyph glyph-name="utilde" unicode="&#x169;" horiz-adv-x="1198" 
d="M449 1247q-92 0 -134 -100l-51 41q14 96 64 156t129 61q78 0 175 -49t142 -49q92 0 133 100l51 -43q-16 -94 -65 -154t-123 -61q-74 0 -172 49t-149 49zM1024 242q0 -111 133 -111l17 -61q-88 -8 -184 -34t-146 -48l-53 -21l-11 150q-29 -6 -82 -45q-143 -105 -264 -105
q-120 0 -190 74t-70 199v485q0 59 -30 87t-101 28v67l358 33l19 -18v-646q0 -154 162 -153q48 0 116 37t82 39v512q0 63 -27 96q-28 33 -106 33v67l361 33l16 -18v-680z" />
    <glyph glyph-name="Umacron" unicode="&#x16a;" horiz-adv-x="1597" 
d="M256 479v731q0 76 -23 103t-92 37l-63 10v74q182 -8 328 -9l313 9v-74l-49 -10q-131 -27 -131 -189v-688q0 -186 86 -275t266 -89q354 0 354 364v737q0 74 -27 101q-28 27 -102 39l-65 10v74q96 -8 260 -9l250 9v-74l-50 -10q-129 -27 -129 -189v-682q0 -233 -134 -373
t-412 -139q-278 0 -428 128q-152 128 -152 384zM592 1788q166 -6 299 -6l299 6v-162q-150 6 -299 6l-299 -6v162z" />
    <glyph glyph-name="umacron" unicode="&#x16b;" horiz-adv-x="1196" 
d="M326 1339q158 -6 290 -6l291 6v-161q-141 6 -291 6l-290 -6v161zM1024 242q0 -111 133 -111l17 -61q-88 -8 -184 -34t-146 -48l-53 -21l-11 150q-29 -6 -82 -45q-143 -105 -264 -105q-120 0 -190 74t-70 199v485q0 59 -30 87t-101 28v67l358 33l19 -18v-646
q0 -154 162 -153q48 0 116 37t82 39v512q0 63 -27 96q-28 33 -106 33v67l361 33l16 -18v-680z" />
    <glyph glyph-name="Ubreve" unicode="&#x16c;" horiz-adv-x="1597" 
d="M256 479v731q0 76 -23 103t-92 37l-63 10v74q182 -8 328 -9l313 9v-74l-49 -10q-131 -27 -131 -189v-688q0 -186 86 -275t266 -89q354 0 354 364v737q0 74 -27 101q-28 27 -102 39l-65 10v74q96 -8 260 -9l250 9v-74l-50 -10q-129 -27 -129 -189v-682q0 -233 -134 -373
t-412 -139q-278 0 -428 128q-152 128 -152 384zM1120 1876h88q0 -164 -83 -252t-231 -88t-236 87q-87 87 -87 253h183q0 -195 170 -195q94 1 145 51t51 144z" />
    <glyph glyph-name="ubreve" unicode="&#x16d;" horiz-adv-x="1198" 
d="M844 1436h88q0 -164 -83 -252t-229 -88t-232 87q-87 87 -87 253h182q0 -195 166 -195q94 0 145 50q50 51 50 145zM1024 242q0 -111 133 -111l17 -61q-88 -8 -184 -34t-146 -48l-53 -21l-11 150q-29 -6 -82 -45q-143 -105 -264 -105q-120 0 -190 74t-70 199v485
q0 59 -30 87t-101 28v67l358 33l19 -18v-646q0 -154 162 -153q48 0 116 37t82 39v512q0 63 -27 96q-28 33 -106 33v67l361 33l16 -18v-680z" />
    <glyph glyph-name="Uring" unicode="&#x16e;" horiz-adv-x="1597" 
d="M256 479v731q0 76 -23 103t-92 37l-63 10v74q182 -8 328 -9l313 9v-74l-49 -10q-131 -27 -131 -189v-688q0 -186 86 -275t266 -89q354 0 354 364v737q0 74 -27 101q-28 27 -102 39l-65 10v74q96 -8 260 -9l250 9v-74l-50 -10q-129 -27 -129 -189v-682q0 -233 -134 -373
t-412 -139q-278 0 -428 128q-152 128 -152 384zM930 1958q102 0 162 -54t61 -146q-1 -92 -65 -159q-64 -65 -166 -65t-161 55q-61 55 -61 147t64 156q64 66 166 66zM936 1614q100 0 100 127q0 63 -34 100t-84 37q-100 0 -101 -127q0 -63 34 -100t85 -37z" />
    <glyph glyph-name="uring" unicode="&#x16f;" horiz-adv-x="1198" 
d="M632 1524q102 0 162 -54t60 -147q0 -92 -64 -158q-64 -65 -166 -65t-162 55t-60 147t64 156q64 66 166 66zM637 1180q100 0 100 127q0 63 -34 100t-85 37q-100 0 -100 -127q0 -63 34 -100t85 -37zM1024 242q0 -111 133 -111l17 -61q-88 -8 -184 -34t-146 -48l-53 -21
l-11 150q-29 -6 -82 -45q-143 -105 -264 -105q-120 0 -190 74t-70 199v485q0 59 -30 87t-101 28v67l358 33l19 -18v-646q0 -154 162 -153q48 0 116 37t82 39v512q0 63 -27 96q-28 33 -106 33v67l361 33l16 -18v-680z" />
    <glyph glyph-name="Uhungarumlaut" unicode="&#x170;" horiz-adv-x="1597" 
d="M256 479v731q0 76 -23 103t-92 37l-63 10v74q182 -8 328 -9l313 9v-74l-49 -10q-131 -27 -131 -189v-688q0 -186 86 -275t266 -89q354 0 354 364v737q0 74 -27 101q-28 27 -102 39l-65 10v74q96 -8 260 -9l250 9v-74l-50 -10q-129 -27 -129 -189v-682q0 -233 -134 -373
t-412 -139q-278 0 -428 128q-152 128 -152 384zM1180 1917q30 0 57 -29t27 -71q0 -74 -78 -146t-178 -110l-25 22l150 328q17 6 47 6zM905 1917q31 0 58 -29t26 -71q0 -74 -78 -146t-178 -110l-24 22l149 328q16 6 47 6z" />
    <glyph glyph-name="uhungarumlaut" unicode="&#x171;" horiz-adv-x="1198" 
d="M974 1509q34 -1 62 -29t29 -69q0 -105 -108 -209t-214 -151l-26 26l209 426q14 6 48 6zM644 1509q34 -1 63 -29t28 -69q0 -106 -107 -210q-108 -103 -214 -150l-27 26l209 426q14 6 48 6zM1024 242q0 -111 133 -111l17 -61q-88 -8 -184 -34t-146 -48l-53 -21l-11 150
q-29 -6 -82 -45q-143 -105 -264 -105q-120 0 -190 74t-70 199v485q0 59 -30 87t-101 28v67l358 33l19 -18v-646q0 -154 162 -153q48 0 116 37t82 39v512q0 63 -27 96q-28 33 -106 33v67l361 33l16 -18v-680z" />
    <glyph glyph-name="Uogonek" unicode="&#x172;" horiz-adv-x="1597" 
d="M1090 -392q0 -42 -48 -79t-154 -37q-104 0 -167 53t-64 150q0 154 193 272q-290 0 -442 128t-152 384v731q0 76 -23 103t-92 37l-63 10v74q182 -8 328 -9l313 9v-74l-49 -10q-131 -27 -131 -189v-688q0 -186 86 -275t266 -89q354 0 354 364v737q0 74 -27 101
q-28 27 -102 39l-65 10v74q96 -8 260 -9l250 9v-74l-50 -10q-129 -27 -129 -189v-682q0 -201 -98 -333t-295 -166q-166 -113 -166 -244q0 -51 33 -83q32 -32 92 -32t92 41q50 -12 50 -54z" />
    <glyph glyph-name="uogonek" unicode="&#x173;" horiz-adv-x="1198" 
d="M1024 242q0 -111 133 -111l17 -61q-166 -20 -282 -122t-116 -208q0 -57 33 -88t93 -31t91 41q49 -12 49 -54t-48 -79t-152 -37t-168 53t-64 143t56 162t125 117l-11 150q-29 -6 -82 -45q-143 -105 -264 -105q-120 0 -190 74t-70 199v485q0 59 -30 87t-101 28v67l358 33
l19 -18v-646q0 -154 162 -153q48 0 116 37t82 39v512q0 63 -27 96q-28 33 -106 33v67l361 33l16 -18v-680z" />
    <glyph glyph-name="Wcircumflex" unicode="&#x174;" horiz-adv-x="2232" 
d="M539 1247q0 -31 18 -90l256 -805l252 832q8 29 8 59q0 88 -127 107l-65 10v74q256 -8 428 -9q2 -109 41 -233l268 -840l264 801q20 66 21 96q0 82 -121 103l-53 8v74q133 -9 270 -9l209 9v-74l-27 -8q-111 -37 -160 -176l-413 -1194l-129 -15l-351 1041l-317 -1026
l-141 -15l-434 1233q-20 61 -56 99t-106 51l-49 10v74q135 -8 311 -9l317 9v-74l-32 -10q-82 -25 -82 -103zM772 1606l361 282l350 -280q0 -33 -23 -59t-74 -25q-90 0 -162 80t-100 176l-213 -262z" />
    <glyph glyph-name="wcircumflex" unicode="&#x175;" horiz-adv-x="1619" 
d="M1108 1065q-86 0 -160 103t-102 210l-207 -317l-152 84l367 356l350 -352q0 -31 -24 -57t-72 -27zM401 786q0 -4 11 -41l155 -471l181 433q25 63 24 86q0 37 -59 51l-43 10v68q96 -6 258 -7l202 -632l183 442q16 43 16 68q0 37 -59 51l-43 10v68q102 -6 192 -7l185 7v-68
l-45 -10q-96 -20 -152 -152l-299 -725h-86l-221 598l-256 -598h-90l-295 762q-23 57 -45 82q-23 25 -60 33l-43 10v68q127 -8 258 -9l242 9v-68l-41 -10q-70 -16 -70 -58z" />
    <glyph glyph-name="Ycircumflex" unicode="&#x176;" horiz-adv-x="1482" 
d="M889 223q1 -73 27 -101t98 -38l63 -10v-74q-193 8 -338 8l-323 -8v74l49 10q141 29 141 188v340l-317 568q-78 141 -217 170l-47 10v74q135 -10 299 -11l313 11v-74l-33 -10q-55 -18 -55 -70q0 -31 22 -72l260 -477l263 475q23 41 22 70q0 55 -76 74l-41 10v74
q139 -8 267 -9l192 9v-74l-41 -10q-72 -18 -123 -60t-102 -133l-303 -530v-404zM465 1606l360 282l351 -280q0 -33 -23 -59t-74 -25q-90 0 -163 80t-99 176l-213 -262z" />
    <glyph glyph-name="ycircumflex" unicode="&#x177;" horiz-adv-x="1077" 
d="M852 1065q-86 0 -160 103t-102 210l-207 -317l-152 84l367 356l350 -352q0 -31 -24 -57t-72 -27zM-76 -320q0 54 32 88t91 33q25 0 47 -6q-4 -17 -4 -37t26 -40t66 -19q143 0 224 184l49 115l-285 731q-23 57 -45 82q-23 25 -59 33l-43 10v68q127 -8 258 -9l241 9v-68
l-41 -10q-70 -16 -69 -58q0 -4 10 -41l160 -473l176 435q25 63 24 86q0 37 -59 51l-43 10v68q102 -6 190 -7l185 7v-68l-43 -10q-53 -12 -86 -47t-62 -105l-354 -835q-129 -311 -391 -312q-94 0 -145 40q-50 41 -50 95z" />
    <glyph glyph-name="Ydieresis" unicode="&#x178;" horiz-adv-x="1482" 
d="M889 223q1 -73 27 -101t98 -38l63 -10v-74q-193 8 -338 8l-323 -8v74l49 10q141 29 141 188v340l-317 568q-78 141 -217 170l-47 10v74q135 -10 299 -11l313 11v-74l-33 -10q-55 -18 -55 -70q0 -31 22 -72l260 -477l263 475q23 41 22 70q0 55 -76 74l-41 10v74
q139 -8 267 -9l192 9v-74l-41 -10q-72 -18 -123 -60t-102 -133l-303 -530v-404zM1163 1732q0 -56 -37 -94t-93 -36q-56 0 -93 37t-37 93t37 93t93 37t93 -37t37 -93zM481 1732q0 56 37 93t93 37q55 0 93 -37t38 -93t-37 -94q-37 -36 -93 -36t-94 37q-37 37 -37 93z" />
    <glyph glyph-name="Zacute" unicode="&#x179;" horiz-adv-x="1353" 
d="M172 1466h47q8 -33 84 -32h940l27 -50l-860 -1292l331 27q217 16 328 103t195 267l59 -14l-102 -475h-1133l-20 37l860 1300l-363 -26q-166 -12 -251 -80t-140 -205l-59 10zM833 1917q31 0 58 -29t27 -71q0 -74 -78 -146t-178 -110l-25 22l149 328q16 6 47 6z" />
    <glyph glyph-name="zacute" unicode="&#x17a;" horiz-adv-x="952" 
d="M712 1509q32 -1 62 -29q29 -28 29 -69q0 -105 -108 -209t-214 -151l-26 26l209 426q16 6 48 6zM41 35l569 799l-231 -9q-93 -4 -155 -45t-95 -141l-57 4l51 303h55q12 -31 80 -31l625 7l14 -37q-90 -112 -467 -627l-121 -166l234 10q244 10 299 187l14 41l55 -11
l-53 -319h-801z" />
    <glyph glyph-name="Zdotaccent" unicode="&#x17b;" horiz-adv-x="1355" 
d="M172 1466h47q8 -33 84 -32h940l27 -50l-860 -1292l331 27q217 16 328 103t195 267l59 -14l-102 -475h-1133l-20 37l860 1300l-363 -26q-166 -12 -251 -80t-140 -205l-59 10zM606 1733q0 63 46 108t110 45t108 -45q45 -45 45 -108t-45 -109t-108 -47q-63 0 -110 46
q-46 47 -46 110z" />
    <glyph glyph-name="zdotaccent" unicode="&#x17c;" horiz-adv-x="952" 
d="M373 1284q0 62 46 108t109 46q62 0 108 -45t46 -109t-45 -109q-45 -47 -109 -47t-109 46q-46 46 -46 110zM41 35l569 799l-231 -9q-93 -4 -155 -45t-95 -141l-57 4l51 303h55q12 -31 80 -31l625 7l14 -37q-90 -112 -467 -627l-121 -166l234 10q244 10 299 187l14 41
l55 -11l-53 -319h-801z" />
    <glyph glyph-name="Zcaron" unicode="&#x17d;" horiz-adv-x="1353" 
d="M172 1466h47q8 -33 84 -32h940l27 -50l-860 -1292l331 27q217 16 328 103t195 267l59 -14l-102 -475h-1133l-20 37l860 1300l-363 -26q-166 -12 -251 -80t-140 -205l-59 10zM995 1882q51 0 74 -26t23 -58l-351 -280l-360 282l139 88l213 -262q27 96 100 176t162 80z" />
    <glyph glyph-name="zcaron" unicode="&#x17e;" horiz-adv-x="952" 
d="M797 1511q47 -1 71 -27t25 -57l-350 -352l-367 357l152 84l207 -318q29 106 102 210q74 103 160 103zM41 35l569 799l-231 -9q-93 -4 -155 -45t-95 -141l-57 4l51 303h55q12 -31 80 -31l625 7l14 -37q-90 -112 -467 -627l-121 -166l234 10q244 10 299 187l14 41l55 -11
l-53 -319h-801z" />
    <glyph glyph-name="florin" unicode="&#x192;" horiz-adv-x="1087" 
d="M795 1255q119 0 185 -48t64 -105q0 -57 -32 -88t-78 -31l-41 4q-14 66 -55 112t-115 46q-74 1 -121 -57t-74 -189l-45 -229h303l-22 -111h-307l-86 -407q-68 -326 -208 -495t-276 -169q-82 0 -129 38t-47 89q0 109 107 129q49 -133 137 -133q115 0 158 266l114 686h-207
l11 45q93 8 184 39l29 8q41 256 197 428q157 172 354 172z" />
    <glyph glyph-name="AEmacron" unicode="&#x1e2;" horiz-adv-x="1880" 
d="M836 1788q166 -6 299 -6l299 6v-162q-150 6 -299 6l-299 -6v162zM942 272v256h-399l-142 -256q-35 -63 -34 -104q0 -70 88 -84l59 -10v-74q-143 8 -281 8l-249 -8v74l63 10q127 20 225 188l559 959q38 69 -14 92q-31 14 -100 27l-64 10v74q281 -8 426 -9l686 9v-336h-67
q-16 116 -104 184t-242 68q-90 0 -127 -13v-557h131q154 0 176 146l14 94h74q-8 -133 -8 -262l8 -242h-76l-12 51q-25 104 -150 105h-157v-455q0 -133 166 -133q127 0 223 85t141 220l68 -8l-68 -381q-475 8 -692 8l-301 -8v74l49 10q131 27 131 188zM942 641v594l-334 -594
h334z" />
    <glyph glyph-name="aemacron" unicode="&#x1e3;" horiz-adv-x="1511" 
d="M504 1339q158 -6 291 -6l290 6v-161q-141 6 -290 6l-291 -6v161zM1233 686q0 176 -148 176q-89 0 -153 -64t-84 -167l383 22q2 10 2 33zM604 671q0 175 -146 175q-74 0 -102 -34t-28 -73t16 -65q-37 -37 -102 -37t-98 29q-32 29 -31 75q0 96 121 155q122 58 282 58
q86 0 163 -34t105 -93q138 127 324 127t274 -96t88 -258l-47 -57l-585 8q-4 -35 -4 -72q0 -152 87 -255t265 -103q113 0 231 37l29 -54q-162 -137 -375 -137t-338 119q-33 -2 -92 -33q-164 -86 -295 -86q-131 1 -206 57t-74 154q0 152 138 230t396 77q4 100 4 186zM307 213
q0 -55 40 -88q39 -33 97 -33t139 26t97 29q-74 109 -80 261q-121 -2 -207 -52t-86 -143z" />
    <glyph glyph-name="Aringacute" unicode="&#x1fa;" horiz-adv-x="1542" 
d="M780 1458q100 0 101 127q0 63 -34 101t-85 36q-100 0 -100 -127q0 -63 34 -100t84 -37zM934 2101q0 -73 -78 -145t-178 -111l-25 23l150 327q14 7 46 7q33 0 59 -29t26 -72zM696 1180l-188 -539h373zM545 1585q0 85 64 151q63 66 165 66t162 -54t61 -151
q0 -131 -116 -190l417 -1151q49 -139 175 -172l40 -10v-74q-111 8 -292 8l-340 -8v74l41 10q100 27 100 113q0 27 -14 69l-88 260h-453l-88 -254q-18 -55 -19 -90q0 -78 121 -98l62 -10v-74q-137 8 -275 8l-239 -8v74l37 10q129 35 186 192l416 1117q-123 47 -123 192z" />
    <glyph glyph-name="aringacute" unicode="&#x1fb;" horiz-adv-x="1044" 
d="M548 1487q102 0 162 -54q60 -55 60 -147t-64 -158t-166 -66t-162 56q-60 54 -60 146t64 158t166 65zM553 1143q100 0 100 127q0 63 -33 100q-34 37 -85 37q-100 0 -101 -127q0 -63 34 -100t85 -37zM307 213q0 -119 133 -119q33 0 92 20t72 23q-16 49 -16 125l8 144
q-121 0 -205 -48t-84 -145zM604 671q0 175 -146 175q-74 0 -102 -34t-28 -73t16 -65q-37 -37 -102 -37t-98 29q-32 29 -31 75q0 96 121 155q122 58 282 58t248 -78t88 -235l-18 -393q0 -68 30 -108t76 -40q45 0 82 15l27 -45q-24 -35 -92 -69t-134 -34q-137 0 -196 107
q-27 -8 -75 -36q-122 -71 -235 -71q-113 -1 -183 55t-68 156q0 152 137 230t395 77q6 100 6 186zM624 1917q32 0 58 -29q27 -29 27 -71q0 -74 -78 -146t-178 -110l-25 22l150 328q14 6 46 6z" />
    <glyph glyph-name="AEacute" unicode="&#x1fc;" horiz-adv-x="1880" 
d="M942 272v256h-399l-142 -256q-35 -63 -34 -104q0 -70 88 -84l59 -10v-74q-143 8 -281 8l-249 -8v74l63 10q127 20 225 188l559 959q38 69 -14 92q-31 14 -100 27l-64 10v74q281 -8 426 -9l686 9v-336h-67q-16 116 -104 184t-242 68q-90 0 -127 -13v-557h131
q154 0 176 146l14 94h74q-8 -133 -8 -262l8 -242h-76l-12 51q-25 104 -150 105h-157v-455q0 -133 166 -133q127 0 223 85t141 220l68 -8l-68 -381q-475 8 -692 8l-301 -8v74l49 10q131 27 131 188zM942 641v594l-334 -594h334zM1292 1917q31 0 58 -29t26 -71q0 -74 -78 -146
t-178 -110l-24 22l149 328q16 6 47 6z" />
    <glyph glyph-name="aeacute" unicode="&#x1fd;" horiz-adv-x="1511" 
d="M1021 1509q35 -1 63 -29t28 -69q0 -106 -107 -210q-108 -103 -214 -150l-27 26l209 426q14 6 48 6zM1233 686q0 176 -148 176q-89 0 -153 -64t-84 -167l383 22q2 10 2 33zM604 671q0 175 -146 175q-74 0 -102 -34t-28 -73t16 -65q-37 -37 -102 -37t-98 29q-32 29 -31 75
q0 96 121 155q122 58 282 58q86 0 163 -34t105 -93q138 127 324 127t274 -96t88 -258l-47 -57l-585 8q-4 -35 -4 -72q0 -152 87 -255t265 -103q113 0 231 37l29 -54q-162 -137 -375 -137t-338 119q-33 -2 -92 -33q-164 -86 -295 -86q-131 1 -206 57t-74 154q0 152 138 230
t396 77q4 100 4 186zM307 213q0 -55 40 -88q39 -33 97 -33t139 26t97 29q-74 109 -80 261q-121 -2 -207 -52t-86 -143z" />
    <glyph glyph-name="Oslashacute" unicode="&#x1fe;" horiz-adv-x="1646" 
d="M956 1917q31 0 58 -29t26 -71q0 -74 -78 -146t-178 -110l-24 22l149 328q16 6 47 6zM1104 1212q-137 147 -324 148q-147 0 -243 -86q-97 -86 -135 -218t-38 -338t93 -380q172 227 647 874zM866 70q147 0 244 86q96 86 134 218t38 338t-96 384q-238 -311 -647 -875
q134 -151 327 -151zM59 680q0 152 55 292q117 304 409 425q157 65 351 65t351 -84l96 131h184l-162 -209q244 -201 244 -550q0 -313 -208 -542q-99 -110 -256 -176t-349 -65q-192 0 -358 86l-90 -125h-185l156 203q-238 201 -238 549z" />
    <glyph glyph-name="oslashacute" unicode="&#x1ff;" horiz-adv-x="1136" 
d="M728 1509q34 -1 63 -29t28 -69q0 -106 -107 -210q-108 -103 -214 -150l-27 26l209 426q14 6 48 6zM546 858q-108 0 -166 -112t-58 -267q0 -90 24 -170q156 170 381 439q-73 110 -181 110zM592 63q111 0 169 111t58 268q0 78 -28 179q-77 -83 -388 -439q78 -119 189 -119z
M539 -33q-147 0 -263 64l-53 -64h-194q59 59 141 148q-119 125 -119 331t150 358q150 151 401 150q143 0 256 -61l55 59h197q-61 -59 -143 -143q121 -127 121 -334t-149 -357q-148 -150 -400 -151z" />
    <glyph glyph-name="Scommaaccent" unicode="&#x218;" horiz-adv-x="1067" 
d="M537 -123q67 0 109 -46t42 -114q0 -121 -95 -201t-231 -116l-20 49q63 23 102 67t39 93q0 76 -94 123q0 63 40 104t108 41zM560 1358q-112 0 -172 -55t-60 -137t68 -152t165 -127q95 -57 193 -122t167 -162t68 -218q0 -186 -121 -302t-366 -116q-90 0 -228 33t-200 33
v377h67q37 -338 348 -338q119 0 188 60t69 154q-1 165 -228 301q-94 57 -188 119t-161 160t-67 226q0 168 128 269t335 101q65 0 193 -22t196 -21l-20 -354h-68q-14 141 -104 217t-202 76z" />
    <glyph glyph-name="scommaaccent" unicode="&#x219;" horiz-adv-x="831" 
d="M408 -123q68 0 110 -46t41 -114q0 -121 -95 -201t-231 -116l-20 49q63 23 102 67t39 93q0 76 -94 123q0 63 40 104t108 41zM459 954q81 0 155 -18t123 -18l-14 -267h-70q-4 91 -56 149t-132 58t-116 -34t-36 -86q0 -92 162 -161q69 -30 137 -67q68 -36 115 -102t47 -156
q0 -141 -112 -213t-279 -72q-61 0 -157 22t-134 21l-10 285h72q8 -115 71 -173t153 -58t138 36q47 37 47 95q0 59 -47 105t-114 77q-68 31 -134 65t-112 94q-46 62 -47 150q0 120 95 194t255 74z" />
    <glyph glyph-name="dotlessj" unicode="&#x237;" horiz-adv-x="634" 
d="M207 39v637q0 113 -133 112l-19 62q163 15 342 80l54 22v-811q1 -283 -127 -413q-64 -64 -183 -111t-159 -78l-41 55q25 23 93 71t101 93q72 95 72 281z" />
    <glyph glyph-name="hsuperior" unicode="&#x2b0;" horiz-adv-x="1003" 
d="M864 1139v-394q0 -78 56 -86l51 -8v-57q-104 4 -209 4l-197 -4v57l23 6q80 16 80 101v348q0 125 -121 125q-35 0 -94 -31t-78 -33v-422q0 -43 13 -61t44 -25l49 -8v-57q-102 4 -207 4l-215 -4v57l35 6q86 14 86 101v839q0 88 -106 89l-15 55q72 6 151 26t122 39l43 17
v-586q18 2 107 61q89 60 180 60q90 0 146 -60t56 -159z" />
    <glyph glyph-name="jsuperior" unicode="&#x2b2;" horiz-adv-x="507" 
d="M360 707q0 -229 -110 -340q-43 -43 -137 -80t-127 -62l-33 47q19 20 73 58t83 73q57 76 57 226v501q-1 91 -107 91l-14 53q70 6 149 26t121 39l45 17v-649zM129 1666q0 48 35 81t85 33t85 -33t35 -81t-35 -82t-85 -34t-85 34t-35 82z" />
    <glyph glyph-name="wsuperior" unicode="&#x2b7;" horiz-adv-x="1296" 
d="M322 1225q0 -12 8 -33l125 -377l143 344q20 51 20 70q0 31 -49 41l-32 8v53q98 -4 204 -4l164 -506l146 355q12 35 12 53q0 31 -47 41l-35 8v53q82 -4 154 -4l147 4v-53l-35 -8q-76 -16 -121 -121l-239 -580h-70l-176 478l-205 -478h-71l-238 609q-31 82 -82 92l-35 8v53
q100 -6 207 -6l193 6v-53l-33 -8q-55 -14 -55 -45z" />
    <glyph glyph-name="ysuperior" unicode="&#x2b8;" horiz-adv-x="862" 
d="M330 1219q0 -12 8 -37l127 -371l141 344q18 49 19 68q0 31 -47 41l-35 8v59q82 -6 153 -6l148 6v-59l-35 -8q-43 -8 -69 -37t-50 -84l-282 -664q-104 -250 -314 -250q-76 0 -117 33t-41 77t33 78q32 34 107 19q-4 -12 -4 -30t20 -34q20 -17 53 -18q115 0 179 146l38 92
l-227 582q-31 80 -84 90l-33 8v59q100 -6 205 -6l195 6v-59l-33 -8q-55 -14 -55 -45z" />
    <glyph glyph-name="circumflex" unicode="&#x2c6;" horiz-adv-x="845" 
d="M684 1065q-86 0 -160 103t-102 210l-207 -317l-152 84l367 356l350 -352q0 -31 -24 -57t-72 -27z" />
    <glyph glyph-name="caron" unicode="&#x2c7;" horiz-adv-x="845" 
d="M684 1511q47 -1 72 -27t24 -57l-350 -352l-367 357l152 84l207 -318q29 106 102 210q74 103 160 103z" />
    <glyph glyph-name="breve" unicode="&#x2d8;" horiz-adv-x="722" 
d="M588 1436h88q0 -164 -83 -252t-229 -88t-232 87q-87 87 -87 253h182q0 -195 166 -195q94 0 145 50q50 51 50 145z" />
    <glyph glyph-name="dotaccent" unicode="&#x2d9;" horiz-adv-x="569" 
d="M129 1284q0 62 46 108q45 46 109 46t109 -45t45 -109t-45 -109q-45 -47 -108 -47t-109 46t-47 110z" />
    <glyph glyph-name="ring" unicode="&#x2da;" horiz-adv-x="591" 
d="M70 1302q0 92 64 156q64 66 166 66t162 -54t60 -147q0 -92 -64 -158q-64 -65 -166 -65q-101 0 -162 55q-60 55 -60 147zM305 1180q100 0 101 127q0 63 -34 100t-85 37q-100 0 -101 -127q0 -63 34 -100t85 -37z" />
    <glyph glyph-name="ogonek" unicode="&#x2db;" horiz-adv-x="534" 
d="M483 -407q0 -43 -48 -79q-49 -36 -153 -36t-167 53t-64 150q0 151 197 282q45 31 76 45l30 15l31 -43q-168 -135 -168 -259q0 -51 33 -83q32 -32 92 -31q60 0 92 41q49 -13 49 -55z" />
    <glyph glyph-name="tilde" unicode="&#x2dc;" horiz-adv-x="794" 
d="M233 1247q-92 0 -133 -100l-51 41q15 96 65 156t128 61q78 0 175 -49t142 -49q92 0 133 100l51 -43q-16 -94 -65 -154q-50 -60 -124 -61q-74 0 -172 49t-149 49z" />
    <glyph glyph-name="hungarumlaut" unicode="&#x2dd;" horiz-adv-x="917" 
d="M705 1509q34 -1 63 -29t29 -69q0 -105 -108 -209t-214 -151l-26 26l208 426q14 6 48 6zM377 1509q33 -1 61 -29t29 -69q0 -105 -108 -209t-214 -151l-26 26l209 426q16 6 49 6z" />
    <glyph glyph-name="xsuperior" unicode="&#x2e3;" horiz-adv-x="897" 
d="M528 707q0 20 -14 41l-98 145l-127 -143q-29 -35 -29 -61t33 -34l26 -6v-55q-90 4 -174 4l-147 -4v55l29 6q82 14 168 109l172 190l-170 238q-43 57 -117 74l-41 8v57q80 -4 213 -4l201 4v-57l-27 -8q-27 -8 -27 -30t17 -54l65 -97l94 107q25 29 25 45q0 25 -27 31l-26 6
v57q78 -4 155 -4l162 4v-57l-43 -8q-88 -18 -159 -99l-138 -151l199 -277q45 -61 143 -84l27 -6v-55q-86 4 -221 4l-215 -4v55l24 6q47 10 47 52z" />
    <glyph glyph-name="uni03A9" unicode="&#x3a9;" horiz-adv-x="1705" 
d="M1591 870q0 -104 -51 -207q-50 -103 -114 -173t-151 -162t-130 -152h223q92 0 134 45t61 129h67l-43 -350h-629q4 170 134 361l106 158q127 189 127 351q0 220 -127 356t-346 136t-346 -135t-127 -357q0 -162 127 -351l106 -158q131 -196 133 -361h-628l-43 350h67
q19 -84 61 -129t134 -45h223q-43 58 -130 152t-150 162t-115 172t-51 208q0 199 103 336q192 256 637 256q444 0 635 -256q103 -137 103 -336z" />
    <glyph glyph-name="pi" unicode="&#x3c0;" horiz-adv-x="1243" 
d="M253 -33q-60 0 -90 35t-30 84q201 131 250 662q-99 -4 -159 -44t-83 -141l-55 19q0 160 85 240t241 81h520q143 0 192 51l33 -14q-23 -106 -82 -147t-190 -45q-51 -197 -51 -422q0 -100 20 -146t72 -47q96 0 184 119l47 -31q-111 -254 -313 -254q-103 0 -144 55
q-42 55 -47 117q-6 62 -6 107q0 156 125 502h-268q-6 -54 -14 -184t-20 -216q-11 -86 -35 -183t-73 -147t-109 -51z" />
    <glyph glyph-name="Wgrave" unicode="&#x1e80;" horiz-adv-x="2234" 
d="M539 1247q0 -31 18 -90l256 -805l252 832q8 29 8 59q0 88 -127 107l-65 10v74q256 -8 428 -9q2 -109 41 -233l268 -840l264 801q20 66 21 96q0 82 -121 103l-53 8v74q133 -9 270 -9l209 9v-74l-27 -8q-111 -37 -160 -176l-413 -1194l-129 -15l-351 1041l-317 -1026
l-141 -15l-434 1233q-20 61 -56 99t-106 51l-49 10v74q135 -8 311 -9l317 9v-74l-32 -10q-82 -25 -82 -103zM1009 1917q32 0 46 -6l149 -328l-24 -22q-100 39 -179 110q-78 72 -77 146q0 43 26 71t59 29z" />
    <glyph glyph-name="wgrave" unicode="&#x1e81;" horiz-adv-x="1619" 
d="M676 1503l209 -426l-27 -26q-106 47 -214 150t-107 210q0 41 28 70q29 29 62 29t49 -7zM401 786q0 -4 11 -41l155 -471l181 433q25 63 24 86q0 37 -59 51l-43 10v68q96 -6 258 -7l202 -632l183 442q16 43 16 68q0 37 -59 51l-43 10v68q102 -6 192 -7l185 7v-68l-45 -10
q-96 -20 -152 -152l-299 -725h-86l-221 598l-256 -598h-90l-295 762q-23 57 -45 82q-23 25 -60 33l-43 10v68q127 -8 258 -9l242 9v-68l-41 -10q-70 -16 -70 -58z" />
    <glyph glyph-name="Wacute" unicode="&#x1e82;" horiz-adv-x="2232" 
d="M539 1247q0 -31 18 -90l256 -805l252 832q8 29 8 59q0 88 -127 107l-65 10v74q256 -8 428 -9q2 -109 41 -233l268 -840l264 801q20 66 21 96q0 82 -121 103l-53 8v74q133 -9 270 -9l209 9v-74l-27 -8q-111 -37 -160 -176l-413 -1194l-129 -15l-351 1041l-317 -1026
l-141 -15l-434 1233q-20 61 -56 99t-106 51l-49 10v74q135 -8 311 -9l317 9v-74l-32 -10q-82 -25 -82 -103zM1297 1917q32 0 59 -29t26 -71q0 -74 -78 -146t-178 -110l-24 22l149 328q14 6 46 6z" />
    <glyph glyph-name="wacute" unicode="&#x1e83;" horiz-adv-x="1624" 
d="M1062 1509q34 -1 62 -29t29 -69q0 -106 -107 -210q-108 -103 -215 -150l-26 26l209 426q14 6 48 6zM401 786q0 -4 11 -41l155 -471l181 433q25 63 24 86q0 37 -59 51l-43 10v68q96 -6 258 -7l202 -632l183 442q16 43 16 68q0 37 -59 51l-43 10v68q102 -6 192 -7l185 7
v-68l-45 -10q-96 -20 -152 -152l-299 -725h-86l-221 598l-256 -598h-90l-295 762q-23 57 -45 82q-23 25 -60 33l-43 10v68q127 -8 258 -9l242 9v-68l-41 -10q-70 -16 -70 -58z" />
    <glyph glyph-name="Wdieresis" unicode="&#x1e84;" horiz-adv-x="2232" 
d="M539 1247q0 -31 18 -90l256 -805l252 832q8 29 8 59q0 88 -127 107l-65 10v74q256 -8 428 -9q2 -109 41 -233l268 -840l264 801q20 66 21 96q0 82 -121 103l-53 8v74q133 -9 270 -9l209 9v-74l-27 -8q-111 -37 -160 -176l-413 -1194l-129 -15l-351 1041l-317 -1026
l-141 -15l-434 1233q-20 61 -56 99t-106 51l-49 10v74q135 -8 311 -9l317 9v-74l-32 -10q-82 -25 -82 -103zM1487 1732q0 -56 -37 -94t-93 -36q-56 0 -93 37t-37 93t37 93t93 37t93 -37t37 -93zM1065 1732q0 -56 -37 -94t-93 -36q-56 0 -93 37t-37 93t37 93t93 37t93 -37
t37 -93z" />
    <glyph glyph-name="wdieresis" unicode="&#x1e85;" horiz-adv-x="1624" 
d="M911 1248q0 56 37 93t93 37q55 0 93 -37t38 -93t-38 -93q-36 -37 -92 -37t-94 37q-37 37 -37 93zM510 1248q0 56 37 93t93 37t93 -37t37 -93t-37 -93t-93 -37t-93 37t-37 93zM401 786q0 -4 11 -41l155 -471l181 433q25 63 24 86q0 37 -59 51l-43 10v68q96 -6 258 -7
l202 -632l183 442q16 43 16 68q0 37 -59 51l-43 10v68q102 -6 192 -7l185 7v-68l-45 -10q-96 -20 -152 -152l-299 -725h-86l-221 598l-256 -598h-90l-295 762q-23 57 -45 82q-23 25 -60 33l-43 10v68q127 -8 258 -9l242 9v-68l-41 -10q-70 -16 -70 -58z" />
    <glyph glyph-name="Ygrave" unicode="&#x1ef2;" horiz-adv-x="1482" 
d="M889 223q1 -73 27 -101t98 -38l63 -10v-74q-193 8 -338 8l-323 -8v74l49 10q141 29 141 188v340l-317 568q-78 141 -217 170l-47 10v74q135 -10 299 -11l313 11v-74l-33 -10q-55 -18 -55 -70q0 -31 22 -72l260 -477l263 475q23 41 22 70q0 55 -76 74l-41 10v74
q139 -8 267 -9l192 9v-74l-41 -10q-72 -18 -123 -60t-102 -133l-303 -530v-404zM575 1817q0 43 27 71t59 29q32 0 46 -6l149 -328l-25 -22q-100 39 -178 111t-78 145z" />
    <glyph glyph-name="ygrave" unicode="&#x1ef3;" horiz-adv-x="1077" 
d="M430 1503l209 -426l-27 -26q-106 47 -214 150t-107 210q0 41 28 70q29 29 62 29t49 -7zM-76 -320q0 54 32 88t91 33q25 0 47 -6q-4 -17 -4 -37t26 -40t66 -19q143 0 224 184l49 115l-285 731q-23 57 -45 82q-23 25 -59 33l-43 10v68q127 -8 258 -9l241 9v-68l-41 -10
q-70 -16 -69 -58q0 -4 10 -41l160 -473l176 435q25 63 24 86q0 37 -59 51l-43 10v68q102 -6 190 -7l185 7v-68l-43 -10q-53 -12 -86 -47t-62 -105l-354 -835q-129 -311 -391 -312q-94 0 -145 40q-50 41 -50 95z" />
    <glyph glyph-name="endash" unicode="&#x2013;" horiz-adv-x="1253" 
d="M1143 528h-1032v134h1032v-134z" />
    <glyph glyph-name="emdash" unicode="&#x2014;" horiz-adv-x="2269" 
d="M2157 528h-2046v134h2046v-134z" />
    <glyph glyph-name="quoteleft" unicode="&#x2018;" horiz-adv-x="532" 
d="M244 1022q-68 0 -113 57t-45 133q0 158 94 271t244 139l20 -49q-80 -31 -127 -90t-47 -127q0 -126 117 -187q0 -63 -38 -105q-37 -42 -105 -42z" />
    <glyph glyph-name="quoteright" unicode="&#x2019;" horiz-adv-x="532" 
d="M289 1585q69 0 113 -57t44 -133q0 -158 -94 -271t-243 -139l-21 49q80 31 127 90t47 127q0 126 -117 187q0 63 38 105t106 42z" />
    <glyph glyph-name="quotesinglbase" unicode="&#x201a;" horiz-adv-x="571" 
d="M278 262q68 0 113 -57t45 -133q0 -158 -94 -271t-244 -139l-20 49q80 31 127 90t47 127q0 126 -117 187q0 63 38 105q37 42 105 42z" />
    <glyph glyph-name="quotedblleft" unicode="&#x201c;" horiz-adv-x="917" 
d="M628 1022q-68 0 -112 57q-45 57 -45 133q0 158 94 271t244 139l20 -49q-80 -31 -127 -90t-47 -127q0 -126 117 -187q0 -63 -38 -105t-106 -42zM244 1022q-68 0 -113 57t-45 133q0 158 94 271t244 139l20 -49q-80 -31 -127 -90t-47 -127q0 -126 117 -187q0 -63 -38 -105
q-37 -42 -105 -42z" />
    <glyph glyph-name="quotedblright" unicode="&#x201d;" horiz-adv-x="917" 
d="M289 1585q69 0 113 -57t44 -133q0 -158 -94 -271t-243 -139l-21 49q80 31 127 90t47 127q0 126 -117 187q0 63 38 105t106 42zM674 1585q68 0 112 -57t45 -133q0 -158 -94 -271t-243 -139l-21 49q80 31 127 90t47 127q0 126 -117 187q0 63 38 105t106 42z" />
    <glyph glyph-name="quotedblbase" unicode="&#x201e;" horiz-adv-x="980" 
d="M688 262q68 0 113 -57t45 -133q0 -158 -94 -271t-244 -139l-21 49q80 31 127 90t48 127q0 126 -117 187q0 63 38 105q37 42 105 42zM278 262q68 0 113 -57t45 -133q0 -158 -94 -271t-244 -139l-20 49q80 31 127 90t47 127q0 126 -117 187q0 63 38 105q37 42 105 42z" />
    <glyph glyph-name="dagger" unicode="&#x2020;" horiz-adv-x="1243" 
d="M621 1462q69 0 103 -44t34 -114t-45 -203q-45 -132 -47 -202q54 0 162 31t165 31t99 -23t43 -74q0 -98 -144 -98q-55 0 -163 33t-164 32q-6 -63 -7 -104q0 -133 113 -283q-42 -48 -76 -131q-35 -82 -35 -147v-559h-77v559q0 66 -28 136t-54 106l-29 36q113 150 113 283
l-6 104q-57 -1 -165 -33t-163 -32q-143 0 -144 98q0 51 42 74t100 23t165 -31q108 -31 162 -31q-2 70 -47 202t-45 203q0 70 35 114t103 44z" />
    <glyph glyph-name="daggerdbl" unicode="&#x2021;" horiz-adv-x="1241" 
d="M619 -401q-138 0 -138 159q0 70 45 202t47 202q-55 0 -163 -31t-164 -31q-57 0 -100 23q-42 23 -42 74q0 98 144 98q55 0 163 -33t164 -33q0 182 -106 301q106 119 106 301q-57 -1 -165 -33t-162 -32q-143 0 -144 98q0 51 42 74t100 23t165 -31q108 -31 162 -31
q-2 70 -47 202t-45 202q0 160 137 159q139 0 140 -159q0 -70 -45 -202t-47 -202q54 0 162 31t165 31t99 -23t43 -74q0 -98 -144 -98q-55 0 -163 33t-164 32q0 -182 106 -301q-106 -119 -106 -301q56 0 164 33t163 33q143 0 144 -98q0 -51 -42 -74q-41 -23 -99 -23t-166 31
t-162 31q2 -70 47 -202t45 -202q-1 -159 -139 -159z" />
    <glyph glyph-name="bullet" unicode="&#x2022;" horiz-adv-x="1024" 
d="M512 156q-150 0 -254 106t-104 254t104 252t254 104t254 -104t104 -252t-104 -254t-254 -106z" />
    <glyph glyph-name="perthousand" unicode="&#x2030;" horiz-adv-x="2330" 
d="M1936 584q148 0 237 -85q90 -85 90 -227t-96 -242q-95 -102 -243 -102t-238 85t-90 227t96 242q96 102 244 102zM1918 492q-138 0 -138 -233q0 -111 46 -175t115 -64q138 0 138 233q0 111 -46 175t-115 64zM834 240q0 142 96 242q96 102 244 102t237 -85q90 -85 90 -227
t-96 -242q-95 -102 -243 -102t-238 85t-90 227zM1156 492q-138 0 -138 -233q0 -111 46 -175t115 -64q138 0 138 233q0 111 -46 175t-115 64zM735 1006q0 -140 -96 -242q-95 -102 -243 -102t-238 84t-90 226t96 244t244 101q148 0 237 -85q90 -85 90 -226zM390 1225
q-138 0 -138 -233q0 -110 46 -174t115 -64q138 0 138 232q0 110 -46 174t-115 65zM1102 1300h196q-110 -143 -432 -670t-399 -681h-197q98 135 423 663t409 688z" />
    <glyph glyph-name="guilsinglleft" unicode="&#x2039;" horiz-adv-x="708" 
d="M557 133q0 -47 -30 -78t-66 -30l-344 462l340 457l98 -123l-301 -329q111 -68 207 -167t96 -192z" />
    <glyph glyph-name="guilsinglright" unicode="&#x203a;" horiz-adv-x="708" 
d="M150 836q0 48 30 78t66 30l344 -463l-340 -456l-98 122l301 330q-111 68 -207 167t-96 192z" />
    <glyph glyph-name="fraction" unicode="&#x2044;" horiz-adv-x="825" 
d="M-76 -145q133 268 828 1773l151 -67q-154 -309 -835 -1774z" />
    <glyph glyph-name="zerosuperior" unicode="&#x2070;" horiz-adv-x="845" 
d="M406 639q-152 0 -255 117q-103 118 -103 318t102 331q104 131 292 131q150 0 253 -117t103 -315t-104 -332q-104 -133 -288 -133zM596 1081q0 159 -57 265t-132 106t-116 -99t-41 -258t55 -263t131 -105q76 0 118 98t42 256z" />
    <glyph glyph-name="foursuperior" unicode="&#x2074;" horiz-adv-x="794" 
d="M754 883h-166v-86q0 -53 45 -62l53 -10v-66h-379v62l49 14q45 10 45 58v90h-348l-20 41l203 290q70 96 69 197q0 57 -26 100q39 25 87 25t79 -36q32 -36 32 -83q0 -82 -88 -195q-29 -36 -88 -102l-121 -133h221v131l187 94v-225h166v-104z" />
    <glyph glyph-name="fivesuperior" unicode="&#x2075;" horiz-adv-x="704" 
d="M281 1108q-68 0 -134 -35l-38 19l41 430h321q94 0 129 86l49 -11l-33 -211h-385l-16 -167q49 16 107 16q156 0 246 -82t91 -214q-1 -132 -113 -216t-272 -84q-94 0 -153 32t-59 77q0 46 25 68q26 22 64 22t64 -11q-4 -19 -4 -41t21 -43q22 -20 57 -20q76 0 125 55
q49 56 49 142t-57 137t-125 51z" />
    <glyph glyph-name="sixsuperior" unicode="&#x2076;" horiz-adv-x="770" 
d="M469 1176q106 0 178 -72t72 -184t-96 -197q-96 -84 -246 -84t-242 91q-92 90 -92 228q0 361 392 540q102 47 206 63l27 -60q-166 -47 -272 -150t-136 -241q14 2 83 34t126 32zM389 1077q-25 0 -69 -17t-68 -22q-4 -27 -4 -100t42 -148t103 -75t92 54t31 128t-35 127
t-92 53z" />
    <glyph glyph-name="sevensuperior" unicode="&#x2077;" horiz-adv-x="731" 
d="M317 639q-54 0 -96 46q-41 46 -41 112q0 115 133 293l230 309l-283 -15q-76 -4 -116 -32t-58 -82l-51 10l51 242h590l18 -25l-207 -360q-111 -190 -110 -314q0 -81 31 -161q-37 -23 -91 -23z" />
    <glyph glyph-name="eightsuperior" unicode="&#x2078;" horiz-adv-x="692" 
d="M647 887q0 -121 -97 -185t-216 -63q-119 0 -206 57t-87 155t119 187q49 37 63 56q-94 68 -129 110t-35 109q0 99 85 161t210 62t207 -56t82 -147q0 -92 -106 -169q-45 -32 -58 -50q168 -106 168 -227zM457 1324q0 60 -30 96t-74 36q-45 0 -73 -32t-28 -84t36 -91t103 -84
q66 99 66 159zM225 851q0 -54 33 -92t78 -38q115 0 115 121q0 49 -35 97t-72 73l-35 22q-8 -14 -28 -42t-38 -57q-18 -30 -18 -84z" />
    <glyph glyph-name="ninesuperior" unicode="&#x2079;" horiz-adv-x="770" 
d="M293 999q-106 0 -178 72q-72 73 -72 185t96 196q95 84 245 84t242 -91t93 -229q0 -361 -392 -539q-102 -47 -206 -63l-27 60q166 47 272 150q105 103 136 241q-14 -2 -83 -34t-126 -32zM373 1098q25 0 69 17t68 22q4 27 4 100t-42 148t-104 75t-92 -54t-30 -128t35 -127
t92 -53z" />
    <glyph glyph-name="nsuperior" unicode="&#x207f;" horiz-adv-x="987" 
d="M848 1139v-394q0 -78 55 -86l51 -8v-57q-104 4 -209 4l-196 -4v57l22 4q80 16 80 103v350q0 123 -121 123q-35 0 -93 -30t-79 -32v-424q0 -45 14 -63t44 -23l49 -8v-57q-102 4 -207 4l-215 -4v57l35 4q86 14 86 103v375q0 90 -107 90l-14 51q72 6 151 26t121 39l43 17
v-121q25 8 69 40q111 81 211 81q98 0 154 -60t56 -157z" />
    <glyph glyph-name="zeroinferior" unicode="&#x2080;" horiz-adv-x="845" 
d="M406 -287q-152 0 -255 117q-103 118 -103 318t102 331q104 131 292 131q150 0 253 -116t103 -316q0 -199 -104 -332t-288 -133zM596 156q0 158 -57 264t-132 106t-116 -99t-41 -258t55 -263t131 -104t118 98t42 256z" />
    <glyph glyph-name="oneinferior" unicode="&#x2081;" horiz-adv-x="614" 
d="M137 418q-74 0 -76 57q0 23 15 37q74 6 180 38t166 62l41 -4v-739q0 -51 51 -62l72 -14v-61q-125 6 -221 6l-242 -4v61l55 12q96 23 96 113v547q-63 -49 -137 -49z" />
    <glyph glyph-name="twoinferior" unicode="&#x2082;" horiz-adv-x="743" 
d="M463 362q0 64 -30 108t-84 44t-91 -32t-16 -105q-23 -15 -65 -15q-41 0 -67 23t-26 59q0 62 72 114t210 52t217 -68q79 -69 79 -167q0 -161 -216 -348q-43 -39 -124 -109l-74 -61l268 12q104 6 141 106l52 -10l-52 -231h-596l-16 39l184 198q76 82 116 129t79 123
q39 75 39 139z" />
    <glyph glyph-name="threeinferior" unicode="&#x2083;" horiz-adv-x="686" 
d="M313 516q-45 0 -69 -28t-25 -62q0 -34 8 -55q-90 -29 -136 12q-26 23 -25 59q0 63 71 116q72 52 197 52q126 0 194 -51t68 -125q0 -152 -221 -198l2 -13q131 -23 195 -89t65 -148q1 -127 -105 -200t-262 -73q-94 0 -153 32t-59 77q0 46 25 68q26 22 64 22t64 -10
q-4 -20 -4 -42q-1 -22 21 -42t74 -20t94 39q40 40 40 127t-74 141t-190 55l-16 57q238 63 237 205q0 94 -80 94z" />
    <glyph glyph-name="fourinferior" unicode="&#x2084;" horiz-adv-x="794" 
d="M754 -43h-166v-86q0 -53 45 -61l53 -11v-65h-379v61l49 15q45 10 45 57v90h-348l-20 41l203 291q70 96 69 196q0 57 -26 101q39 24 87 24t79 -36q32 -36 32 -82t-30 -104q-31 -56 -59 -92t-87 -101l-121 -134h221v132l187 94v-226h166v-104z" />
    <glyph glyph-name="fiveinferior" unicode="&#x2085;" horiz-adv-x="704" 
d="M277 182q-72 0 -130 -35l-38 19l41 430h321q94 0 129 86l49 -10l-33 -211h-385l-16 -168q49 16 107 16q156 0 246 -82q90 -81 91 -213q0 -132 -112 -217q-113 -84 -273 -84q-94 0 -153 32t-59 77q0 46 25 68q26 22 64 22t64 -10q-4 -20 -4 -42q-1 -22 21 -42t57 -21
q76 -1 125 55t49 142t-57 137t-129 51z" />
    <glyph glyph-name="sixinferior" unicode="&#x2086;" horiz-adv-x="770" 
d="M469 250q106 0 178 -72t72 -184t-96 -197q-96 -84 -246 -84t-242 91q-92 90 -92 228q0 365 392 540q102 47 206 63l27 -60q-166 -47 -272 -150t-136 -241q14 2 83 34t126 32zM389 152q-25 0 -69 -18t-68 -21q-4 -27 -4 -101t42 -148q42 -75 103 -75t92 54t31 128
q0 73 -35 127t-92 54z" />
    <glyph glyph-name="seveninferior" unicode="&#x2087;" horiz-adv-x="731" 
d="M317 -287q-54 0 -96 46q-41 46 -41 112q0 115 133 293l230 309l-283 -14q-76 -4 -116 -32t-58 -83l-51 10l51 242h590l18 -25l-207 -360q-111 -190 -110 -313q0 -82 31 -162q-37 -23 -91 -23z" />
    <glyph glyph-name="eightinferior" unicode="&#x2088;" horiz-adv-x="692" 
d="M647 -39q0 -121 -97 -184t-216 -63t-206 56q-87 58 -87 156t119 187q49 37 63 55q-94 68 -129 110t-35 109q0 99 85 161t210 62t207 -55t82 -148t-106 -168q-45 -32 -58 -51q168 -106 168 -227zM457 412q0 46 -30 82t-74 36q-45 0 -73 -32t-28 -83q0 -52 36 -91t103 -84
l18 27q13 22 18 33t17 38t13 74zM225 -74q0 -55 33 -93t78 -38q115 0 115 121q0 49 -35 97t-72 73l-35 23q-8 -14 -28 -42t-38 -57t-18 -84z" />
    <glyph glyph-name="nineinferior" unicode="&#x2089;" horiz-adv-x="770" 
d="M43 330q0 112 96 196q95 84 245 84t242 -91t93 -229q0 -361 -392 -539q-102 -46 -206 -62l-27 59q166 46 272 150t136 241q-14 -2 -83 -34t-126 -31q-106 0 -178 72t-72 184zM373 172q25 0 69 17t68 22q4 27 4 101t-42 148q-42 75 -104 75q-62 -1 -92 -55t-30 -128
t35 -127t92 -53z" />
    <glyph glyph-name="Euro" unicode="&#x20ac;" horiz-adv-x="1380" 
d="M868 131q190 0 359 102l33 -55q-188 -209 -478 -209q-216 0 -366 118t-180 364l-156 -2l14 129q70 -4 135 -5q0 55 7 105l-130 -2l13 127q61 -4 145 -4q51 201 211 329t397 129q184 1 296 -67t112 -160q0 -53 -34 -88t-83 -35t-73 8q-51 227 -236 228q-129 0 -224 -93
t-134 -253l454 6l-20 -125q-59 2 -453 2q-4 -31 -4 -109l440 4l-18 -126q-166 2 -414 4q51 -322 387 -322z" />
    <glyph glyph-name="trademark" unicode="&#x2122;" horiz-adv-x="1363" 
d="M1065 1417v10l195 5v-37l-23 -4q-41 -6 -37 -52l27 -323q4 -47 41 -49l37 -4v-39q-61 2 -150 2l-127 -2v39l23 4q53 14 47 73l-23 236l-147 -346l-47 -17l-162 365l-19 -250q-4 -55 39 -61l39 -4v-39q-43 2 -121 2l-104 -2v39l25 4q55 10 61 88l25 286q4 43 -39 50l-27 4
v37q104 -4 166 -5q0 -18 12 -51l148 -315l125 295q16 32 16 61zM473 1432q22 0 29 14h43l-10 -150l-35 4q0 88 -76 89h-62v-379q0 -33 50 -43l22 -4v-39q-82 2 -131 2l-137 -2v39l22 4q49 8 50 80v342h-48q-88 0 -104 -93l-29 7l9 143h38q6 -14 29 -14h340z" />
    <glyph glyph-name="onethird" unicode="&#x2153;" horiz-adv-x="1742" 
d="M1370 782q-45 0 -70 -28q-42 -46 -16 -117q-30 -10 -70 -10q-40 1 -66 23t-26 59q0 63 72 115t197 52t193 -50q68 -52 69 -126q0 -152 -221 -198l2 -13q132 -23 196 -89t64 -148q0 -127 -106 -200t-261 -72q-94 0 -153 32q-60 32 -60 76q0 45 26 68q26 22 64 22t64 -10
q-4 -20 -4 -42t22 -42t73 -20q52 0 93 39q41 40 41 127q0 88 -74 142t-190 54l-17 57q238 63 238 205q0 94 -80 94zM381 -145q120 240 827 1773l152 -67q-154 -309 -836 -1774zM137 1270q-74 0 -76 57q0 23 15 37q74 6 180 38t166 62l41 -4v-739q0 -51 51 -62l72 -14v-61
q-125 6 -221 6l-242 -4v61l55 12q96 23 96 113v547q-63 -49 -137 -49z" />
    <glyph glyph-name="twothirds" unicode="&#x2154;" horiz-adv-x="1810" 
d="M463 1214q0 64 -30 108t-84 44t-91 -32t-16 -105q-23 -15 -65 -15q-41 0 -67 23t-26 59q0 62 72 114t210 52t217 -68q79 -69 79 -167q0 -161 -216 -348q-43 -39 -124 -109l-74 -61l268 12q104 6 141 106l52 -10l-52 -231h-596l-16 39l184 198q76 82 116 129t79 123
q39 75 39 139zM1438 782q-45 0 -70 -28t-25 -61q0 -34 9 -56q-31 -10 -71 -10q-40 1 -66 23t-25 59q0 63 72 115t196 52t194 -50q69 -52 68 -126q0 -152 -221 -198l2 -13q131 -23 196 -89t64 -148q0 -127 -105 -200t-261 -72q-94 0 -154 31q-59 32 -59 77t25 68q26 22 64 22
t64 -10q-4 -20 -4 -42t22 -42t74 -20t93 39q41 40 41 127q0 88 -74 142t-191 54l-16 57q238 63 238 205q0 94 -80 94zM449 -145q120 240 827 1773l151 -67q-154 -309 -835 -1774z" />
    <glyph glyph-name="oneeighth" unicode="&#x215b;" horiz-adv-x="1753" 
d="M1708 228q0 -122 -97 -185t-216 -63t-206 57t-87 155t119 187q49 37 63 55q-94 68 -129 110t-35 109q0 99 85 161t210 62t207 -54q82 -56 82 -148t-107 -169q-45 -32 -57 -50q168 -105 168 -227zM1414 797q-44 0 -73 -32t-29 -84t37 -91q36 -39 103 -84q54 82 60 114
q6 33 6 69t-30 72t-74 36zM1286 180q0 -42 33 -80t78 -39q115 0 114 121q-1 50 -35 98t-71 72l-35 23q-8 -14 -36 -53t-38 -69q-10 -31 -10 -73zM381 -145q120 240 827 1773l152 -67q-154 -309 -836 -1774zM137 1270q-74 0 -76 57q0 23 15 37q74 6 180 38t166 62l41 -4v-739
q0 -51 51 -62l72 -14v-61q-125 6 -221 6l-242 -4v61l55 12q96 23 96 113v547q-63 -49 -137 -49z" />
    <glyph glyph-name="threeeighths" unicode="&#x215c;" horiz-adv-x="1753" 
d="M1708 228q0 -122 -97 -185t-216 -63t-206 57t-87 155t119 187q49 37 63 55q-94 68 -129 110t-35 109q0 99 85 161t210 62t207 -54q82 -56 82 -148t-107 -169q-45 -32 -57 -50q168 -105 168 -227zM1414 797q-44 0 -73 -32t-29 -84t37 -91q36 -39 103 -84q54 82 60 114
q6 33 6 69t-30 72t-74 36zM1286 180q0 -42 33 -80t78 -39q115 0 114 121q-1 50 -35 98t-71 72l-35 23q-8 -14 -36 -53t-38 -69q-10 -31 -10 -73zM381 -145q120 240 827 1773l152 -67q-154 -309 -836 -1774zM313 1368q-45 0 -69 -28t-25 -62q0 -34 8 -55q-90 -29 -136 12
q-26 23 -25 59q0 63 71 116q72 52 197 52q126 0 194 -51t68 -125q0 -152 -221 -199l2 -12q131 -23 195 -89t65 -148q1 -127 -105 -200t-262 -73q-94 0 -153 32t-59 77q0 46 25 68q26 22 64 22t64 -10q-4 -20 -4 -42q-1 -22 21 -42t74 -20t94 39q40 40 40 127t-74 141
t-190 55l-16 57q238 63 237 205q0 94 -80 94z" />
    <glyph glyph-name="fiveeighths" unicode="&#x215d;" horiz-adv-x="1753" 
d="M277 1034q-72 0 -130 -35l-38 19l41 430h321q94 0 129 86l49 -10l-33 -211h-385l-16 -168q49 16 107 16q156 0 246 -82q90 -81 91 -213q0 -132 -112 -217q-113 -84 -273 -84q-94 0 -153 32t-59 77q0 46 25 68q26 22 64 22t64 -10q-4 -20 -4 -42q-1 -22 21 -42t57 -21
q76 -1 125 55t49 142t-57 137t-129 51zM1708 228q0 -122 -97 -185t-216 -63t-206 57t-87 155t119 187q49 37 63 55q-94 68 -129 110t-35 109q0 99 85 161t210 62t207 -54q82 -56 82 -148t-107 -169q-45 -32 -57 -50q168 -105 168 -227zM1414 797q-44 0 -73 -32t-29 -84
t37 -91q36 -39 103 -84q54 82 60 114q6 33 6 69t-30 72t-74 36zM1286 180q0 -42 33 -80t78 -39q115 0 114 121q-1 50 -35 98t-71 72l-35 23q-8 -14 -36 -53t-38 -69q-10 -31 -10 -73zM381 -145q120 240 827 1773l152 -67q-154 -309 -836 -1774z" />
    <glyph glyph-name="seveneighths" unicode="&#x215e;" horiz-adv-x="1630" 
d="M317 565q-54 0 -96 46q-41 46 -41 112q0 115 133 293l230 309l-283 -14q-76 -4 -116 -32t-58 -83l-51 10l51 242h590l18 -25l-207 -360q-111 -190 -110 -313q0 -82 31 -162q-37 -23 -91 -23zM1585 228q0 -122 -97 -185t-216 -63t-206 57t-87 155t119 187q49 37 63 55
q-94 68 -129 110t-35 109q0 99 85 161t210 62t207 -54q82 -56 82 -148t-106 -169q-45 -32 -58 -50q168 -105 168 -227zM1395 665q0 60 -30 96t-74 36q-45 0 -73 -32t-28 -84t36 -91t103 -84q66 99 66 159zM1163 192q0 -54 33 -92t78 -39q115 0 115 121q0 50 -35 98t-72 72
l-35 23q-8 -14 -28 -42t-38 -57q-18 -30 -18 -84zM258 -145q120 240 827 1773l152 -67q-154 -309 -836 -1774z" />
    <glyph glyph-name="partialdiff" unicode="&#x2202;" horiz-adv-x="1075" 
d="M535 743q-109 0 -170 -125q-61 -126 -61 -254t37 -216q38 -88 117 -87q79 0 145 77q67 77 120 294q19 85 39 197q-26 10 -100 62t-127 52zM485 838q108 0 218 -78q48 -35 77 -47q12 66 12 253t-85 307q-86 120 -240 120t-215 -152q-37 2 -76 32t-39 77q0 88 89 129
t194 41q184 0 325 -102t211 -259q70 -158 70 -361t-72 -407q-41 -119 -102 -211q-60 -92 -160 -152t-225 -61q-197 1 -307 105t-111 304q0 200 129 332q129 130 307 130z" />
    <glyph glyph-name="Delta" unicode="&#x2206;" horiz-adv-x="1452" 
d="M250 137h829l-407 969zM1333 0h-1216l-49 84l606 1366l135 16l573 -1382z" />
    <glyph glyph-name="product" unicode="&#x220f;" horiz-adv-x="1718" 
d="M1204 41v1251q0 49 -16 74t-34 29t-56 4h-477q-37 0 -55 -4t-36 -29q-16 -25 -16 -74v-1300q0 -76 23 -103t92 -36l63 -11v-73q-170 8 -315 8l-301 -8v73l49 11q131 27 131 188v1255q0 76 -23 103t-92 37l-63 10v74q420 -6 792 -7l772 7v-74l-49 -10q-131 -27 -131 -189
v-1255q0 -76 23 -103t92 -36l63 -11v-73q-170 8 -315 8l-301 -8v73l49 11q131 26 131 188z" />
    <glyph glyph-name="summation" unicode="&#x2211;" horiz-adv-x="1339" 
d="M850 -129q166 0 241 60t101 190l68 -6v-355h-1162l-18 45l635 787l-637 878l18 46h1164v-355l-68 -6q-27 129 -101 190q-75 60 -241 60h-379l530 -698l-671 -836h520z" />
    <glyph glyph-name="minus" unicode="&#x2212;" horiz-adv-x="935" 
d="M0 551h934v-184h-934v184z" />
    <glyph glyph-name="radical" unicode="&#x221a;" horiz-adv-x="1265" 
d="M659 0h-49l-407 889l-172 -55l-31 90l403 133l304 -715l540 1313h109z" />
    <glyph glyph-name="infinity" unicode="&#x221e;" horiz-adv-x="1638" 
d="M1356 464q0 62 -37 114t-103 51q-66 0 -124 -39q-57 -39 -150 -125q96 -86 154 -125t122 -39t101 51q37 50 37 112zM424 629q-68 0 -105 -51q-37 -50 -37 -112t37 -114q37 -51 105 -51t126 39q60 39 148 123q-92 88 -149 127t-125 39zM1208 131q-72 0 -146 33
q-74 32 -123 70q-48 38 -120 104q-109 -96 -199 -152t-190 -55q-137 0 -232 93q-96 92 -96 240t96 242t232 93q74 0 148 -34t122 -71t119 -102q72 63 122 101t124 72t143 34q136 0 232 -93q96 -92 96 -240t-95 -242q-96 -93 -233 -93z" />
    <glyph glyph-name="integral" unicode="&#x222b;" horiz-adv-x="786" 
d="M291 508v590q0 287 73 429t205 142q84 0 125 -43t41 -100t-42 -93t-85 -36t-67 10q10 16 10 39q0 29 -30 29q-29 0 -51 -24q-22 -25 -22 -87t21 -235q20 -173 20 -269v-590q-1 -287 -73 -429t-205 -142q-84 0 -125 43t-41 100t42 93t84 36t69 -10q-10 -16 -11 -39
q0 -28 30 -28q29 0 51 24t22 86t-21 235q-20 173 -20 269z" />
    <glyph glyph-name="approxequal" unicode="&#x2248;" horiz-adv-x="1136" 
d="M362 510q102 0 230 -68q127 -68 201 -67q133 0 194 129l64 -45q-13 -115 -95 -188t-206 -72q-86 -1 -209 67t-197 68q-137 0 -197 -129l-63 45q14 108 95 184t183 76zM362 815q102 1 230 -67q127 -68 201 -68q133 0 194 129l64 -45q-13 -116 -95 -188t-187 -72t-228 68
t-197 67q-137 0 -197 -129l-63 45q14 109 95 185t183 75z" />
    <glyph glyph-name="notequal" unicode="&#x2260;" horiz-adv-x="935" 
d="M936 154h-500l-133 -449h-151q76 217 153 449h-305v184h367l71 229h-438v183h496l135 450h151q-76 -217 -153 -450h307v-183h-369l-73 -229h442v-184z" />
    <glyph glyph-name="lessequal" unicode="&#x2264;" horiz-adv-x="933" 
d="M934 207l-934 291v149l934 289v-182l-694 -183l694 -182v-182zM0 0v184h934v-184h-934z" />
    <glyph glyph-name="greaterequal" unicode="&#x2265;" horiz-adv-x="933" 
d="M934 498l-934 -291v182l694 182l-694 183v182l934 -289v-149zM934 184v-184h-934v184h934z" />
    <glyph glyph-name="lozenge" unicode="&#x25ca;" horiz-adv-x="1138" 
d="M870 743l-317 590l-315 -590l315 -589zM57 743l428 805h138l430 -805l-430 -804h-138z" />
    <glyph glyph-name="commaaccent" unicode="&#xf6c3;" horiz-adv-x="512" 
d="M276 -123q68 0 110 -46t42 -114q0 -121 -95 -201t-231 -116l-20 49q63 23 102 67t39 93q0 76 -94 123q0 63 40 104q39 41 107 41z" />
    <glyph glyph-name="asuperior" unicode="&#xf6e9;" horiz-adv-x="835" 
d="M246 766q0 -92 106 -92q27 0 74 16t57 19q-12 35 -12 96l6 113q-99 0 -165 -37t-66 -115zM483 1134q1 138 -115 138q-58 0 -82 -27t-24 -57t14 -53q-29 -29 -88 -29q-98 0 -98 84q0 76 97 123t225 47t200 -64q70 -64 70 -188l-14 -309q0 -53 24 -86t66 -33q41 0 59 12
l23 -41q-22 -30 -76 -56q-53 -26 -105 -26q-111 0 -157 86q-23 -7 -60 -29q-92 -56 -185 -56q-93 -1 -148 44t-56 125q0 121 111 183t315 63q4 81 4 149z" />
    <glyph glyph-name="bsuperior" unicode="&#xf6ea;" horiz-adv-x="944" 
d="M139 827v777q0 47 -25 67q-26 20 -81 21l-15 51q145 12 273 63l45 19v-561q10 2 88 49t160 47q135 0 227 -110t92 -263q0 -193 -126 -305t-295 -113q-169 0 -261 47l-82 -67l-37 18q37 106 37 260zM475 1239q-31 0 -78 -20t-61 -23v-401q0 -145 145 -146q90 0 149 90
q58 90 58 215t-53 205q-54 80 -160 80z" />
    <glyph glyph-name="dsuperior" unicode="&#xf6eb;" horiz-adv-x="958" 
d="M614 1133q0 147 -164 147q-80 0 -134 -85q-56 -85 -56 -215t54 -209t159 -79q31 0 79 22t62 23v396zM811 791q0 -47 26 -67t81 -22l12 -51q-155 -18 -266 -65l-43 -17l-7 97q-12 -2 -92 -50t-160 -47q-135 0 -227 109q-92 108 -92 274t119 286t321 120q80 0 131 -10v251
q0 49 -25 70q-26 20 -81 21l-14 51q151 17 272 65l45 17v-1032z" />
    <glyph glyph-name="esuperior" unicode="&#xf6ec;" horiz-adv-x="778" 
d="M238 979q0 -121 68 -202t212 -81q94 0 187 31l22 -47q-133 -111 -309 -111q-176 1 -276 103q-101 102 -101 277t124 293t302 118q139 0 209 -78t69 -207l-36 -49l-469 8q-2 -25 -2 -55zM557 1145q0 139 -119 139q-70 0 -122 -50t-68 -134l307 18q2 8 2 27z" />
    <glyph glyph-name="isuperior" unicode="&#xf6ed;" horiz-adv-x="540" 
d="M377 743q0 -45 12 -62t43 -22l49 -8v-57q-100 6 -207 6l-213 -6v57l33 4q86 12 86 103v375q0 49 -25 69q-26 20 -81 21l-13 51q139 16 271 65l45 17v-613zM143 1667q0 49 35 82t85 33t84 -33t34 -82t-34 -82t-84 -33t-85 33t-35 82z" />
    <glyph glyph-name="lsuperior" unicode="&#xf6ee;" horiz-adv-x="516" 
d="M377 745q0 -45 12 -62t43 -24l51 -8v-57q-104 4 -209 4l-215 -4v57l35 6q86 12 86 101v841q0 47 -25 68q-26 20 -81 21l-15 53q72 6 151 26t122 39l45 17v-1078z" />
    <glyph glyph-name="msuperior" unicode="&#xf6ef;" horiz-adv-x="1411" 
d="M815 1135v-390q0 -74 51 -86l39 -8v-57q-86 4 -190 4l-187 -4v57l19 4q72 20 71 103v348q0 125 -106 125q-37 0 -86 -30t-68 -34v-422q0 -74 52 -86l36 -8v-57q-84 4 -188 4l-215 -4v57l35 4q86 14 86 103v372q0 90 -107 91l-14 53q148 13 272 65l43 17v-121q18 8 58 40
q103 81 186 81q145 0 195 -115q25 8 67 38q109 77 203 77q95 0 151 -62t56 -159v-390q0 -45 12 -63t43 -23l51 -8v-57q-104 4 -211 4l-184 -4v57l19 4q74 18 73 103v348q0 59 -33 92t-76 33q-44 0 -90 -25t-65 -28q2 -14 2 -43z" />
    <glyph glyph-name="osuperior" unicode="&#xf6f0;" horiz-adv-x="909" 
d="M466 1360q187 0 295 -104q107 -104 107 -275q0 -170 -118 -291t-306 -121q-186 1 -294 105t-109 274q0 170 119 291t306 121zM439 1278q-91 0 -137 -87t-46 -212t62 -226t152 -101t138 86q47 87 47 212t-62 227q-63 101 -154 101z" />
    <glyph glyph-name="rsuperior" unicode="&#xf6f1;" horiz-adv-x="720" 
d="M595 1352q50 0 82 -34t32 -86t-32 -81t-78 -29t-73 21q4 17 4 33t-13 30q-30 33 -100 -10q-42 -25 -57 -29v-426q0 -45 18 -63t56 -23l82 -8v-57q-111 4 -258 4l-221 -4v57l31 4q96 18 96 103v374q0 90 -107 91l-12 51q70 6 149 26t121 39l45 17v-123q14 4 54 37
q102 86 181 86z" />
    <glyph glyph-name="ssuperior" unicode="&#xf6f2;" horiz-adv-x="663" 
d="M302 649q150 0 149 108q1 52 -57 96t-126 69q-68 24 -125 80t-57 148t76 150q76 60 205 60q63 0 122 -15t101 -16l-12 -215h-56q-4 74 -45 120t-105 46t-94 -26q-28 -26 -28 -68q0 -73 130 -128q54 -24 108 -54t92 -82q38 -53 38 -125q0 -113 -89 -170t-224 -58
q-49 -1 -126 17t-105 18l-8 230h57q6 -90 56 -138q51 -48 123 -47z" />
    <glyph glyph-name="tsuperior" unicode="&#xf6f3;" horiz-adv-x="622" 
d="M442 688q77 0 150 23l12 -52q-32 -33 -104 -61t-162 -29t-145 53t-56 150v469h-106l-6 51q71 27 143 89t115 126l51 -14v-160h233v-102h-233v-438q-1 -105 108 -105z" />
    <glyph glyph-name="s_t" unicode="&#xfb06;" horiz-adv-x="1619" 
d="M1262 797v-557q0 -129 135 -129q94 0 164 20l22 8l16 -59q-143 -113 -331 -113q-115 0 -184 67t-68 187v588h-133l-9 61q96 31 170 103t74 151q0 78 -55 122t-147 44t-171 -36q-80 -36 -127 -87q-34 -103 -22 -227q98 -23 141 -22l-14 -267h-70q-4 91 -56 149t-132 58
t-116 -34t-36 -86q0 -92 162 -161q69 -30 137 -67q68 -36 115 -102t47 -156q0 -141 -112 -213t-279 -72q-61 0 -157 22t-134 21l-10 285h72q8 -115 71 -173t153 -58t138 36q47 37 47 95q0 59 -47 105t-114 77q-68 31 -134 65t-112 94q-46 62 -47 164q0 102 92 178
q92 75 248 76q33 178 171 316t349 139q170 0 268 -77q98 -78 98 -204t-73 -206h290v-125h-290z" />
    <glyph glyph-name="c_t" horiz-adv-x="1763" 
d="M721 719q0 63 -44 101t-112 38q-111 0 -177 -108t-66 -284q0 -175 87 -262t234 -87q102 0 219 43l27 -51q-88 -72 -172 -107t-219 -35q-197 0 -322 124q-125 125 -125 351t156 367t385 145q33 178 171 316t349 139q170 0 268 -77q98 -78 98 -204t-73 -206h291v-125h-291
v-557q0 -129 135 -129q101 0 164 18l22 6l9 -61q-131 -106 -336 -107q-111 0 -175 66t-65 188v588h-133l-8 61q96 31 170 103t74 151q0 78 -56 122t-146 44q-91 0 -171 -36t-127 -87q-25 -73 -25 -141t2 -86q190 -43 191 -176q0 -55 -38 -87q-38 -31 -93 -31t-84 20
q6 29 6 53z" />
    <glyph glyph-name="ornament.A" horiz-adv-x="1714" 
d="M1368 1382q-174 0 -297 -208q264 -102 412 -26q61 32 61 96t-49 101t-127 37zM1530 750q0 -88 -40 -146q-40 -59 -97 -95t-113 -71q-136 -85 -137 -200q0 -68 43 -129q42 -61 110 -61t102 29q34 30 34 73q0 90 -76 116q37 80 121 80q55 0 88 -37t32 -86q-1 -92 -69 -151
q-122 -105 -373 -105q-199 0 -377 92q-178 93 -290 265t-111 383q0 139 82 238t216 99t224 -90q23 84 70 183q-256 102 -422 102t-247 -72t-81 -176t51 -200q-25 -57 -88 -57t-95 41q-32 42 -32 110q0 193 135 311t335 119q200 0 474 -115q141 262 383 262q109 0 194 -56
t85 -162t-96 -156q-95 -50 -217 -50t-308 72q-118 -262 -118 -520t116 -451l13 4q-25 47 -52 163q-49 211 -11 386q56 263 304 260q98 0 168 -57t70 -145z" />
    <glyph glyph-name="ornament.B" horiz-adv-x="1640" 
d="M786 719q0 12 17 28t33 0t16 -28q0 -13 -10 -23t-22 -10t-24 10q-10 10 -10 23zM1004 735q42 0 112 -18q-62 -20 -108 -20t-103 14v10q57 14 99 14zM1053 78q-80 0 -139 68q-58 69 -58 153q0 37 18 113q35 148 -2 245q66 -20 118 -20t126 17q74 18 136 18t130 -58
t68 -137q0 -160 -176 -223q-74 -176 -221 -176zM1505 952q0 172 -192 262q-82 193 -260 193q-78 0 -143 -50t-91 -124q-25 74 -89 124q-65 50 -142 50q-178 0 -260 -193q-193 -88 -193 -262q0 -78 53 -141t136 -96q-82 -33 -136 -97t-53 -141q0 -174 193 -262
q82 -193 260 -192q78 0 142 50t89 124q27 -74 91 -124t143 -50q178 0 260 192q193 90 192 262q0 77 -53 141t-135 97q82 33 135 96t53 141zM801 533q0 43 16 100h8q30 -109 -6 -213q-18 70 -18 113zM588 78q-147 0 -221 176q-176 63 -177 223q0 80 69 137t149 58
q42 0 116 -18t125 -17q51 0 117 20q-18 -59 -18 -115t18 -130q18 -76 18 -113q0 -85 -58 -153t-138 -68zM1053 1352q147 0 221 -176q176 -63 176 -224q0 -80 -69 -137t-148 -57q-43 0 -118 17t-126 17t-117 -20q38 103 2 246q-18 76 -18 112q0 84 58 153q59 69 139 69z
M635 735q43 0 100 -14v-10q-57 -15 -102 -15t-111 21q70 18 113 18zM801 897q0 43 18 113q20 -62 20 -112t-14 -101h-8q-16 57 -16 100zM588 1352q80 0 138 -69t58 -153q0 -36 -18 -112t-18 -132t18 -114q-66 20 -117 20t-126 -16q-75 -18 -115 -18q-80 0 -149 57t-69 137
q0 160 177 224q74 176 221 176zM588 -33q-100 1 -179 59t-120 146q-209 113 -209 305q0 71 46 141t103 97q-57 27 -103 97t-46 140q0 193 209 305q41 89 120 147t179 58q141 0 231 -121q94 121 234 121q100 0 179 -58t120 -147q209 -113 209 -305q-1 -72 -47 -141t-103 -96
q57 -27 103 -97t47 -141q0 -193 -209 -305q-41 -88 -120 -146t-179 -59q-139 0 -234 121q-90 -121 -231 -121z" />
    <glyph glyph-name="R.swsh" horiz-adv-x="1429" 
d="M1212 1065q0 -249 -246 -357q-48 -22 -94 -34q74 -35 156 -166l154 -250q82 -131 150 -224q68 -92 163 -184t195 -148q223 -124 528 -124q188 0 308 46t120 126q8 4 29 4t41 -17t20 -57t-55 -80q-98 -72 -314 -100q-90 -12 -172 -12q-917 0 -1298 750l-141 278
q-59 119 -158 119q-17 0 -59 -14v-398q1 -77 23 -103t91 -36l64 -10v-74q-182 8 -328 8l-313 -8v74l49 10q131 27 131 188v938q0 76 -23 103t-92 37l-63 10v74q182 -8 328 -9l303 9q243 0 373 -112t130 -257zM539 1337v-632q49 33 117 33t98 -13l12 -2q59 41 105 129
q47 88 47 213t-88 205t-207 80q-47 -1 -84 -13z" />
    <glyph glyph-name="K.swsh" horiz-adv-x="1576" 
d="M2738 -246q20 0 41 -17t21 -57t-56 -80t-181 -76q-126 -36 -304 -36q-444 0 -749 176q-304 176 -527 539l-229 372q-63 104 -160 105q-27 0 -55 -8v-449q1 -77 23 -103t91 -36l64 -10v-74q-182 8 -328 8l-313 -8v74l49 10q131 27 131 188v938q0 76 -23 103t-92 37l-63 10
v74q182 -8 328 -9l313 9v-74l-49 -10q-131 -27 -131 -189v-391h133l329 434q31 43 31 78q0 53 -71 68l-54 10v74q145 -8 320 -9l282 9v-74l-53 -10q-135 -27 -246 -170l-303 -385l365 -519q96 -137 164 -223t167 -187t192 -157q223 -131 509 -131q166 0 286 46t120 126
q8 4 28 4z" />
    <glyph glyph-name="ornament.C" horiz-adv-x="1640" 
d="M793 715q0 10 9 18t18 8q8 0 18 -8t10 -18q0 -9 -9 -19t-19 -10t-19 10q-8 10 -8 19zM1460 901q0 -61 -61 -113q55 0 103 -20t65 -53q-17 -33 -65 -56t-103 -22q61 -47 61 -109q0 -29 -18 -48t-41 -19q-135 160 -492 186v39l244 12v31l-244 12v39q356 27 492 187
q23 -1 41 -19t18 -47zM485 729v-31l244 -12v-39q-356 -27 -491 -186q-23 0 -41 19t-19 48q0 61 62 109q-56 1 -104 23t-64 55q16 33 64 53t104 20q-61 51 -62 113q0 29 18 47t42 19q135 -160 491 -187v-39zM1006 74q-61 0 -109 61q0 -55 -23 -103t-55 -65q-33 17 -55 65
t-21 103q-47 -61 -110 -61q-29 0 -47 18t-19 41q160 135 187 492h39l12 -244h31l12 244h39q27 -356 186 -492q0 -23 -19 -41t-48 -18zM836 1049h-31l-12 -244h-39q-27 356 -187 491q1 23 19 41t47 19q63 0 110 -62q0 56 22 104t54 64q33 -16 55 -64t23 -104q47 61 109 62
q29 0 48 -18t19 -42q-160 -135 -186 -491h-39z" />
    <glyph glyph-name="A.smcp" horiz-adv-x="1230" 
d="M561 834l-127 -369h246zM774 156q0 25 -12 61l-47 143h-316l-49 -163q-6 -18 -6 -35q0 -59 64 -76l71 -16v-70q-109 8 -229 8l-217 -8v70l49 14q100 31 141 145l305 813l179 15l307 -838q22 -61 48 -88t79 -43l57 -18v-70q-137 8 -246 8l-293 -8v70l56 16q59 18 59 70z
" />
    <glyph glyph-name="B.smcp" horiz-adv-x="1058" 
d="M225 215v629q0 50 -17 72t-56 32l-68 15v69q125 -8 270 -8l217 6q170 0 269 -66q98 -67 98 -163q0 -95 -64 -153t-153 -75v-8q143 -33 221 -109t78 -188t-98 -190t-279 -78l-293 8l-270 -8v70l53 14q92 29 92 131zM532 948q-28 0 -53 -6v-356q66 6 127 -2q33 33 56 89
q22 55 22 123t-41 110t-111 42zM745 266q0 125 -76 188q-77 62 -190 62v-315q0 -117 103 -117q78 0 120 51t43 131z" />
    <glyph glyph-name="C.smcp" horiz-adv-x="1132" 
d="M1022 1026v-260h-70q-29 90 -109 143q-81 53 -213 53t-222 -111q-90 -113 -90 -323t115 -336q116 -126 274 -126q111 0 181 57t91 149l65 -4l-32 -243q-55 0 -167 -29t-247 -29t-260 51q-125 50 -212 174t-87 302q0 233 181 400t452 167q70 1 171 -17t179 -18z" />
    <glyph glyph-name="D.smcp" horiz-adv-x="1273" 
d="M225 215v629q0 50 -17 72t-56 32l-68 15v69q125 -8 270 -8l254 6q305 0 466 -141t161 -352q0 -253 -167 -395t-447 -142l-271 8l-270 -8v70l53 14q92 29 92 131zM479 201q0 -117 106 -117t206 59q101 59 145 195q25 76 25 172q0 194 -111 316t-281 122q-49 0 -90 -8v-739
z" />
    <glyph glyph-name="E.smcp" horiz-adv-x="960" 
d="M225 215v629q0 50 -17 72t-56 32l-68 15v69q125 -8 270 -8l520 6v-252h-55q-68 170 -256 170q-59 0 -84 -8v-371h107q80 0 92 97l10 69h64q-6 -90 -7 -213l7 -164h-62l-10 45q-18 76 -74 76h-127v-280q0 -117 109 -117q180 0 293 227l47 -6l-51 -303q-299 4 -355 4
l-172 4l-270 -8v70l53 14q92 29 92 131z" />
    <glyph glyph-name="F.smcp" horiz-adv-x="960" 
d="M874 778h-55q-68 170 -256 170q-59 0 -84 -8v-389h107q80 0 92 96l10 70h64q-6 -90 -7 -213l7 -164h-62l-10 45q-18 76 -74 76h-127v-273q-1 -52 19 -74t63 -30l76 -14v-70q-141 8 -287 8l-270 -8v70l53 14q92 29 92 131v629q0 50 -17 72t-56 32l-68 15v69q125 -8 270 -8
l520 6v-252z" />
    <glyph glyph-name="G.smcp" horiz-adv-x="1212" 
d="M678 66q131 0 131 98v121q0 74 -68 92l-67 16v70h495v-70l-47 -14q-37 -8 -50 -35t-13 -84v-235q-82 0 -221 -29t-239 -29t-198 31q-227 72 -313 256q-49 104 -49 240q0 233 181 400t452 167q70 1 171 -17t179 -18v-260h-70q-29 90 -109 143q-81 53 -213 53t-222 -111
t-90 -323t102 -337t258 -125z" />
    <glyph glyph-name="H.smcp" horiz-adv-x="1443" 
d="M965 485h-486v-297q-1 -50 17 -72t57 -32l68 -14v-70q-125 8 -271 8l-270 -8v70l53 14q92 29 92 131v629q0 50 -17 72t-56 32l-68 15v69q125 -8 270 -8l271 8v-69l-54 -15q-92 -29 -92 -131v-227h486v254q1 50 -17 72t-57 32l-68 15v69q125 -8 271 -8l270 8v-69l-53 -15
q-92 -29 -92 -131v-629q0 -50 17 -72t56 -32l68 -14v-70q-125 8 -270 8l-271 -8v70l53 14q92 29 93 131v270z" />
    <glyph glyph-name="I.smcp" horiz-adv-x="704" 
d="M225 215v629q0 50 -17 72t-56 32l-68 15v69q125 -8 270 -8l271 8v-69l-54 -15q-92 -29 -92 -131v-629q-1 -50 17 -72t57 -32l68 -14v-70q-125 8 -271 8l-270 -8v70l53 14q92 29 92 131z" />
    <glyph glyph-name="J.smcp" horiz-adv-x="694" 
d="M225 96v748q0 50 -17 72t-56 32l-68 15v69q125 -8 270 -8l271 8v-69l-54 -15q-92 -29 -92 -131v-690q0 -188 -96 -293q-37 -38 -164 -104t-162 -105l-34 64q16 29 70 75t73 76q59 80 59 256z" />
    <glyph glyph-name="K.smcp" horiz-adv-x="1236" 
d="M225 215v629q0 50 -17 72t-56 32l-68 15v69q125 -8 270 -8l271 8v-69l-54 -15q-92 -29 -92 -131v-248h99l194 265q29 41 29 67q0 35 -43 47l-53 15v69q152 -8 249 -8l228 8v-69l-66 -15q-96 -20 -182 -119l-186 -217l223 -381q94 -158 213 -157l69 10v-78
q-77 -39 -189 -39t-191 43t-132 148l-133 252q-37 70 -98 69q-18 0 -31 -6v-285q-1 -50 17 -72t57 -32l68 -14v-70q-125 8 -271 8l-270 -8v70l53 14q92 29 92 131z" />
    <glyph glyph-name="L.smcp" horiz-adv-x="958" 
d="M225 215v629q0 50 -17 72t-56 32l-68 15v69q125 -8 270 -8l271 8v-69l-54 -15q-92 -29 -92 -131v-629q0 -48 31 -76t82 -28q176 0 268 231l51 -8l-47 -307q-321 8 -514 8l-270 -8v70l53 14q92 29 92 131z" />
    <glyph glyph-name="M.smcp" horiz-adv-x="1597" 
d="M502 1024q0 -61 51 -168l270 -563l246 559q35 82 35 172q227 0 354 8v-76l-35 -8q-94 -23 -88 -104l47 -654q6 -90 86 -106l76 -14v-70q-174 8 -266 8l-299 -8v70l53 14q111 29 103 166l-31 461l-311 -713l-99 -16l-336 739l-28 -483q-4 -72 12 -107t68 -45l79 -16v-70
q-92 8 -223 8l-225 -8v70l51 14q61 18 85 57t34 127l41 582q6 84 -86 98l-47 8v76q254 -8 383 -8z" />
    <glyph glyph-name="N.smcp" horiz-adv-x="1320" 
d="M330 188q0 -62 25 -80t69 -24l82 -14v-70q-154 8 -232 8l-215 -8v70l54 14q92 29 92 131v629q1 51 -17 74t-57 30l-68 15v69q213 -8 365 -8q0 -59 76 -139l489 -533v475q0 64 -26 81t-68 24l-82 14v70q154 -8 232 -8l215 8v-70l-54 -14q-92 -29 -92 -131v-803l-117 -14
l-671 725v-521z" />
    <glyph glyph-name="O.smcp" horiz-adv-x="1255" 
d="M664 1061q233 0 393 -141t160 -378t-167 -406t-456 -169q-236 -1 -396 143t-159 382q0 238 167 404t458 165zM315 524q1 -206 99 -331t237 -125t215 118t76 324q0 205 -99 329t-239 124t-214 -117q-75 -116 -75 -322z" />
    <glyph glyph-name="P.smcp" horiz-adv-x="1015" 
d="M977 721q0 -141 -83 -217t-192 -76q-56 0 -130 20t-97 23v-283q0 -52 23 -74t69 -30l74 -14v-70q-145 8 -291 8l-270 -8v70l53 14q92 29 92 131v629q0 50 -17 72t-56 32l-68 15v69q125 -8 270 -8l238 8q168 0 276 -85t109 -226zM535 948q-31 0 -60 -6v-397l98 -17
q59 0 95 60t34 157q0 95 -50 149t-117 54z" />
    <glyph glyph-name="Q.smcp" horiz-adv-x="1255" 
d="M664 1061q233 0 393 -142t160 -379t-166 -405q-105 -106 -261 -145q67 -19 207 -61q140 -41 230 -67t225 -48t252 -23q291 0 510 88l27 -39q-105 -120 -267 -194t-373 -74t-441 123q-99 53 -191 108q-235 140 -387 164q-228 3 -386 144t-157 379q0 238 167 404t458 167z
M315 522q1 -206 99 -330t237 -124t215 118t76 322q0 205 -99 330t-239 125t-214 -118q-75 -117 -75 -323z" />
    <glyph glyph-name="R.smcp" horiz-adv-x="1150" 
d="M880 955q102 -75 103 -198q0 -123 -91 -184q-91 -60 -169 -77q55 -35 100 -111l97 -162q49 -82 106 -122t170 -40v-49q-61 -45 -176 -45q-244 0 -336 197l-98 213q-37 78 -88 78l-23 -4v-263q-1 -50 17 -72t57 -32l67 -14v-70q-123 8 -268 8l-268 -8v70l53 14
q92 29 92 131v629q0 50 -17 72t-56 32l-68 15v69q125 -8 270 -8l248 6q176 0 278 -75zM539 948q-37 0 -62 -6v-397q31 8 68 8l78 -12q84 76 84 202q0 85 -48 145t-120 60z" />
    <glyph glyph-name="S.smcp" horiz-adv-x="813" 
d="M442 973q-70 0 -106 -34q-36 -35 -37 -97q0 -62 74 -132t161 -123q86 -53 160 -141t74 -184q0 -145 -103 -220t-268 -75q-63 0 -163 23t-173 22v271h70q11 -101 73 -165t148 -64t128 35q44 36 44 96q0 105 -154 218q-64 47 -130 99t-111 127q-45 74 -45 159q0 115 91 193
t263 78q52 1 144 -15t153 -16l-16 -248h-70q-13 96 -75 144t-132 49z" />
    <glyph glyph-name="T.smcp" horiz-adv-x="1077" 
d="M408 227v705h-84q-178 0 -222 -160l-59 8l27 267h63q6 -23 53 -23h732q21 0 49 16l4 7h63l-28 -273l-62 4q0 82 -33 118t-108 36h-141v-744q0 -50 17 -72t56 -32l78 -14v-70q-135 8 -281 8l-280 -8v70l49 14q57 16 82 46t25 97z" />
    <glyph glyph-name="U.smcp" horiz-adv-x="1320" 
d="M479 340q0 -277 236 -277q131 0 180 73t49 204v504q0 50 -17 72t-57 32l-67 15v69q137 -8 223 -8l236 8v-69l-54 -15q-92 -29 -92 -131v-471q0 -182 -115 -280t-323 -98t-331 96q-122 98 -122 282v498q0 50 -17 72t-56 32l-68 15v69q125 -8 270 -8l271 8v-69l-54 -15
q-92 -29 -92 -131v-477z" />
    <glyph glyph-name="V.smcp" horiz-adv-x="1214" 
d="M463 877q0 -18 12 -56l201 -553l207 555q14 39 14 62q0 49 -61 63l-64 15v69q104 -8 213 -8l193 10v-71l-43 -15q-90 -31 -134 -137l-329 -838l-123 -12l-344 885q-35 88 -105 102l-63 15v69q162 -8 256 -8l264 8v-69l-43 -15q-51 -16 -51 -71z" />
    <glyph glyph-name="W.smcp" horiz-adv-x="1718" 
d="M1399 883q0 51 -58 65l-59 15v69q109 -8 199 -8l200 8v-69l-39 -15q-52 -20 -80 -51t-49 -86l-296 -836l-117 -14l-232 676l-215 -664l-123 -12l-331 903q-27 70 -99 84l-63 15v69q147 -8 256 -8l256 8v-69l-41 -15q-51 -16 -51 -71q0 -33 14 -72l172 -508l160 518
q10 35 10 55q0 63 -57 78l-60 15v67q184 -6 316 -6q2 -94 20 -150l185 -577l174 545q8 23 8 41z" />
    <glyph glyph-name="X.smcp" horiz-adv-x="1181" 
d="M487 500l-284 385q-37 49 -97 63l-69 15v71q152 -10 268 -10l254 10v-71l-43 -15q-33 -10 -38 -36t14 -48l149 -213l150 209q18 20 13 48t-40 40l-47 15v71q109 -10 219 -10l207 10v-71l-60 -15q-102 -23 -174 -119l-202 -266l301 -413q37 -49 96 -64l70 -14v-72
q-113 8 -248 8l-275 -8v72l43 14q33 10 38 36t-13 48l-168 248l-178 -244q-53 -66 18 -88l47 -14v-72q-129 8 -239 8l-187 -8v72l60 14q104 27 186 127z" />
    <glyph glyph-name="Y.smcp" horiz-adv-x="1136" 
d="M702 193q0 -88 82 -109l68 -14v-70q-133 8 -279 8l-278 -8v70l53 14q100 31 101 135v215l-256 445q-29 53 -95 69l-61 15v69q137 -8 221 -8l260 8v-69l-41 -15q-37 -12 -37 -38t17 -56l184 -328l162 297q27 49 26 74q0 41 -53 51l-47 8v76q94 -6 189 -6l182 8v-71
l-41 -15q-47 -16 -74 -45t-59 -82l-224 -387v-241z" />
    <glyph glyph-name="Z.smcp" horiz-adv-x="1040" 
d="M223 1030h721l19 -39l-615 -899l250 12q141 6 221 58t129 162l56 -13l-80 -311h-871l-16 31l614 907l-270 -16q-109 -6 -171 -52t-95 -139l-56 10l47 312h72q6 -23 45 -23z" />
    <glyph glyph-name="ampersand.smcp" horiz-adv-x="1110" 
d="M256 264q0 -76 43 -124q43 -46 121 -46t137 45l-225 258q-76 -57 -76 -133zM864 -33q-135 0 -252 111q-127 -111 -293 -111q-115 -1 -191 57t-77 154q0 188 242 275q-66 84 -95 145q-30 61 -30 143q0 139 123 231t261 91q138 0 207 -41q69 -40 69 -102t-38 -96
q-36 -34 -94 -34t-108 31q23 35 22 78q0 86 -96 86q-66 0 -104 -51t-39 -127q0 -111 92 -217l258 -293q57 78 57 167t-86 111l-59 15v65q121 -8 219 -8l221 10v-67l-51 -15q-66 -18 -104 -69t-73 -135q-36 -84 -73 -131q117 -150 215 -150q52 0 105 31l26 -41
q-82 -113 -254 -113z" />
    <glyph glyph-name="hyphen.caps" horiz-adv-x="729" 
d="M670 781q0 -36 -8 -48l-574 -108l-29 43q97 74 233 138t257 64q57 0 89 -26t32 -63z" />
    <glyph glyph-name="endash.caps" horiz-adv-x="1253" 
d="M1143 668h-1032v133h1032v-133z" />
    <glyph glyph-name="emdash.caps" horiz-adv-x="2269" 
d="M2157 668h-2046v133h2046v-133z" />
    <glyph glyph-name="quotedblleft.smcp" horiz-adv-x="917" 
d="M628 733q-68 -1 -112 57q-45 58 -45 134q0 158 94 270t244 139l20 -49q-80 -31 -127 -90t-47 -127q0 -125 117 -186q0 -63 -38 -105t-106 -43zM244 733q-68 -1 -113 57t-45 134q0 158 94 270t244 139l20 -49q-80 -31 -127 -90t-47 -127q0 -125 117 -186q0 -63 -38 -105
q-37 -42 -105 -43z" />
    <glyph glyph-name="quotedblright.smcp" horiz-adv-x="917" 
d="M446 1153q0 -159 -94 -271t-243 -139l-21 50q80 31 127 90t47 127q0 125 -117 186q0 64 38 106t106 42q69 0 113 -58q44 -57 44 -133zM831 1153q0 -159 -94 -271t-243 -139l-21 50q80 31 127 90t47 127q0 125 -117 186q0 64 38 106t106 42t112 -58q44 -57 45 -133z" />
    <glyph glyph-name="quoteleft.smcp" horiz-adv-x="532" 
d="M244 733q-68 -1 -113 57t-45 134q0 158 94 270t244 139l20 -49q-80 -31 -127 -90t-47 -127q0 -125 117 -186q0 -63 -38 -105q-37 -42 -105 -43z" />
    <glyph glyph-name="quoteright.smcp" horiz-adv-x="532" 
d="M446 1153q0 -159 -94 -271t-243 -139l-21 50q80 31 127 90t47 127q0 125 -117 186q0 64 38 106t106 42q69 0 113 -58q44 -57 44 -133z" />
    <glyph glyph-name="guillemotleft.caps" horiz-adv-x="1032" 
d="M905 393q-1 -45 -29 -69t-65 -25l-313 416l323 405l82 -108l-276 -287q102 -63 190 -155t88 -177zM567 360q1 -48 -29 -78t-67 -30l-344 463l340 456l98 -122l-301 -330q111 -68 207 -167t96 -192z" />
    <glyph glyph-name="guillemotright.caps" horiz-adv-x="1032" 
d="M127 1024q0 45 29 70t65 24l314 -416l-324 -405l-82 109l277 286q-102 62 -190 154t-89 178zM465 1057q0 47 30 78t66 30l344 -463l-340 -456l-98 123l301 329q-111 68 -207 167t-96 192z" />
    <glyph glyph-name="guilsinglleft.caps" horiz-adv-x="708" 
d="M557 360q0 -48 -30 -78t-66 -30l-344 463l340 456l98 -122l-301 -330q111 -68 207 -167t96 -192z" />
    <glyph glyph-name="guilsinglright.caps" horiz-adv-x="708" 
d="M150 1057q0 47 29 78q30 31 67 30l344 -463l-340 -456l-98 123l301 329q-111 68 -207 167t-96 192z" />
    <glyph glyph-name="parenleft.caps" horiz-adv-x="696" 
d="M57 717q0 309 156 568t371 417l53 -51q-365 -393 -365 -933t365 -935l-53 -51q-215 158 -371 417t-156 568z" />
    </font>
</defs>
</svg>
