<svg width="69" height="31" viewBox="0 0 69 31" xmlns="http://www.w3.org/2000/svg" xmlns:sketch="http://www.bohemiancoding.com/sketch/ns"><title>logo-69x31</title><desc>Created with Sketch.</desc><path d="M0 30v1h68.99900000000001v-31h-68.99900000000001v30zm67-28v27h-65v-27h65zm-36 10v-2h-10v2h4v9h2v-9h4zm13 9v-2h-7v-7h7v-2h-9v11h9zm13 0v-2h-6l6-7v-2h-9v2h6l-6 7v2h9zm-39.75-3.252c0-1.778-.971-2.695-3.436-3.358-1.973-.522-2.324-.759-2.324-1.488 0-.572.522-.962 1.377-.962.9 0 1.619.257 2.597.958l.213.153.142-.221.936-1.451.12-.186-.171-.142c-1.111-.921-2.242-1.301-3.806-1.301-2.247 0-3.796 1.373-3.796 3.407 0 1.913.871 2.705 3.592 3.422 1.74.461 2.168.764 2.168 1.44 0 .64-.568 1.041-1.547 1.041-1.211 0-2.015-.297-3.03-1.162l-.193-.164-.162.195-1.123 1.353-.152.183.175.161c1.211 1.116 2.661 1.625 4.439 1.625 2.437 0 3.981-1.332 3.981-3.502zm21.75-3.248v2h4v-2h-4z" sketch:type="MSShapeGroup" fill="#000"/></svg>