<svg width="700" height="700" xmlns="http://www.w3.org/2000/svg"><path d="M368.27 260.47l-8.82 13.86c-13.23-8.82-20.79-10.71-34.02-10.71-23.94 0-49.77 9.45-49.77 42.21 0 22.68 13.23 42.84 43.47 42.84 48.51 0 72.45-76.23 162.54-76.23 53.55 0 103.32 31.5 103.32 107.73 0 98.28-92.61 195.93-221.76 195.93-168.84 0-249.48-110.25-249.48-246.33 0-98.91 85.68-206.01 209.16-206.01 73.08 0 109.62 27.72 151.83 27.72 21.42 0 54.81-5.04 74.34-28.98l13.86 8.82c-17.01 56.7-45.36 105.21-107.1 105.21-69.3 0-115.92-41.58-175.14-41.58-81.27 0-146.16 51.03-146.16 133.56 0 126 122.85 143.64 227.43 143.64 63.63 0 195.93-17.64 195.93-105.84 0-32.76-14.49-46.62-50.4-46.62-61.74 0-78.75 117.18-190.89 117.18-75.6 0-116.55-50.4-116.55-104.58 0-49.14 42.21-98.28 105.21-98.28 23.94 0 44.1 8.19 63 26.46z" fill="#000" fill-rule="nonzero"/></svg>