<svg width="16" height="16" xmlns="http://www.w3.org/2000/svg" viewBox="0 0 16 16"><path d="M8.42 5.95l-.2.32c-.3-.2-.48-.24-.78-.24-.55 0-1.14.21-1.14.96 0 .52.3.98 1 .98 1.1 0 1.65-1.74 3.71-1.74 1.22 0 2.36.72 2.36 2.46 0 2.25-2.12 4.48-5.07 4.48-3.86 0-5.7-2.52-5.7-5.63 0-2.26 1.96-4.71 4.78-4.71 1.67 0 2.5.63 3.47.63.5 0 1.25-.11 1.7-.66l.32.2c-.4 1.3-1.04 2.4-2.45 2.4-1.58 0-2.65-.94-4-.94-1.86 0-3.34 1.16-3.34 3.05 0 2.88 2.8 3.28 5.2 3.28 1.45 0 4.47-.4 4.47-2.42 0-.75-.33-1.06-1.15-1.06-1.41 0-1.8 2.68-4.36 2.68-1.73 0-2.67-1.16-2.67-2.4 0-1.12.97-2.24 2.4-2.24.55 0 1.02.19 1.45.6z" fill="#000" fill-rule="nonzero"/></svg>